<svg width="9" height="6" viewBox="0 0 9 6" fill="none" xmlns="http://www.w3.org/2000/svg">
<path d="M1.10864 5.23944C1.0259 5.23188 1.0643 4.26181 1.11824 4.17454C1.94948 2.82406 2.92363 1.51001 4.07171 0.548006C4.20429 0.436383 4.36194 0.271183 4.51552 0.206618C4.6659 0.146244 4.6779 0.22994 4.80693 0.371551C4.89189 0.467356 4.97345 0.559327 5.0583 0.65112C5.39462 1.02649 5.72765 1.40205 6.06397 1.77742C6.7503 2.54751 7.43654 3.31358 8.12617 4.08349C8.13277 4.08313 8.13987 4.10283 8.14727 4.13456C8.18606 4.23287 8.1771 4.40205 8.17042 4.53094C8.17128 4.82812 8.15335 5.16648 8.10389 5.16917C5.78272 5.30716 3.42618 5.48322 1.11194 5.23926" fill="#704C43"/>
</svg>
