<svg width="13" height="18" viewBox="0 0 13 18" fill="none" xmlns="http://www.w3.org/2000/svg">
<path d="M8.74606 6.23963C8.74606 6.18207 8.65433 6.23959 8.70935 6.1993C8.76436 6.15901 8.78273 6.19934 8.74606 6.23963Z" fill="white"/>
<path d="M8.67871 6.00845C8.39754 5.85852 8.62371 5.58749 8.38533 5.4318C8.38533 5.4318 8.52585 5.39136 8.47695 5.35676C8.21412 5.24143 8.20196 4.95891 8.16529 4.67058H8.20804C8.20804 4.61292 8.06133 4.67051 8.04299 4.60132C8.02465 4.53212 8.08576 4.60142 8.1041 4.56105C8.03075 4.60142 8.01241 4.52069 7.95129 4.56105C7.89016 4.60142 8.01241 4.48597 8.01852 4.43984L7.93301 4.48024C7.71907 4.58404 7.79847 4.34764 7.63955 4.35917C7.63955 4.35917 7.67626 4.35913 7.68238 4.31876C7.46233 4.31876 7.30948 4.19188 7.11388 4.15729C7.14354 4.12609 7.16452 4.08848 7.17499 4.04776C7.16058 4.07606 7.13641 4.09889 7.10642 4.11252C7.07643 4.12614 7.04246 4.12982 7.01002 4.12279C7.01002 4.02476 6.89389 4.18046 6.86332 4.12279C6.78998 4.20929 6.82662 4.04772 6.75327 4.15729V4.07084C6.69214 4.19771 6.71658 3.99011 6.66157 4.07084V4.09971C6.61878 4.09971 6.61878 4.05354 6.5821 4.07084C6.50264 4.07084 6.47821 4.00745 6.45376 4.11125C6.45376 4.02475 6.53322 4.11124 6.52099 3.95554C6.27696 3.99694 6.02932 4.01616 5.7814 4.01312C5.75463 3.98658 5.73385 3.95525 5.72029 3.92091C5.72029 3.94974 5.62858 3.95546 5.61636 4.01312C5.60413 4.07079 5.61632 3.96131 5.57964 3.95554C5.54297 3.94978 5.57964 4.08235 5.50018 4.04198C5.50758 4.02557 5.51145 4.00801 5.51145 3.99018C5.51145 3.97234 5.50758 3.95464 5.50018 3.93823C5.50018 4.03049 5.42075 4.03048 5.38408 4.07084C5.38721 4.04787 5.38721 4.02455 5.38408 4.00158C5.38408 4.10538 5.28019 4.00166 5.25574 4.08239V4.01312C5.15794 3.96699 5.25569 4.14586 5.20067 4.12279C5.14566 4.09973 5.20067 4.08236 5.20067 4.05353C5.20067 4.18039 5.07842 4.17466 5.04786 4.2381C4.99896 4.27846 4.91338 4.23806 4.88281 4.34762C4.84614 4.34762 4.80949 4.21506 4.76059 4.26696C4.82783 4.37652 4.68729 4.37067 4.80342 4.4687C4.7423 4.4687 4.64449 4.49761 4.63837 4.54951C4.63837 4.49761 4.51611 4.44571 4.54667 4.40535L4.46721 4.37071C4.46721 4.32458 4.50999 4.37066 4.46721 4.31876C4.42442 4.26687 4.4183 4.41689 4.38774 4.41689C4.38774 4.50915 4.47328 4.64178 4.4305 4.69944C4.4305 4.64178 4.3144 4.61283 4.32051 4.57823C4.32051 4.65896 4.3877 4.73979 4.42438 4.82052C4.46105 4.90125 4.34499 4.75132 4.34499 4.82052C4.36887 4.84033 4.38588 4.86637 4.39386 4.89541C4.39386 4.89541 4.35719 4.98191 4.24717 4.89541C4.13714 4.80892 4.24712 4.84937 4.19822 4.8436C4.14932 4.83784 4.19822 4.90699 4.19822 4.93582C4.16154 4.93582 4.19828 5.03382 4.26552 5.05112C4.33276 5.06842 4.19828 5.01071 4.26552 5.01071C4.2824 5.03026 4.29156 5.05477 4.29156 5.07998C4.29156 5.10519 4.2824 5.1297 4.26552 5.14925C4.26552 5.14925 4.22878 5.10882 4.19822 5.08575C4.23812 5.15683 4.25915 5.23593 4.2594 5.31636C4.3083 5.34519 4.17377 5.24147 4.20434 5.253C4.08209 5.253 4.20438 5.43743 4.09435 5.4432C4.09435 5.4432 4.1738 5.4432 4.15546 5.4432C4.13713 5.4432 4.05155 5.4432 4.076 5.4432C4.10045 5.4432 4.076 5.47786 4.076 5.50669C4.076 5.53553 4.076 5.50669 4.076 5.50669C4.076 5.50669 4.13105 5.69694 4.03936 5.74884C4.03936 5.74884 4.14934 5.82966 4.14323 5.8412H4.06376C4.01486 5.8412 4.06376 5.89877 3.9843 5.88723C4.07598 5.9449 3.94151 5.72582 3.9843 5.78925C3.91706 5.78925 4.09432 5.88734 3.9843 5.85274C3.9843 5.88734 4.05765 5.9392 3.9843 5.9565C3.9843 5.9565 3.87432 5.91037 3.88043 5.9565C3.88654 6.00263 3.88041 5.95642 3.93542 6.01985V6.05448C4.00877 6.05448 3.93542 6.09488 4.00877 6.08912C3.94153 6.08912 4.00874 6.16414 3.90483 6.14684H3.80097C3.80097 6.14684 3.91099 6.19289 3.95378 6.21019H3.90483C4.06376 6.21019 3.90486 6.26217 4.01489 6.291C3.95376 6.33136 4.01486 6.40055 3.90483 6.42362C3.95373 6.45822 4.01486 6.48701 3.9843 6.52737C3.95373 6.56774 3.98432 6.52737 3.9293 6.52737C3.87429 6.52737 3.9293 6.55626 3.9293 6.57932C3.9293 6.60239 3.84374 6.63694 3.78873 6.67154C3.85053 6.68901 3.91637 6.68901 3.97818 6.67154C3.83148 6.7292 4.0882 6.75227 3.97818 6.8157C3.86815 6.87913 3.88652 6.77533 3.85596 6.8157C3.70926 6.87913 3.98431 6.85603 3.92319 6.91946L4.05152 6.87919C3.97817 6.91956 4.13713 6.92526 4.00877 6.95986C4.05767 6.95986 4.00879 7.02906 4.10659 6.95986C4.03935 7.07519 4.2349 7.11556 4.05764 7.24819C4.05764 7.24819 4.05764 7.28855 4.13099 7.24819C4.20434 7.20782 4.07598 7.24816 4.13099 7.21933C4.186 7.19049 4.17384 7.21933 4.19217 7.21933C4.21051 7.21933 4.19213 7.27707 4.06988 7.30014C3.94763 7.3232 4.28991 7.26544 4.2838 7.34617C4.27769 7.4269 4.22271 7.38082 4.24105 7.39235H4.33887C4.33887 7.43848 4.25329 7.47306 4.17994 7.51919C4.17994 7.51919 4.22268 7.56533 4.2838 7.51919L4.21046 7.60564C4.26547 7.5422 4.27159 7.60564 4.29604 7.60564C4.29604 7.60564 4.29604 7.64605 4.29604 7.65181C4.31058 7.6396 4.32198 7.62445 4.32939 7.60747C4.3368 7.59048 4.34008 7.57216 4.33887 7.55383C4.38166 7.55383 4.38771 7.55383 4.43661 7.55383C4.36326 7.59996 4.43661 7.62297 4.43661 7.64027C4.43661 7.65757 4.50997 7.64027 4.51608 7.64027C4.52219 7.64027 4.51611 7.64032 4.47332 7.69799C4.43054 7.75565 4.47332 7.6576 4.47332 7.66913C4.47332 7.68066 4.39386 7.74993 4.47332 7.73839C4.55279 7.72686 4.60165 7.62879 4.58943 7.69222C4.5772 7.75565 4.54052 7.72109 4.50996 7.73262V7.7902L4.56503 7.74417C4.63838 7.7038 4.63225 7.77876 4.7056 7.74417C4.77895 7.70957 4.7056 7.81331 4.7056 7.83061C4.7056 7.87674 4.74229 7.87674 4.79119 7.83061C4.79119 7.83061 4.83398 7.83061 4.87677 7.83061C4.87677 7.89404 4.69339 8.0613 4.79119 8.0094C4.88899 7.9575 4.92566 7.93446 4.944 7.88833C4.944 7.96329 5.09679 7.88832 5.07845 8.02672C5.07845 8.02672 5.07844 7.98631 5.13956 7.98054C5.20069 7.97477 5.34737 7.98057 5.34737 8.15356C5.31069 8.15356 5.34739 8.21696 5.29849 8.25732C5.34739 8.20542 5.29847 8.33226 5.35349 8.22846C5.4085 8.12466 5.39016 8.13621 5.35349 8.10161C5.31681 8.06702 5.49407 8.10155 5.50018 8.18228C5.4995 8.16955 5.50259 8.15701 5.50906 8.14582C5.51553 8.13463 5.52518 8.12529 5.53689 8.11893C5.4941 8.21696 5.53685 8.25152 5.57353 8.21692V8.15356V8.22269C5.57353 8.22269 5.62249 8.09591 5.63471 8.16511C5.63177 8.18809 5.63177 8.21125 5.63471 8.23423C5.68361 8.1881 5.7386 8.11322 5.76305 8.17088V8.26887C5.76305 8.26887 5.81802 8.20548 5.79968 8.17665C5.84247 8.24008 5.87916 8.25149 5.89139 8.33799C5.92465 8.27477 5.9776 8.22277 6.04315 8.18876C6.10871 8.15475 6.18371 8.14043 6.25812 8.14779V8.1996C6.2948 8.24573 6.25816 8.11319 6.29483 8.14779C6.33151 8.18239 6.32539 8.24583 6.29483 8.3035C6.26427 8.36116 6.34373 8.21689 6.36818 8.18806C6.39263 8.15922 6.36818 8.23429 6.36818 8.15356C6.36818 8.07283 6.4354 8.19387 6.42929 8.09584C6.43867 8.14543 6.43867 8.19619 6.42929 8.24578V8.19383C6.49041 8.30339 6.3865 8.40724 6.42929 8.53987C6.47208 8.6379 6.36205 8.66674 6.42929 8.68981C6.45677 8.61313 6.45677 8.53011 6.42929 8.45343C6.4843 8.41883 6.42933 8.22268 6.47212 8.21692C6.5149 8.21115 6.42933 8.21701 6.47212 8.31504C6.5149 8.41307 6.52714 8.25734 6.5577 8.28041C6.54658 8.25681 6.54076 8.2312 6.54076 8.20537C6.54076 8.17955 6.54658 8.15407 6.5577 8.13048C6.60049 8.16507 6.55767 8.22269 6.60657 8.22269C6.65547 8.22269 6.60657 8.1189 6.60657 8.0843C6.60657 7.95744 6.65544 8.08437 6.64933 8.0094C6.69212 8.09013 6.64933 8.22272 6.72879 8.25155C6.72879 8.17082 6.72883 8.11896 6.68604 8.00363C6.71734 8.0442 6.73633 8.09204 6.74103 8.14202C6.78382 8.18239 6.74103 7.97479 6.81438 8.14202V8.05544L6.88161 8.14202C6.88161 8.14202 6.8816 8.00362 6.95495 8.14202C6.95495 8.14202 7.00996 8.10745 6.95495 8.03249C6.89994 7.95753 6.95496 8.11319 6.88161 8.00363C6.94273 8.09013 6.91832 7.97473 6.91832 7.93436V7.98054C6.91832 7.98054 6.91832 7.98047 6.91832 7.9055C6.92841 7.93065 6.94284 7.9541 6.96107 7.97477V7.89973C6.96107 7.84207 7.03445 8.01514 7.06501 7.98054V8.04389C7.06501 8.04389 7.11389 8.09003 7.12 8.04389C7.12611 7.99776 7.05887 7.89404 7.03442 7.83638C7.00997 7.77871 7.08947 7.90558 7.07113 7.83638V7.92282C7.07113 7.92282 7.15055 8.01516 7.18111 7.99786C7.21167 7.98056 7.18111 7.85945 7.10776 7.84215C7.03441 7.82485 7.16277 7.84208 7.18111 7.91128C7.18111 7.87091 7.13224 7.84787 7.13224 7.79597C7.17503 7.83057 7.2484 7.86514 7.30952 7.9055L7.3584 8.02095C7.39507 8.11898 7.41955 8.07284 7.46845 8.16511C7.46845 8.16511 7.46845 8.12468 7.46845 8.09584C7.32175 7.99205 7.3706 7.88822 7.26058 7.77866C7.26058 7.71523 7.53565 8.03242 7.42563 7.81329C7.38895 7.81329 7.33392 7.6865 7.33392 7.74417C7.33392 7.80183 7.24835 7.6172 7.33392 7.6345C7.4195 7.6518 7.47452 7.72103 7.49897 7.81906C7.49897 7.7787 7.45011 7.81906 7.45622 7.81906C7.46233 7.81906 7.56011 7.93434 7.59067 7.9055C7.62124 7.87667 7.62735 7.84787 7.59067 7.79597C7.554 7.74408 7.59068 7.83053 7.51733 7.75557C7.44398 7.68061 7.63346 7.79022 7.51733 7.66913C7.51733 7.69796 7.43178 7.6692 7.38899 7.6V7.55383L7.43174 7.59423C7.49898 7.59423 7.36451 7.5134 7.43174 7.49033L7.53568 7.54805C7.60292 7.62302 7.45008 7.54804 7.57844 7.6749C7.57844 7.6749 7.57844 7.58847 7.57844 7.59423C7.57844 7.6 7.57844 7.59412 7.57844 7.62872C7.57844 7.66332 7.76797 7.75559 7.70685 7.62872C7.64573 7.50186 7.67017 7.58842 7.62127 7.54805C7.57237 7.50769 7.62127 7.44427 7.62127 7.41544C7.71295 7.48463 7.67014 7.36921 7.74349 7.46724C7.67625 7.46724 7.6335 7.5135 7.70685 7.59423C7.7802 7.67496 7.66404 7.62305 7.76184 7.72108C7.80463 7.68648 7.90854 7.77293 7.988 7.81906C8.06746 7.86519 7.988 7.77287 7.988 7.76134C7.988 7.74981 7.90854 7.72103 7.84131 7.66913C7.89632 7.63453 7.89021 7.5653 7.84131 7.49611C7.89021 7.49611 7.9574 7.55962 7.95129 7.58269C7.97372 7.51682 8.01629 7.45862 8.07358 7.41544C7.933 7.38084 8.07355 7.34051 7.96353 7.31168C7.92847 7.31525 7.89302 7.31189 7.85936 7.30197C7.82571 7.29204 7.79462 7.27573 7.76796 7.25396C7.76796 7.25396 7.82298 7.28283 7.85354 7.29436C7.88411 7.3059 7.98798 7.29431 7.89018 7.23664C7.89018 7.30584 8.03689 7.32314 8.12858 7.38658C8.12858 7.31738 8.20194 7.42117 8.22028 7.38658C8.19049 7.3266 8.1719 7.26218 8.16529 7.19624C8.28754 7.19624 8.22641 7.05216 8.23863 7.00027C8.25086 6.94837 8.42199 7.0464 8.44644 7.00027C8.47089 6.95413 8.31197 7.00022 8.37921 6.95409C8.37921 6.95409 8.48925 6.8676 8.3181 6.8157L8.44644 6.86188C8.44644 6.86188 8.44644 6.86184 8.44644 6.82724C8.44644 6.79264 8.53197 6.82724 8.55642 6.82724C8.58087 6.82724 8.55642 6.74654 8.55642 6.71194H8.47091C8.4159 6.63698 8.50758 6.60235 8.47091 6.53892H8.5503L8.50755 6.49851C8.5809 6.49851 8.63589 6.49847 8.56866 6.45811C8.6355 6.4931 8.69894 6.53374 8.75818 6.57932C8.70928 6.57932 8.66647 6.53316 8.58701 6.54469C8.50755 6.55622 8.52589 6.61384 8.58701 6.6369C8.64814 6.65997 8.58698 6.60817 8.55642 6.59087C8.66644 6.59087 8.65424 6.63116 8.72759 6.65999C8.80094 6.68883 8.72759 6.63112 8.72759 6.61959C8.74605 6.63147 8.76047 6.64816 8.76915 6.6676C8.77782 6.68703 8.78042 6.70849 8.77653 6.72926C8.73375 6.68889 8.70316 6.72926 8.67259 6.72926C8.77039 6.72926 8.79485 6.79266 8.75818 6.84456C8.7215 6.89646 8.80097 6.95415 8.75818 7.01181C8.68815 6.97729 8.62584 6.9303 8.57477 6.87342C8.51365 6.87342 8.57478 6.91371 8.50755 6.93677C8.57478 6.97137 8.67867 7.01173 8.70923 7.07516H8.63588C8.63588 7.12706 8.75814 7.16165 8.71535 7.21355C8.67256 7.26545 8.60532 7.39804 8.55642 7.46147H8.48919C8.61144 7.56527 8.48919 7.61726 8.48919 7.69799C8.37917 7.74989 8.42197 7.92279 8.28139 7.89396C8.2354 8.06862 8.12758 8.22324 7.97576 8.33222L7.92689 8.24C7.92689 8.31497 7.87188 8.24 7.85354 8.24C7.93912 8.2746 7.8902 8.3496 7.91465 8.41303C7.79852 8.41303 7.76182 8.53406 7.73737 8.63786L7.69461 8.58605C7.69461 8.73598 7.5479 8.68984 7.4501 8.71867C7.3523 8.7475 7.38285 8.64942 7.3584 8.66672C7.3584 8.78782 7.35841 8.79366 7.29117 8.88592C7.2163 8.91247 7.13376 8.91247 7.05889 8.88592C6.90608 9.11081 6.64324 9.06469 6.44764 9.18579V9.10498C6.22759 9.29527 5.93417 9.13953 5.73246 9.19719L5.76917 9.06457C5.71415 9.01268 5.62247 9.06469 5.62247 9.18002C5.56746 9.13388 5.45129 9.2203 5.43907 9.09921C5.42684 8.97811 5.34738 9.13962 5.28626 9.14538C5.20932 9.07924 5.1092 9.04231 5.00511 9.04163V9.04163C5.00511 9.04163 5.05401 8.9608 5.00511 8.9435C4.95621 8.9262 4.86451 8.85131 4.84006 9.01854C4.76671 8.88014 4.51612 8.96078 4.47944 8.78202C4.47944 8.82239 4.43054 8.81667 4.39998 8.83397C4.36942 8.85127 4.25936 8.63209 4.13711 8.63786C4.13711 8.60903 4.21049 8.59757 4.17382 8.56873C4.13714 8.5399 4.13714 8.60914 4.08824 8.60914C3.88041 8.55724 3.86815 8.3034 3.7459 8.1996C3.50508 8.01424 3.32143 7.77129 3.21412 7.49611V7.49611C3.05519 7.45574 3.26301 7.25395 3.04907 7.24241C3.04907 7.21358 3.04913 7.15597 3.11025 7.15597C3.00023 7.10407 3.11022 6.9426 3.0002 6.8561C3.06132 6.74077 2.93296 6.66002 3.0002 6.54469C3.0002 6.54469 3.00018 6.57355 3.06131 6.57355C3.12243 6.57355 2.90849 6.48117 3.06131 6.45234C3.06131 6.4235 2.97573 6.45234 2.98184 6.45234C3.03074 6.21014 2.94517 5.95074 2.98184 5.67972C3.12854 5.52402 3.25694 5.73742 3.17748 5.57019C3.17748 5.57019 3.11636 5.57019 3.17748 5.57019C3.23861 5.57019 3.38529 5.54127 3.31194 5.47783C3.23859 5.4144 3.26301 5.43755 3.208 5.42025C3.31191 5.33376 3.4036 5.35103 3.36693 5.24723H3.40976C3.31807 5.0973 3.40976 5.02802 3.33029 4.87232C3.59077 4.33404 4.01668 3.88201 4.55279 3.57486C5.10284 3.29145 5.73762 3.18995 6.35594 3.28654C6.4843 3.43647 6.49041 3.43659 6.65545 3.40775C6.65545 3.40775 6.65545 3.40766 6.65545 3.45379C6.65545 3.34423 6.76547 3.45385 6.80214 3.36735C7.02244 3.42156 7.23889 3.48889 7.4501 3.56909C7.40731 3.56909 7.35232 3.63837 7.39511 3.6499L7.46845 3.60372V3.63259C7.49902 3.63259 7.56014 3.59805 7.54792 3.55192C8.15917 3.73644 8.45868 4.30156 8.77042 4.70521C8.83051 4.84857 8.91285 4.98264 9.01485 5.10307C8.9988 5.49886 9.02749 5.89517 9.10044 6.28523C9.10044 6.28523 8.79481 6.23328 8.71535 6.09489" fill="white"/>
<path d="M8.7582 6.30879C8.69708 6.30879 8.6665 6.36135 8.58704 6.30879C8.64405 6.30592 8.70119 6.30592 8.7582 6.30879" fill="white"/>
<path d="M7.92703 7.11039C7.92703 7.11039 7.89643 7.11039 7.89032 7.11039C7.88421 7.11039 7.84753 7.06999 7.89032 7.07576C7.93311 7.08152 7.8903 7.07579 7.9392 7.11039" fill="white"/>
<path d="M7.78035 7.28307C7.76188 7.27005 7.7479 7.25213 7.74028 7.23163C7.73266 7.21113 7.7317 7.18899 7.73752 7.16797L7.78035 7.28307Z" fill="white"/>
<path d="M7.48692 7.31719C7.44413 7.31719 7.42582 7.2885 7.43805 7.27123C7.45027 7.25396 7.46858 7.27114 7.48692 7.31719Z" fill="white"/>
<path d="M7.56629 7.39857C7.56629 7.39857 7.52962 7.39857 7.49906 7.39857C7.4685 7.39857 7.49905 7.35213 7.56629 7.39857Z" fill="white"/>
<path d="M7.15674 7.57113C7.15674 7.57113 7.15669 7.62846 7.11391 7.57113C7.07112 7.51381 7.11395 7.49661 7.15674 7.57113Z" fill="white"/>
<path d="M7.059 7.73856C7.05048 7.71809 7.05048 7.69527 7.059 7.6748V7.73856Z" fill="white"/>
<path d="M3.98441 6.67188L4.00886 6.68957L3.95996 6.69547L3.98441 6.67188Z" fill="white"/>
<path d="M11.8327 5.99788C11.8327 5.84154 11.741 6.07884 11.796 5.89355C11.8388 5.89355 11.8694 5.94577 11.8327 5.99788Z" fill="white"/>
<path d="M11.7472 5.37967C11.4233 4.93565 11.5088 4.22641 11.0931 3.82852C11.0504 3.77662 11.2338 3.78238 11.136 3.67281C10.6771 3.17087 10.2563 2.63902 9.87677 2.08126H9.93788C9.85231 1.97746 9.65059 1.98319 9.54667 1.89669C9.54667 1.89669 9.60785 1.89664 9.60174 1.84474C9.52839 1.89087 9.37558 1.741 9.29611 1.7583C9.21665 1.7756 9.29611 1.64871 9.29611 1.58528L9.17382 1.62568C8.87431 1.70641 8.7276 1.36044 8.39752 1.35467C8.39752 1.35467 8.45258 1.35463 8.44035 1.3085C7.92793 1.19818 7.40966 1.11352 6.88776 1.0548C6.88776 1.02597 6.94277 0.974095 6.88776 0.93373C6.85108 1.02599 6.6922 1.02018 6.55162 1.03171C6.49661 0.927918 6.3071 1.11245 6.15429 1.03171C6.03204 1.12975 5.97698 0.968351 5.87919 1.10098L5.80584 1.02594C5.75694 1.16434 5.62861 0.962511 5.53081 1.02594V1.0548C5.44523 1.0894 5.39022 1.0548 5.30465 1.0548C5.11516 1.11823 4.98069 1.05477 5.00514 1.16433C4.91957 1.08937 5.19461 1.10087 5.06013 0.99131C4.41245 1.17662 3.78431 1.41791 3.18364 1.71212C3.09195 1.71212 3.04302 1.71212 3.00635 1.71212C2.96967 1.71212 2.79853 1.85636 2.78019 1.93709C2.78019 1.93709 2.71293 1.93709 2.68237 1.93709C2.55401 1.97169 2.64575 2.10424 2.50516 2.14461C2.50516 2.08694 2.50516 2.05237 2.50516 2.02931C2.448 2.15163 2.36476 2.26158 2.26065 2.35226C2.26065 2.35226 2.26065 2.30029 2.26065 2.27723C2.21175 2.43292 2.04056 2.42715 1.99778 2.56555V2.49065C1.78995 2.57715 2.05283 2.62322 1.88779 2.71549C1.88779 2.66935 1.88779 2.66365 1.88779 2.64059C1.81148 2.82298 1.71084 2.99538 1.58829 3.15374C1.58829 3.15374 1.58829 3.15374 1.58829 3.15374C1.46995 3.29607 1.3732 3.45331 1.30094 3.62086C1.23982 3.667 1.1665 3.52291 1.09926 3.6959C1.22151 3.75357 0.995356 4.00151 1.18484 3.96691C1.07173 4.09502 0.994033 4.24758 0.958684 4.41094C0.958684 4.33021 0.775321 4.41084 0.818109 4.30704L0.701933 4.37631C0.653033 4.37631 0.756945 4.28396 0.701933 4.2955C0.646921 4.30703 0.665261 4.56078 0.628586 4.61268C0.706929 4.76042 0.754634 4.92095 0.769161 5.08557C0.732486 4.98754 0.616337 5.11437 0.604112 5.04517L0.805872 5.35081C0.805872 5.41424 0.701951 5.35077 0.720288 5.4488C0.756963 5.4488 0.775304 5.48923 0.799753 5.51806C0.824203 5.54689 0.799721 5.77755 0.689696 5.80061C0.579671 5.82368 0.689699 5.69678 0.616349 5.76598C0.543 5.83518 0.616385 5.89294 0.65306 6.01404C0.65306 6.09477 0.714161 6.2447 0.781398 6.1582C0.848635 6.07171 0.701969 6.15815 0.738644 6.10048C0.777682 6.14192 0.807495 6.19032 0.826391 6.24281C0.845288 6.2953 0.852843 6.35083 0.848626 6.40612C0.848626 6.37152 0.787555 6.40608 0.750881 6.35995C0.848602 6.51398 0.920736 6.68129 0.964802 6.85593C1.02593 6.85593 0.848656 6.79818 0.879219 6.76934C0.811981 7.00577 1.05648 7.22498 0.952565 7.4268C0.952565 7.4268 1.03813 7.4268 1.01979 7.4268C1.01979 7.53637 0.940332 7.54203 1.01979 7.60546C0.964781 7.60546 1.01977 7.69197 1.07479 7.76116C1.1298 7.83036 1.07482 7.76127 1.03815 7.72667C1.16291 7.9513 1.23186 8.19977 1.23983 8.45326C1.27651 8.45326 1.40489 8.56847 1.411 8.62037H1.32542C1.29486 8.6838 1.38043 8.79918 1.32542 8.82225C1.45378 8.91451 1.12982 8.40707 1.24595 8.5397C1.19094 8.59736 1.42932 8.72426 1.31318 8.71849C1.31318 8.82229 1.45991 8.90304 1.41712 9.02413C1.41712 8.98953 1.28262 8.96635 1.31318 9.05285C1.34374 9.13935 1.36211 9.05285 1.42324 9.19701L1.47823 9.26628C1.55769 9.26628 1.51493 9.40473 1.58217 9.324C1.52104 9.3586 1.69219 9.52577 1.58217 9.54883H1.47823C1.50879 9.61226 1.61879 9.62376 1.67991 9.65836C1.74104 9.69296 1.67995 9.69299 1.63716 9.69299C1.79608 9.6584 1.67991 9.85451 1.82661 9.88911C1.82661 10.039 1.9428 10.2293 1.88167 10.3274C1.97879 10.397 2.04602 10.4973 2.07112 10.6099C2.07112 10.6099 2.03445 10.5637 1.99778 10.5695C1.9611 10.5753 1.99778 10.6618 2.08336 10.7194C2.16893 10.7771 2.0834 10.8924 2.04672 10.9962C2.1323 11.0827 2.1934 10.9962 2.24841 10.9962C2.1445 11.1519 2.47456 11.2384 2.3951 11.4056C2.35843 11.4056 2.25453 11.2903 2.26065 11.4056C2.16285 11.5613 2.4501 11.544 2.45621 11.717L2.55403 11.6306C2.51736 11.7286 2.73127 11.8151 2.60291 11.8554C2.67014 11.8554 2.65181 12.0399 2.76184 11.9707C2.76184 12.2533 3.12249 12.5071 3.01247 12.7493C3.04914 12.7493 3.07363 12.8645 3.12253 12.8184C3.17143 12.7723 3.0369 12.7665 3.06746 12.7262C3.07744 12.7324 3.08916 12.7356 3.10111 12.7356C3.11306 12.7356 3.12471 12.7324 3.13469 12.7262C3.13469 12.8127 3.17747 12.8703 3.0491 12.853C3.0491 13.0491 3.33644 12.9164 3.40979 13.1356C3.36089 13.1356 3.35478 13.1817 3.40979 13.2336L3.55649 13.2971C3.62372 13.4354 3.5015 13.4297 3.42815 13.4758C3.48316 13.5393 3.53202 13.6258 3.61148 13.62L3.57484 13.7584C3.57484 13.6604 3.65428 13.7583 3.69706 13.8102H3.65431C3.65431 13.8448 3.70314 13.9084 3.73982 13.943C3.77649 13.9776 3.73982 13.8161 3.73982 13.7642C3.73982 13.7123 3.8254 13.8333 3.89875 13.8564C3.81317 13.891 3.8988 14.0006 3.95381 14.0583C4.00883 14.1159 4.06381 14.0582 4.07603 14.1043C4.08826 14.1504 4.13716 14.2024 4.07603 14.1909C4.01491 14.1794 4.07605 14.1216 4.02104 14.1043C3.96603 14.087 3.95377 14.2023 4.05768 14.2542C4.16159 14.3061 4.19217 14.1447 4.22885 14.2946C4.19217 14.2946 4.15553 14.2946 4.11274 14.2946L4.1555 14.4273L4.22885 14.3869C4.22885 14.3869 4.22885 14.3869 4.22885 14.4157C4.32053 14.4157 4.37555 14.5714 4.46724 14.5426C4.55893 14.5137 4.51003 14.6868 4.54671 14.7444C4.55631 14.7869 4.57871 14.8258 4.61125 14.8565C4.64379 14.8872 4.68503 14.9084 4.73004 14.9175V14.9175C4.76756 14.9767 4.826 15.0216 4.89508 15.0443C4.89508 15.1654 4.68729 15.2461 4.84621 15.2807C5.00514 15.3153 5.07238 15.3268 5.08461 15.2807C5.17018 15.4652 5.42079 15.546 5.46358 15.7536C5.50637 15.7536 5.50639 15.7536 5.5614 15.7536C5.74477 15.9785 6.06257 16.0938 6.1237 16.3302C6.05035 16.3302 6.08091 16.3878 6.05035 16.4224C6.12981 16.3936 6.05036 16.5205 6.13594 16.4224C6.22151 16.3244 6.18484 16.3302 6.13594 16.2898C6.21131 16.2998 6.28277 16.3277 6.34374 16.3706C6.34374 16.3706 6.34374 16.3187 6.34374 16.2956C6.34374 16.4109 6.42934 16.4052 6.44768 16.3418V16.2841L6.50879 16.3245C6.50879 16.2956 6.44771 16.1976 6.55162 16.2092C6.57003 16.2278 6.59316 16.2417 6.61885 16.2496C6.65552 16.1515 6.69216 16.0015 6.80829 15.9784H6.94283C6.94283 15.9438 6.97946 15.8458 6.9 15.8804C7.07726 15.8055 7.16894 15.7247 7.27285 15.742C7.38834 15.3696 7.59811 15.0292 7.8841 14.7502V14.7906C7.98801 14.7387 7.84746 14.6926 7.92081 14.6638C7.99416 14.6349 8.05526 14.6637 8.05526 14.756C8.18363 14.6753 8.09194 14.5599 8.12861 14.4734C8.16529 14.3869 8.12862 14.5599 8.06138 14.4734C7.99414 14.3869 8.22643 14.3408 8.15308 14.2716C8.2081 14.2716 8.25085 14.3293 8.2753 14.3639V14.2658C8.44034 14.2658 8.30586 14.583 8.49534 14.5714L8.53205 14.4965C8.66653 14.4965 8.53203 14.7387 8.65427 14.5945C8.65427 14.4907 8.58704 14.3523 8.50758 14.3926C8.59316 14.2254 8.3487 14.1909 8.47095 14.0294C8.55652 14.0294 8.39148 14.1678 8.47095 14.1851C8.55041 14.2024 8.54429 14.0063 8.61764 13.9544C8.53206 14.0063 8.48313 13.891 8.50146 13.8333C8.5198 13.7756 8.55034 13.9371 8.63592 13.8333C8.59924 13.7872 8.63597 13.6546 8.53817 13.7238C8.4526 13.6142 8.6543 13.6258 8.6054 13.5047C8.70931 13.5047 8.70932 13.7411 8.83768 13.6316C8.74599 13.6316 8.83767 13.4124 8.67875 13.4124C8.73376 13.372 8.79487 13.4124 8.81932 13.4701C8.91712 13.4239 8.81932 13.2105 8.96602 13.274L8.89879 13.1991C8.94158 13.1991 8.97825 13.199 9.04548 13.1587C9.11272 13.1183 9.04547 12.8876 9.18606 12.9568C9.18606 12.9568 9.28386 12.7838 9.18606 12.7953C9.08826 12.8068 9.18606 12.9338 9.03325 12.9281C9.16772 12.9281 9.10659 12.7838 9.10659 12.7146H9.15554C9.15554 12.6743 9.21055 12.6051 9.15554 12.5589C9.1607 12.5649 9.16716 12.5698 9.17457 12.5731C9.18197 12.5765 9.19009 12.5782 9.19829 12.5782C9.2065 12.5782 9.21462 12.5765 9.22202 12.5731C9.22943 12.5698 9.23589 12.5649 9.24105 12.5589L9.18606 12.484C9.22273 12.3341 9.3328 12.5185 9.3817 12.3801V12.507C9.3817 12.4781 9.47334 12.4724 9.48556 12.3974C9.49779 12.3225 9.37554 12.2534 9.33275 12.2072C9.28996 12.1611 9.42442 12.2072 9.39386 12.1091V12.2417C9.39386 12.2417 9.54061 12.2418 9.59562 12.1322C9.65063 12.0226 9.55889 11.9131 9.46721 11.9938C9.46721 11.9477 9.57118 11.8958 9.60174 11.9592C9.63841 11.8381 9.51617 11.9592 9.52839 11.8208C9.58952 11.8208 9.71787 11.7112 9.82178 11.6651L9.88901 11.8208L9.92564 11.7517C9.97454 11.8843 10.0173 11.7516 10.0907 11.8323C10.1129 11.7786 10.1129 11.7189 10.0907 11.6651C9.86453 11.7343 9.95011 11.4171 9.78507 11.3941C9.83397 11.1923 10.1947 11.4229 10.0602 11.1346C10.0052 11.1346 9.93787 11.0135 9.92564 11.1346C9.99288 11.0251 9.81562 10.9963 9.92564 10.8809C9.92564 11.0078 10.1213 10.829 10.1458 11.0135C10.0969 11.0135 10.0724 11.0827 10.0724 11.1115C10.0724 11.1404 10.2191 11.1808 10.268 11.0597C10.3169 10.9386 10.3291 10.8751 10.268 10.8578C10.2069 10.8405 10.2252 10.979 10.1579 10.8982C10.1946 10.7368 10.3352 10.7597 10.213 10.6444C10.2075 10.6615 10.1979 10.6772 10.1849 10.6902C10.1719 10.7032 10.1559 10.7132 10.1381 10.7193C10.1203 10.7255 10.1012 10.7276 10.0824 10.7256C10.0636 10.7237 10.0455 10.7176 10.0296 10.7079V10.5868L10.0785 10.6272C10.1885 10.4715 9.99899 10.5406 10.0785 10.3792L10.2191 10.3445C10.2986 10.4137 10.0785 10.5695 10.2191 10.5984C10.268 10.4888 10.2191 10.4254 10.2863 10.3389C10.2833 10.3677 10.2833 10.3966 10.2863 10.4253C10.2863 10.3908 10.5308 10.4253 10.4697 10.2235C10.4697 10.1254 10.4208 10.1832 10.3658 10.1601C10.4147 9.97559 10.3658 9.90054 10.4024 9.78521C10.5125 9.84864 10.488 9.58925 10.5614 9.75072C10.5042 9.79988 10.4648 9.86456 10.4483 9.93585C10.4319 10.0071 10.4393 10.0815 10.4697 10.1486C10.6347 10.1486 10.4025 10.2811 10.5186 10.3676C10.5797 10.2235 10.7142 10.2754 10.8059 10.2812C10.8976 10.287 10.8059 10.1947 10.8059 10.1659C10.8059 10.1371 10.7142 10.1659 10.6286 10.1659C10.7037 10.0309 10.7191 9.8733 10.6714 9.72763C10.6827 9.71763 10.6971 9.71115 10.7125 9.70933C10.7278 9.7075 10.7434 9.71031 10.7569 9.71735C10.7705 9.72439 10.7814 9.73538 10.788 9.7486C10.7946 9.76183 10.7965 9.77663 10.7936 9.79098C10.8382 9.59234 10.9058 9.39895 10.9953 9.21433C10.8181 9.30083 10.9954 9.00095 10.8853 9.05285C10.7753 9.10475 10.702 9.20286 10.6531 9.13366C10.6042 9.06446 10.7142 9.13366 10.7509 9.13366C10.7876 9.13366 10.9098 9.04134 10.812 8.93178C10.812 9.12207 10.9709 9.0125 11.0687 9.07017C11.0687 8.92601 11.1421 9.09904 11.1787 8.96641C11.1634 8.81298 11.1634 8.65849 11.1787 8.50506C11.3315 8.3436 11.2826 8.04384 11.3132 7.88238C11.3804 7.80741 11.4966 7.88229 11.5332 7.7958C11.5699 7.7093 11.3865 7.85351 11.4721 7.69781C11.4721 7.64591 11.6066 7.40941 11.4294 7.33445L11.5577 7.40371C11.5577 7.37488 11.5577 7.34597 11.5577 7.31713C11.5577 7.2883 11.6433 7.28833 11.6678 7.34599C11.7717 7.25373 11.6678 7.12697 11.6678 7.0174L11.5822 7.08076C11.5697 6.91374 11.5697 6.74617 11.5822 6.57915H11.6616L11.6249 6.46948C11.6983 6.46948 11.7533 6.40029 11.6922 6.33686L11.8694 6.63673C11.8144 6.71169 11.7777 6.54456 11.6983 6.59069C11.6188 6.63682 11.6372 6.79824 11.6983 6.83284C11.6983 6.76941 11.6983 6.76366 11.6983 6.71176C11.8083 6.71176 11.7961 6.79249 11.8694 6.85015C11.8694 6.81556 11.9061 6.76933 11.8694 6.7578C11.9164 6.8366 11.9316 6.92887 11.9122 7.0174C11.8755 6.93667 11.8389 7.052 11.8083 7.0174C11.9061 7.0174 11.9245 7.15002 11.8756 7.28841C11.8267 7.42681 11.9122 7.55943 11.8756 7.71513C11.7877 7.64227 11.7258 7.54562 11.6983 7.43835C11.631 7.53061 11.6983 7.5536 11.6188 7.64586C11.7127 7.7032 11.7803 7.79165 11.8083 7.89378H11.735C11.735 8.02064 11.8572 8.03795 11.8022 8.18788C11.7166 8.4416 11.6494 8.70686 11.5883 8.90292H11.5149C11.6372 9.05285 11.466 9.27785 11.5149 9.44507C11.3682 9.66997 11.411 10.0216 11.2398 10.0851C11.159 10.5218 11.0172 10.9465 10.8181 11.348L10.757 11.2384C10.7937 11.3422 10.6775 11.2673 10.6531 11.348C10.7753 11.2904 10.7081 11.4921 10.7387 11.5729C10.5982 11.7581 10.5214 11.9795 10.5186 12.2072H10.4514C10.4881 12.4379 10.268 12.5878 10.1335 12.7839C10.0968 12.7839 10.0174 12.7838 9.98683 12.8646C10.0193 13.0032 10.0193 13.1469 9.98683 13.2855C9.89486 13.4289 9.78392 13.5606 9.65673 13.6776C9.44726 14.1686 9.18508 14.6383 8.87432 15.0789H8.77657C8.59931 15.6095 8.03694 16.013 7.76188 16.4051L7.68853 16.2725C7.55406 16.3475 7.47455 16.532 7.57235 16.5781C7.43177 16.6473 7.3279 16.8838 7.16287 16.8549C7.01005 16.9414 7.05891 17.0106 6.89388 17.1375C6.72859 17.2249 6.54512 17.2774 6.3562 17.2914C6.16728 17.3053 5.97741 17.2804 5.79972 17.2183C5.83244 17.2372 5.86732 17.2526 5.90366 17.2643C5.96478 17.2643 5.97701 17.1952 5.90366 17.1606C5.79602 17.1243 5.69341 17.0759 5.59803 17.0164C5.50635 16.9645 5.46357 16.9588 5.45746 17.0626C5.22519 16.7858 4.80342 16.6301 4.68728 16.3245C4.68728 16.3764 4.60785 16.3245 4.56506 16.3245C4.36946 16.1342 4.26551 15.8689 4.0638 15.7478C4.0638 15.7017 4.16775 15.7479 4.10663 15.6671C4.0455 15.5864 4.05768 15.7017 3.98433 15.6671C3.63592 15.3903 3.52588 14.9406 3.28138 14.6465C2.84115 14.1283 2.46008 13.5677 2.14447 12.9741H2.17506C1.9489 12.8472 2.05281 12.4724 1.79609 12.3974C1.79609 12.334 1.72274 12.2129 1.79609 12.2186C1.63105 12.1091 1.66157 11.7574 1.44764 11.5786C1.44764 11.5786 1.44769 11.6133 1.49659 11.6306C1.45991 11.3769 1.27039 11.2095 1.23372 10.9443C1.23372 10.9443 1.28874 11.002 1.3193 10.9962C1.3193 10.8809 1.09312 10.829 1.2276 10.7194C1.2276 10.6618 1.13591 10.7194 1.15425 10.7194C1.00144 10.1428 0.695847 9.61796 0.500248 9.04708C0.500248 8.60306 0.76307 8.95486 0.561358 8.655C0.561358 8.6204 0.494159 8.655 0.524722 8.655C0.44526 8.5339 0.665309 8.41855 0.524722 8.34936C0.433035 8.40126 0.457434 8.29756 0.396309 8.30909C0.396309 8.03807 0.487996 7.97454 0.396309 7.77848H0.4513C0.255701 7.55935 0.304634 7.27105 0.102922 7.08076C0.0601345 6.7463 0.0234388 6.40608 0.00510132 6.07162C-0.0100035 5.71519 0.00845965 5.35827 0.0601674 5.00491C0.164332 4.29143 0.428949 3.6071 0.83639 2.99804C1.65796 1.79679 2.93121 0.933569 4.40001 0.581912C4.65509 0.636272 4.92215 0.607889 5.15795 0.501243C5.15795 0.501243 5.15795 0.52998 5.15795 0.547279C5.15795 0.437716 5.42077 0.501277 5.44522 0.391713C5.98768 0.336877 6.53482 0.336877 7.07728 0.391713C6.98559 0.391713 6.93054 0.47816 7.03445 0.483926L7.15675 0.431977V0.460838C7.2301 0.460838 7.3218 0.414757 7.24845 0.368625C8.67729 0.560171 9.98212 1.23915 10.9159 2.27723C11.1176 2.53672 11.4355 2.85388 11.6494 3.14797C12.0337 4.05663 12.2687 5.0154 12.3462 5.99095C12.2433 5.93841 12.1539 5.86521 12.0842 5.77654C12.0145 5.68787 11.9662 5.58581 11.9428 5.47766" fill="white"/>
<path d="M11.8388 6.18168C11.7838 6.21034 11.7472 6.31357 11.6677 6.22758C11.7227 6.22758 11.7899 6.16448 11.8388 6.18168Z" fill="white"/>
<path d="M10.8058 8.85155C10.8058 8.85155 10.7752 8.88634 10.763 8.89213C10.7508 8.89792 10.7263 8.81676 10.763 8.79939C10.7997 8.78202 10.763 8.83418 10.8058 8.85155" fill="white"/>
<path d="M10.5674 9.51965C10.5185 9.51965 10.5246 9.34123 10.5674 9.25488V9.51965Z" fill="white"/>
<path d="M10.1457 10.0675C10.0784 10.1076 10.0661 10.0676 10.0906 10.016C10.115 9.96443 10.1273 10.0446 10.1457 10.0675Z" fill="white"/>
<path d="M10.2374 10.1488C10.2308 10.1695 10.2181 10.188 10.2008 10.2023C10.1835 10.2166 10.1623 10.2259 10.1396 10.2293C10.1824 10.2293 10.1396 10.1027 10.2374 10.1488Z" fill="white"/>
<path d="M9.50377 11.3944C9.50377 11.4289 9.50377 11.5093 9.43042 11.5151C9.48543 11.5151 9.43042 11.3427 9.50377 11.3944Z" fill="white"/>
<path d="M9.29594 12.0173C9.29594 12.0173 9.29594 12.0174 9.29594 12.069C9.29594 12.1206 9.24089 12.0689 9.25311 12.0059L9.29594 12.0173Z" fill="white"/>
<path d="M2.29724 11.4697L2.35225 11.5218L2.29724 11.5334V11.4697Z" fill="white"/>
<path d="M0.842718 6.42388C0.806043 6.35469 0.891671 6.37193 0.897784 6.36039C0.903896 6.34886 0.830493 6.36045 0.842718 6.42388Z" fill="white"/>
<path d="M0.268018 8.68364C0.268018 8.68364 0.268018 8.72974 0.268018 8.74126C0.268018 8.75277 0.194689 8.6836 0.213027 8.64906C0.231364 8.61453 0.255811 8.6491 0.286374 8.68364" fill="white"/>
<path d="M0.457485 9.43873C0.408585 9.43873 0.316948 9.29503 0.280273 9.20312L0.457485 9.43873Z" fill="white"/>
<path d="M0.500279 10.1892C0.500279 10.2579 0.451377 10.2522 0.420814 10.1892C0.390252 10.1261 0.469717 10.1892 0.500279 10.1892Z" fill="white"/>
<path d="M0.628688 10.1953C0.639942 10.2157 0.64585 10.2384 0.64585 10.2614C0.64585 10.2844 0.639942 10.307 0.628688 10.3274C0.671476 10.3274 0.555339 10.2068 0.628688 10.1953Z" fill="white"/>
<path d="M1.12382 11.7002C1.12382 11.7347 1.22161 11.7921 1.18493 11.8438C1.18493 11.7921 1.04436 11.7059 1.12382 11.7002Z" fill="white"/>
<path d="M1.55774 12.3291C1.55168 12.3459 1.55168 12.3641 1.55774 12.3809C1.55774 12.427 1.50272 12.3809 1.47827 12.3809L1.55774 12.3291Z" fill="white"/>
<path d="M10.696 11.5449L10.6838 11.6252L10.641 11.5965L10.696 11.5449Z" fill="white"/>
<path d="M12.2731 5.99126C12.2731 5.91054 12.3281 5.93931 12.3342 5.92778C12.3403 5.91624 12.2731 5.92784 12.2731 5.99126Z" fill="white"/>
<path d="M3.33026 6.16406C3.33026 6.22172 3.42191 6.13527 3.37301 6.20446C3.32411 6.27366 3.2997 6.20443 3.33026 6.16406Z" fill="white"/>
<path d="M3.67252 6.37777C3.95369 6.5277 3.73364 6.79872 3.97203 6.95442C3.97203 6.95442 3.82539 6.99472 3.8804 7.02931C4.14323 7.14464 4.15546 7.42731 4.18602 7.71563H4.14319C4.14319 7.7733 4.2899 7.71556 4.30824 7.78476C4.32658 7.85396 4.27158 7.7848 4.24713 7.82516C4.32048 7.7848 4.33882 7.86553 4.39994 7.82516C4.46107 7.7848 4.33883 7.90011 4.33272 7.94624L4.4183 7.90583C4.63835 7.80204 4.55276 8.03858 4.71169 8.02705C4.71169 8.02705 4.67497 8.02695 4.66886 8.06731C4.88891 8.06731 5.04786 8.19419 5.23735 8.22879C5.2098 8.26133 5.18907 8.29847 5.17624 8.33832C5.19147 8.31068 5.21573 8.28848 5.24548 8.27497C5.27524 8.26145 5.30881 8.25742 5.34122 8.26342C5.34122 8.36145 5.45742 8.20576 5.48798 8.26342C5.56133 8.17693 5.52462 8.33835 5.59797 8.22879V8.31537C5.65909 8.18851 5.63466 8.3961 5.69579 8.31537V8.28651C5.73246 8.28651 5.73246 8.33268 5.76913 8.32114C5.84248 8.32114 5.87302 8.38454 5.89135 8.28074C5.89135 8.36724 5.8119 8.30958 5.82412 8.43645C6.06815 8.39505 6.31579 8.37569 6.56371 8.37872C6.59049 8.40526 6.61134 8.4366 6.6249 8.47094C6.6249 8.47094 6.71653 8.43639 6.72876 8.37872C6.74098 8.32106 6.7288 8.43068 6.76547 8.43645C6.80215 8.44221 6.76548 8.3095 6.85105 8.34986C6.83894 8.38352 6.83894 8.42011 6.85105 8.45376C6.85105 8.3615 6.93049 8.36151 6.97327 8.32114C6.96376 8.34334 6.96376 8.36808 6.97327 8.39027C6.97327 8.28647 7.07105 8.39033 7.10161 8.3096V8.37872C7.19941 8.42486 7.10167 8.24613 7.15668 8.26919C7.21169 8.29226 7.15668 8.30949 7.15668 8.33832C7.15668 8.21146 7.27893 8.21732 7.31561 8.15389C7.37062 8.11353 7.45003 8.12495 7.4867 8.04422C7.52338 7.96349 7.55398 8.17693 7.609 8.12503C7.53565 8.01547 7.67619 8.02118 7.56005 7.92315C7.62729 7.92315 7.7251 7.89438 7.73122 7.84248C7.73122 7.89438 7.84736 7.94628 7.8168 7.98664L7.89626 8.02127C7.89626 8.06741 7.85348 8.02118 7.89626 8.07308C7.93905 8.12498 7.94517 7.9751 7.97573 7.9751C7.97573 7.88283 7.89019 7.75021 7.93298 7.69255C7.93298 7.75021 8.04908 7.78479 8.04908 7.81362C8.0124 7.73289 7.98181 7.65221 7.93902 7.57724C7.89623 7.50228 8.01848 7.64068 8.01848 7.57724C7.9946 7.55743 7.97759 7.53125 7.96961 7.50221C7.96961 7.50221 8.00628 7.41571 8.1163 7.50221C8.22633 7.5887 8.11635 7.54839 8.16525 7.55416C8.21415 7.55992 8.16525 7.49077 8.16525 7.45617C8.20193 7.45617 8.16519 7.35803 8.09795 7.34073C8.03071 7.32343 8.16519 7.38113 8.09795 7.38113C8.08107 7.36159 8.07191 7.33722 8.07191 7.31201C8.07191 7.2868 8.08107 7.26229 8.09795 7.24274C8.11549 7.26803 8.13844 7.28969 8.16525 7.30624C8.127 7.23482 8.10805 7.15548 8.11019 7.07549C8.05517 7.04666 8.19581 7.15052 8.15913 7.13898C8.28138 7.13898 8.1591 6.95441 8.27524 6.94865C8.27524 6.94865 8.18967 6.94865 8.20801 6.94865C8.22634 6.94865 8.31193 6.94865 8.29359 6.94865C8.27525 6.94865 8.29359 6.91398 8.29359 6.88515C8.29359 6.85632 8.32415 6.88515 8.29359 6.88515C8.26303 6.88515 8.24465 6.6949 8.33023 6.643C8.33023 6.643 8.22025 6.56232 8.22636 6.55079H8.30583C8.36084 6.55079 8.30583 6.49308 8.38529 6.50461C8.29972 6.44695 8.42808 6.66603 8.38529 6.6026C8.45253 6.6026 8.27527 6.50465 8.38529 6.53925C8.38529 6.50465 8.31194 6.45279 8.38529 6.43549C8.45864 6.41819 8.49528 6.48162 8.49528 6.43549C8.49528 6.38936 8.45862 6.43543 8.44028 6.372V6.33736C8.36082 6.33736 8.44029 6.29711 8.36694 6.30287C8.42806 6.30287 8.3364 6.22785 8.46476 6.24515H8.56862C8.56862 6.24515 8.46471 6.19896 8.41581 6.18166H8.46476C8.30583 6.18166 8.46473 6.12982 8.36082 6.10099C8.42194 6.06062 8.36085 5.99144 8.46476 5.96837C8.41586 5.93377 8.35473 5.90498 8.38529 5.86461C8.41585 5.82425 8.38527 5.86461 8.44028 5.86461C8.4953 5.86461 8.44028 5.83573 8.44028 5.81266C8.44028 5.7896 8.52584 5.75505 8.57474 5.72045C8.51973 5.69162 8.4403 5.72045 8.38529 5.72045C8.53199 5.66279 8.27527 5.63972 8.38529 5.57629C8.38529 5.57629 8.47083 5.61665 8.50139 5.57629C8.64809 5.51286 8.37304 5.53582 8.43417 5.47239L8.31195 5.5128C8.3853 5.47243 8.22022 5.46673 8.34858 5.43213C8.29968 5.43213 8.34856 5.36293 8.25076 5.43213C8.32411 5.3168 8.12245 5.27643 8.29971 5.1438C8.29971 5.1438 8.29971 5.10344 8.22636 5.1438C8.15301 5.18417 8.28749 5.14369 8.22636 5.17252C8.16524 5.20135 8.18352 5.17252 8.1713 5.17252C8.15907 5.17252 8.17133 5.11492 8.28747 5.09185C8.40361 5.06879 8.07355 5.12641 8.07355 5.04568C8.07355 4.96494 8.13464 5.01117 8.1163 4.99964H8.01848C8.01848 4.95351 8.10407 4.91878 8.18353 4.87265C8.15297 4.87265 8.14079 4.82652 8.07355 4.87265L8.1469 4.78621C8.098 4.84964 8.09188 4.78621 8.06131 4.78621V4.74581C8.04647 4.7565 8.03477 4.77063 8.02729 4.78677C8.0198 4.80292 8.01673 4.82062 8.01848 4.83816C7.9757 4.83816 7.96964 4.83816 7.92686 4.83816C8.00021 4.79203 7.92686 4.76888 7.92686 4.75158C7.92686 4.73428 7.84739 4.75158 7.84739 4.75158C7.84739 4.75158 7.84735 4.72283 7.88403 4.694C7.9207 4.66517 7.88403 4.73425 7.88403 4.72272C7.88403 4.71119 7.96349 4.64206 7.88403 4.65359C7.80457 4.66513 7.7557 4.7632 7.76793 4.69977C7.78015 4.63634 7.81683 4.6709 7.84739 4.65937V4.60164L7.78621 4.64782C7.71897 4.69395 7.71899 4.61899 7.65175 4.64782C7.58451 4.67665 7.65175 4.57868 7.65175 4.56138C7.65175 4.51525 7.61507 4.51525 7.56617 4.56138C7.56103 4.55632 7.55486 4.5523 7.54804 4.54955C7.54121 4.5468 7.5339 4.54533 7.52647 4.54533C7.51905 4.54533 7.51166 4.5468 7.50483 4.54955C7.498 4.5523 7.49184 4.55632 7.4867 4.56138C7.4867 4.49795 7.66397 4.33069 7.56617 4.38259C7.46837 4.43448 7.43169 4.45753 7.41335 4.50366C7.41335 4.42293 7.26667 4.50366 7.2789 4.36527C7.2789 4.36527 7.27892 4.40568 7.22391 4.41145C7.16889 4.41721 7.00998 4.41142 7.00998 4.23842C7.04666 4.23842 7.04663 4.17503 7.05886 4.13467C7.00996 4.18656 7.05888 4.05959 7.00998 4.16339C6.96108 4.26718 6.96717 4.25563 6.97939 4.29023C6.99162 4.32483 6.83881 4.29029 6.8327 4.20956C6.83806 4.21937 6.84083 4.2302 6.84083 4.24124C6.84083 4.25227 6.83806 4.26325 6.8327 4.27306C6.86937 4.17503 6.83266 4.1461 6.79599 4.17493V4.23842V4.16916C6.79599 4.16916 6.74098 4.29608 6.72876 4.22688C6.7317 4.2039 6.7317 4.1806 6.72876 4.15761C6.68597 4.20375 6.62487 4.27877 6.60042 4.22111V4.12312C6.60042 4.12312 6.54538 4.1865 6.56983 4.21533C6.52093 4.1519 6.48431 4.14035 6.47208 4.05386C6.43953 4.11762 6.38665 4.17024 6.32091 4.20435C6.25518 4.23846 6.17979 4.25241 6.10527 4.2442V4.19225C6.0686 4.14611 6.10527 4.27879 6.10527 4.2442C6.10527 4.2096 6.0686 4.14615 6.10527 4.08849C6.14195 4.03082 6.05033 4.17496 6.02588 4.20379C6.00143 4.23262 6.02588 4.15769 6.02588 4.23842C6.02588 4.31915 5.95859 4.19797 5.9647 4.296C5.95836 4.24621 5.95836 4.19587 5.9647 4.14607V4.19802C5.90969 4.08845 6.00749 3.98474 5.9647 3.85211C5.9158 3.75408 6.02582 3.72524 5.9647 3.70218C5.93419 3.77836 5.93419 3.86237 5.9647 3.93855C5.90358 3.97315 5.96473 4.16916 5.91583 4.17493C5.86693 4.1807 5.95861 4.17497 5.91583 4.07694C5.87304 3.97891 5.86692 4.12888 5.83636 4.11158C5.84921 4.13471 5.85591 4.16036 5.85591 4.18647C5.85591 4.21259 5.84921 4.23838 5.83636 4.26151C5.79969 4.22691 5.83639 4.16916 5.79361 4.16916C5.75082 4.16916 5.79361 4.27295 5.79361 4.30755C5.79361 4.43441 5.73855 4.30762 5.74466 4.38259C5.70187 4.30185 5.74466 4.16927 5.66519 4.14044C5.66519 4.22117 5.66524 4.27303 5.71414 4.38836C5.68285 4.34778 5.66378 4.29995 5.65908 4.24997C5.61018 4.20384 5.65908 4.4172 5.58573 4.24997V4.33641L5.51238 4.24997C5.51238 4.24997 5.51239 4.38836 5.43904 4.24997C5.43904 4.24997 5.38402 4.28453 5.43904 4.3595C5.49405 4.43446 5.43903 4.27877 5.51238 4.3595C5.45126 4.273 5.47575 4.3884 5.47575 4.42876V4.38259C5.47575 4.38259 5.47575 4.38252 5.47575 4.45748C5.46813 4.43129 5.45333 4.40751 5.43292 4.38836V4.46325C5.43292 4.52092 5.3535 4.34799 5.32293 4.38259V4.31909C5.32293 4.31909 5.27398 4.27296 5.26787 4.31909C5.26176 4.36522 5.329 4.46331 5.35345 4.52098C5.3779 4.57864 5.29844 4.45178 5.35345 4.52098V4.43439C5.35345 4.43439 5.27403 4.3422 5.24347 4.3595C5.21291 4.3768 5.24347 4.4979 5.32293 4.5152C5.4024 4.5325 5.26181 4.51514 5.24347 4.44594C5.24347 4.4863 5.29234 4.50948 5.29234 4.56138C5.23657 4.52029 5.17726 4.48354 5.11506 4.45171L5.06618 4.33641C5.06618 4.23838 5.0051 4.28451 4.9562 4.19225C4.9562 4.19225 4.9562 4.23268 4.9562 4.26151C5.1029 4.36531 5.0601 4.46899 5.17012 4.57856C5.17012 4.64199 4.88893 4.32494 4.99895 4.54406C5.03563 4.54406 5.09066 4.67085 5.09066 4.61319C5.09066 4.55552 5.17623 4.74002 5.09066 4.72272C5.00508 4.70542 4.95006 4.63632 4.92561 4.53829C4.92561 4.57866 4.97448 4.53829 4.96836 4.53829C4.96225 4.53829 4.86447 4.42288 4.83391 4.45171C4.80334 4.48054 4.79723 4.50948 4.83391 4.56138C4.87058 4.61328 4.8339 4.52668 4.90725 4.60164C4.9806 4.67661 4.79112 4.56713 4.90725 4.68823C4.90725 4.65939 4.9928 4.71699 5.03559 4.75735V4.80353L4.99284 4.76312C4.9256 4.76312 5.06619 4.84381 4.99284 4.86688L4.8889 4.8093C4.82166 4.73434 4.97451 4.80932 4.84614 4.68245C4.81558 4.68245 4.84611 4.76889 4.81555 4.76312C4.78499 4.75736 4.81555 4.76308 4.81555 4.72272C4.81555 4.68235 4.62609 4.60162 4.68721 4.72272C4.74834 4.84381 4.73001 4.76316 4.77891 4.79776C4.82781 4.83235 4.77891 4.90731 4.77891 4.93615C4.68111 4.86118 4.73004 4.98223 4.65058 4.8842C4.72393 4.8842 4.76667 4.83808 4.68721 4.75735C4.60775 4.67662 4.73002 4.75737 4.63222 4.63051C4.59555 4.6651 4.48552 4.57865 4.40606 4.53252C4.3266 4.48639 4.40606 4.5728 4.40606 4.5901C4.40606 4.6074 4.47941 4.63056 4.55276 4.68245C4.49774 4.71129 4.49774 4.78628 4.55276 4.85548C4.50386 4.85548 4.43659 4.79196 4.4427 4.7689C4.4248 4.83678 4.38138 4.89624 4.32048 4.93615C4.46718 4.97074 4.32044 5.01107 4.43046 5.0399C4.46551 5.03633 4.50097 5.0397 4.53462 5.04962C4.56828 5.05954 4.59944 5.07586 4.6261 5.09762C4.6261 5.09762 4.57108 5.06875 4.54052 5.05722C4.50996 5.04569 4.41216 5.05728 4.54052 5.11494C4.54052 5.04574 4.38769 5.02267 4.296 4.96501C4.33268 5.0342 4.22875 4.93041 4.2043 4.96501C4.23734 5.02382 4.25618 5.08872 4.25937 5.15521C4.13712 5.15521 4.19825 5.29942 4.18602 5.35132C4.1738 5.40321 4.00871 5.30518 3.97814 5.35132C3.94758 5.39745 4.11872 5.35136 4.04537 5.39749C4.04537 5.39749 3.93541 5.48399 4.10656 5.53588L3.97814 5.48971C3.97814 5.48971 3.97814 5.48974 3.97814 5.52434C3.97814 5.55894 3.89261 5.52434 3.86816 5.52434C3.84371 5.52434 3.86816 5.60504 3.86816 5.63964H3.94763C4.00264 5.71461 3.94763 5.74923 3.94763 5.81266H3.86816L3.91092 5.85307C3.83757 5.85307 3.78868 5.85297 3.84981 5.89333C3.78387 5.85697 3.72053 5.81654 3.66028 5.77226C3.70918 5.77226 3.75199 5.81842 3.83145 5.80689C3.91091 5.79536 3.89258 5.73774 3.83145 5.71468C3.77033 5.69161 3.83145 5.71458 3.83145 5.76071C3.71531 5.76071 3.72752 5.72042 3.66028 5.69159C3.59305 5.66276 3.62361 5.69162 3.66028 5.72622C3.64023 5.7174 3.62428 5.70194 3.61529 5.68286C3.6063 5.66378 3.60491 5.64228 3.61141 5.62232C3.64809 5.66269 3.67867 5.62232 3.70923 5.62232C3.61143 5.62232 3.59308 5.55892 3.62365 5.50702C3.65421 5.45512 3.58086 5.39744 3.62365 5.33977C3.69587 5.37366 3.76023 5.42069 3.8131 5.47816C3.86811 5.47816 3.81315 5.43788 3.87428 5.41481C3.81315 5.38021 3.70309 5.33985 3.67864 5.27642H3.74587C3.74587 5.22452 3.62361 5.18993 3.6664 5.13803C3.70919 5.08613 3.77643 4.9534 3.82533 4.88997H3.89256C3.77031 4.78617 3.89256 4.73432 3.89256 4.65359C4.0087 4.6017 3.96596 4.42865 4.10044 4.45748C4.14848 4.2822 4.25845 4.1276 4.41218 4.01922L4.45494 4.11158C4.45494 4.03661 4.51606 4.11158 4.52828 4.11158C4.44271 4.07121 4.49162 4.00199 4.46717 3.93855C4.58942 3.93855 4.62613 3.81738 4.65058 3.71358L4.69333 3.76553C4.69333 3.6156 4.83393 3.66175 4.93173 3.63291C5.02953 3.60408 5.00509 3.70216 5.02343 3.68486C5.02343 3.56377 5.02342 3.55793 5.09066 3.46566C5.16552 3.43911 5.24807 3.43911 5.32293 3.46566C5.48186 3.24077 5.73858 3.28689 5.93418 3.16579V3.2466C6.14812 3.05631 6.44758 3.21191 6.64929 3.15425L6.61266 3.28687C6.66156 3.33877 6.75323 3.2869 6.75323 3.17157C6.80825 3.2177 6.92441 3.13128 6.93664 3.25238C6.94886 3.37347 7.02833 3.21197 7.08945 3.2062C7.16669 3.27188 7.26662 3.30874 7.3706 3.30996V3.30996C7.3706 3.30996 7.3217 3.39078 7.3706 3.40808C7.4195 3.42538 7.5112 3.50027 7.53565 3.33304C7.61511 3.47144 7.8596 3.39066 7.90238 3.56942C7.90238 3.52905 7.94517 3.53491 7.97573 3.51761C8.00629 3.50031 8.11628 3.71935 8.24464 3.71358C8.24464 3.71358 8.17133 3.75402 8.20189 3.78285C8.23245 3.81168 8.24468 3.73668 8.28747 3.74244C8.4953 3.79434 8.50748 4.04804 8.62973 4.15184C8.87056 4.3372 9.05421 4.58029 9.16151 4.85548V4.85548C9.32044 4.89584 9.11263 5.09764 9.33268 5.10917C9.33268 5.138 9.3327 5.19561 9.27157 5.19561C9.37548 5.24751 9.2716 5.40898 9.37551 5.49548C9.31439 5.61081 9.44275 5.69156 9.37551 5.80689C9.36592 5.80275 9.35547 5.80056 9.34492 5.80056C9.33437 5.80056 9.32392 5.80275 9.31433 5.80689C9.2532 5.85302 9.46714 5.89913 9.31433 5.92797C9.31433 5.9568 9.3999 5.92797 9.39379 5.92797C9.34489 6.17016 9.39379 6.4297 9.39379 6.69495C9.2532 6.85642 9.11877 6.64303 9.20434 6.81026C9.16767 6.81026 9.26547 6.81026 9.20434 6.81026C9.14322 6.81026 9.00265 6.8102 9.06989 6.90247C9.13712 6.99473 9.11875 6.94289 9.17987 6.96019C9.06985 7.04092 8.98426 7.02942 9.02094 7.13321H8.97207C9.06375 7.27738 8.97207 7.35228 9.05153 7.50798C8.7917 8.04666 8.36564 8.49885 7.82904 8.80544C7.26964 9.0936 6.62352 9.1952 5.99529 9.09376C5.86693 8.94383 5.86082 8.94386 5.69579 8.97269C5.69579 8.97269 5.69579 8.97264 5.69579 8.92651C5.69579 9.03608 5.58576 8.9266 5.54297 9.01309C5.33503 8.95771 5.1309 8.89025 4.93173 8.81121C4.9684 8.81121 5.02339 8.74207 4.9806 8.73054L4.90725 8.77658V8.74786C4.87058 8.74786 4.81556 8.7824 4.82779 8.82853C4.21654 8.644 3.91092 8.07888 3.60529 7.67523C3.5452 7.53188 3.46278 7.39781 3.36078 7.27738C3.37663 6.87967 3.34801 6.48147 3.27527 6.08944C3.27527 6.08944 3.58082 6.14716 3.66028 6.28556" fill="white"/>
<path d="M3.32422 6.09027C3.38534 6.09027 3.41592 6.04317 3.49539 6.09027C3.43849 6.0959 3.38112 6.0959 3.32422 6.09027" fill="white"/>
<path d="M7.81085 7.31738C7.81085 7.35205 7.75585 7.31738 7.74974 7.31738C7.74363 7.31738 7.79862 7.35782 7.81085 7.31738Z" fill="white"/>
<path d="M6.30115 8.13659L6.30726 8.13086L6.35616 8.21684L6.30115 8.13659Z" fill="white"/>
</svg>
