<?xml version="1.0" encoding="UTF-8"?><svg id="Layer_2" xmlns="http://www.w3.org/2000/svg" viewBox="0 0 169.22 51.56"><defs><style>.cls-1{fill:#6b4e45;}</style></defs><g id="Layer_1-2"><g><g><g><path class="cls-1" d="m39.14,12.58s-.05,0-.08,0c-.01.02-.02.04-.03.06.04-.02.07-.04.11-.05Z"/><path class="cls-1" d="m11.65,13.32s-.02,0-.03.01c.05.02.1.04.16.06-.05-.02-.09-.05-.13-.07Z"/><path class="cls-1" d="m44.36,11.43c-1.34,1.18-2.82,2.02-3.84,2.14.03-.07.06-.12.09-.17.25-.5.5-1,.75-1.5.07-.15.16-.3,0-.45-.28.15-.56.29-.85.44-.15.13-.32.23-.51.31-.26.24-.59.41-1,.47-.03.04-.06.09-.1.15-.05-.02-.11-.03-.18-.06-.7.32-1.41.63-2.22.78.21-.53.58-.96.59-1.57-.02-.02-.04-.05-.05-.07-.08.05-.13.09-.17.12-.58.43-1.19.78-1.9.96-.57.15-1.15.25-1.72.32-.04.02-.08.04-.13.05-.18.03-.36.05-.54.07-.04.04-.04.09.06.12-.1,0-.14-.02-.19-.1-.14.03-.29.05-.45.05-.24,0-.47-.04-.66-.1-.13-.02-.26-.05-.38-.1-.01,0-.02,0-.04,0-.36-.07-.67-.22-.94-.42-.02.01-.03.03-.05.05-.05-.06-.1-.1-.15-.16.01,0,.02-.02.03-.03-.23-.23-.42-.52-.55-.87-.16-.45-.24-.91-.23-1.39,0-.24.02-.41.03-.56-.03-.21-.03-.43,0-.65,0,0,0,0-.01.01.01-.17.03-.25.06-.28,0-.01,0-.03.01-.04.02-.48.03-1.37.03-1.37l-.08-.03-1.21,1.82c-.12.18-.19.38-.2.6,0,.02,0,.06,0,.08.03.18.05.37.04.56.04.1.03.18.13.18.09,0-.08.12-.18.19-.01.06-.03.13-.04.19-.02.29-.03.59-.03.81,0,.08-.02.15-.03.22-.38.21-.76.4-1.15.57-.32.27-.75.44-1.3.44-.02,0-.04,0-.06,0-.04.01-.08.03-.12.03-.97.2-2.49.38-2.79.28.17-.31.34-.63.5-.95.13-.25.25-.5.35-.76.06-.15.09-.31-.04-.47-.27.17-.51.36-.78.5-.06.03-.13.06-.2.1,0,.27-.02.27-.36.18.02,0,.03-.02.05-.03-.34.17-.67.32-1.02.47-.42.18-.84.39-1.36.48.09-.17.16-.29.22-.41.15-.29.31-.59.45-.88.08-.15.12-.31-.03-.48-.08.06-.16.1-.22.17-.64.62-1.37,1.15-2.23,1.37-.47.12-.94.23-1.42.34-.01,0-.02,0-.03,0-.02,0-.03,0-.05,0-.06.01-.12.02-.19.04-.19.09-.37.16-.57.21-.28.06-.55.07-.8.04-.26.04-.52.06-.79.07-.04,0-.08,0-.12,0-.45.02-.91.01-1.36-.05-.11-.02-.22-.04-.33-.07,0,0-.01,0-.02,0-.05-.02-.1-.04-.15-.06-.07.01-.13,0-.27.07,0-.14-.04-.15-.04-.22h0s0,0,0,0h0s0-.01-.01-.01c0,0,0,0-.01-.01-.01,0-.02,0-.03,0,0,0,0,0,.01,0,0,0,0,0-.01,0-.09-.03-.2-.14-.34-.1.02-.04.03-.07.05-.1-.36-.29-.64-.69-.76-1.13-.02-.1-.09-.18-.17-.34-.07.08-.13.15-.19.2,0,.01,0,.03.01.04-.02,0-.03,0-.04,0-.04.04-.07.08-.1.13-.19.34-.37.69-.55,1.03.02.03.04.05.04.08,0,.1-.08.2-.17.38-.02-.03-.05-.06-.07-.08-.1.18-.2.36-.29.54-.06.12-.07.27-.07.41,0,.22.03.44.06.66.22.1.06.76.2,1.33.21.84.52,1.65.51,2.56-.48.28-.99.49-1.55.58-.33.05-.66.09-1,.12-.1.04-.2.07-.3.09-.06.06-.12.11-.19.13-.12.04-.6.44-.73.44-.01-.03.04-.4.03-.43-.19-.01-.08-.14-.24-.18-.93-.04-1.79-.28-2.6-.75-.48-.36-.75-.49-.96-.98-.99-.5-.88-.86-.24-.89-.2-.63-.15-1.07-.03-1.74-.04,0-.08,0-.13,0,.06-.12.11-.14.16-.13.15-.71.47-1.41.88-1.99h-.08s-.07.06-.1.08c-.23.2-.45.44-.65.69,0,.01-.01.03-.02.04-.09.12-.18.23-.27.35-.28.4-.52.85-.73,1.32-.09.32-.19.64-.34.93C.1,17.12-.02,17.84,0,18.53c.04.15.3.14.29.31,0,.05-.25.26-.25.3.07.49.2.95.42,1.36.12.19.24.37.37.55.55.66,1.41,1.12,2.62,1.2.63.06,1.26.07,1.9.02.82-.06,1.6-.2,2.34-.53-.5-.49.48-.68.94-.56.3-.26.6-.6.76-.88.37-.65.72-1.32,1.08-1.98.3-.55.44-1.14.48-1.76,0-.08.03-.17.04-.21.54-.03.65-.03,1.17-.07.02-.06.24-.09.26-.14.1.04.33.1.5.1.19,0,.38-.04.56-.06.82-.11,1.63-.32,2.46-.49-.07.27-.28.48-.12.78.64-.13,1.25-.32,1.87-.52.26-.09.52-.18.78-.27-.03-.08,0-.19.12-.32.06.08.12.15.17.22.26-.09.53-.19.8-.29-.04.41-.47.67-.29,1.1.08.01.15.03.2.03.96.04,1.91-.05,2.85-.2.15-.02.29-.05.43-.07l.42-.18c.27-.09.54-.1.81-.04.11-.02.22-.04.33-.06,1.34-.28,2.67-.62,3.74-1.66.1.2.17.37.26.52.08.13.17.26.28.36.25.21.52.38.81.51.34,0,.62.06.87.18-.1-.44.13-.37.3.15.46.07.92.07,1.39.04.57-.03,1.14-.1,1.7-.23.13-.03.48-.13.62-.15-.02.29-.04.6-.06.89.31-.03.61-.08.9-.15.12-.1.22-.2.34-.3.06.02.15.04.26.08-.02.03-.04.06-.05.08,1.04-.31,2.01-.79,3.02-1.21-.15.58-.38,1.16-.58,1.72.17-.04.35-.09.49-.13.41-.12.81-.24,1.21-.37.34-.11.65-.25.96-.4.1-.15.23-.28.38-.38-.03-.02-.06-.04-.08-.06.13-.11.26-.23.41-.32.02,0,.09.07.14.13.13-.04.26-.08.4-.1.1-.07.22-.14.32-.22.29-.22.71-.64.9-.94.34-.51.61-1.06.9-1.6.08-.15.14-.29.19-.45.04-.15.14-.33-.03-.45ZM1.19,18.02c.25-.09.37-.04.45.17-.15-.05-.26-.1-.45-.17Zm1.95,3.76c-.1-.02-.18-.11-.31-.2.11-.1.74-.92.62-.37.1.05.16.31.22.41.01.02-.48.17-.53.16Zm5.3-1.44s-.06-.04-.05-.07c0-.02.04-.04.06-.06.02.03.04.05.06.07-.02.02-.05.06-.07.06Zm.21-.41s-.06-.04-.06-.07c0-.02.04-.04.07-.06.02.02.04.05.06.07-.02.02-.05.06-.07.06Zm2.54-4.5s-.42-.8-.46-.81c.08-.05.52.14.6.09.05.02.09.04.13.05-.08.05-.19.62-.27.67Zm3.19-.06c-.44.25-.87-.1-.87-.15,0-.03.8-.12.87-.22v.37Zm.04-.82c-.08-.03-.15-.05-.21-.06-.13.03-.25.06-.26.08,0,.02-.21-.2.26-.08.1-.03.19-.05.22-.06-.02.02-.04.04-.06.06.02.02.04.04.06.07Zm-.24-.46s-.13-.22-.13-.25c0-.06.12-.14.14-.22.03.05.5.27.5.3,0,.05-.48.12-.51.16Zm2.53.87c-.2-.02-.47-.49-.68-.51.04-.02.08-.05.12-.07.19.02.37.05.56.08-.02.02.02.49,0,.51Zm2.84-.88c.09-.02.8-.3.9-.3.06,0,.13.06.22.1-.12.11-.2.18-.27.24-.08-.1-.77.05-.85-.05Zm1,1.59c-.04-.06-.08-.11-.12-.16.02-.01.04-.03.06-.04.03.05.08.11.12.16-.02.02-.04.03-.06.05Zm-.2-1.34s-.03-.04-.05-.06c.13-.03.24-.06.37-.1.02.03.05.06.07.08-.13.03-.27.05-.39.08Zm1.08,1.26s-.04-.04-.06-.07c.03-.02.05-.04.07-.06.02.02.06.05.06.07s-.04.04-.07.06Zm-.06-.61s-.1-.08-.16-.12c.07-.06.14-.13.2-.19.03.04.06.08.12.14-.05.06-.1.13-.17.17Zm.47.61s-.06-.05-.06-.07.05-.06.07-.06.04.04.06.07c-.02.02-.04.04-.07.06Zm.41-.83s-.06-.04-.06-.07c0-.02.04-.04.06-.06.02.03.36.1.38.12-.03.02-.37,0-.39,0Zm.62,1.24s-.06-.04-.06-.06c0-.03.05-.04.07-.06.02.02.04.05.06.07-.02.02-.05.06-.07.06Zm1.86-.82s-.04-.05-.06-.07c.02-.02.03-.11.06-.13.02.02.07.12.07.14,0,.02-.04.04-.06.06Zm.19-1.11s.06.2.08.22c-.03.02-.05.06-.07.06-.02,0-.04-.04-.06-.07.03-.02.03-.19.05-.21Zm.2.75s-.24-.1-.24-.13c0-.02.04-.06.06-.06.02,0,.14-.06.16-.03-.03.02.05.2.02.22Zm1.83-.71c-.14.03-.29.06-.48.09.08-.29.27-.34.48-.37v.28Zm.46-.58s-.04-.05-.06-.07c.02-.02.05-.04.07-.06.02.03.06.05.06.07,0,.03-.05.04-.07.06Zm.47-1.09c-.09-.08-.13-.17-.05-.28.04,0,.08,0,.09.01.03.08.06.16.09.24-.04.01-.1.04-.13.03Zm.3-2.69c-.09-.04-.18-.08-.27-.13.01-.03.02-.05.03-.08.1.05.19.1.28.15l-.04.05Zm.59,3.39s-.09,0-.09,0c0-.05,0-.1,0-.14.06.01.12.03.19.04-.04.04-.07.08-.1.11Zm.27.31s.06-.06.08-.06c.06.01.12.04.18.07-.05.03-.09.08-.14.08-.04,0-.08-.06-.11-.1Zm.31,1.42s-.03-.06-.05-.08l.16-.08s.02.04.03.06c-.05.04-.09.08-.14.11Zm1.06.03c-.14-.18-.29-.35-.42-.54-.08-.11-.13-.24-.19-.36-.03.04-.05.09-.08.14.02-.06.04-.12.06-.17,0,.01.01.02.02.04,0,0,0,0,0,0,.46.19,1.01-.63,1.2.61.13.91-.4,0-.59.31Zm2.15-.23q.44-.12.78.34c-.36-.15-.55-.23-.78-.34Zm1.01.33c-.08-.1-.21-.21-.19-.25.06-.13.17-.23.28-.33.01,0,.15.1.15.13-.06.14-.14.27-.24.45Zm2.37.04c-.17-.09-.36-.16-.5-.29-.09-.08-.11-.25-.16-.38.29-.06.58-.12.87-.18-.07.28-.14.56-.21.84Zm1.49-.71c.12-.37.29-.39.67-.2-.29.09-.45.13-.67.2Zm1.47.3c-.06-.11-.15-.21-.17-.33-.02-.1.03-.21.09-.43.15.23.28.34.28.44,0,.11-.13.21-.2.32Zm2.23-.55s-.05-.05-.08-.07l.14-.16s.05.03.07.05c-.04.06-.08.12-.12.19Zm.65.17s-.05-.03-.08-.04c.03-.06.06-.13.08-.19.03.02.06.03.09.05-.03.06-.06.12-.1.18Z"/><path class="cls-1" d="m64.47,14.07c0-.49-.02-1.27-.02-1.46v-.3c-.04-.34-.04-.67-.04-1.01,0-.1.02-.2.04-.3,0-.87,0-1.73,0-2.6,0-.18,0-.39,0-.61-.06-.47-.08-.94-.02-1.42-.02-1.64-.04-3.4-.04-3.4l-.08-.02-1.42,1.82c-.13.2-.2.42-.2.66,0,.34.01.7.04,1.38.1.02.24.34.22.44-.04.21-.14.28-.2.4.05,1.36.11,2.87.15,4.15,0,.02,0,.03,0,.05,0,.13,0,.26,0,.37.09-.03.18-.04.25.09-.1.07-.18.08-.25.04,0,.22,0,.43,0,.61,0,.97.05,2.92.07,3.61,0,.08.1.1.15.04l1.15-1.77c.14-.21.21-.46.22-.71h-.02s-.17-.13-.18-.18c-.02-.06.02-.45,0-.57.06.14.16.61.21.71h0Zm-1.41,1.17s-.04,0-.06,0c0-.06-.01-.12-.02-.18.03,0,.28-.17.31-.17l-.22.35Zm.62-5.21c-.04.09-.4.14-.5.06-.24-.18-.36-.46-.15-.79h.73c-.02.25,0,.51-.08.72Zm.54-4.59c-.06-.03-.35.27-.4.24.02-.03.28-.38.3-.41.05.03.09.07.14.11-.01.02-.03.03-.04.05Z"/><path class="cls-1" d="m48.05,2.38c-.48.17-.98.31-1.6.28.2-.38.36-.7.53-1.03-.48-1.68-2.11-.25-2.35.99.03-.06.03-.09.1-.1.52-.26.33.42.38.58-.13,0-.38-.38-.49-.38-.04.38.06.79.4,1.01-.18.4-.99.87-.55,1.3,1.04-.73,3.85-1.06,3.58-2.66Z"/><path class="cls-1" d="m57.23,7.16c-1.54.32-3.26.26-4.33.52-.34.08-.62.3-.79.59l-1.14,2.02c-.08.13.05.29.2.25,1.17-.32,2.92-.35,4.31-.57.4-.06.74-.3.92-.64l1.01-1.92c.07-.13-.05-.28-.19-.25Zm-4.5,1.82c.08.02.14.02.17.05.04.03.06.09.1.15-.22.1-.27.01-.27-.2Zm2.27-.34c-.06.09-.13.09-.2-.04.06-.04.13-.09.22-.15,0,.08,0,.15-.02.19Zm.7.28s-.09-.07-.11-.11c0-.02.05-.1.07-.1.05.01.09.05.15.09-.05.06-.08.09-.1.12Z"/><path class="cls-1" d="m29.39,17.26c-1.08.22-1.73.22-2.7.32.02.02-.22.31-.19.34-.09-.02-.41-.27-.48-.29-.35.04-.67.08-.95.15-.34.08-.63.3-.79.59l-1.14,2.02c-.08.14.05.3.2.26,1.17-.32,2.92-.35,4.31-.57.4-.06.74-.3.92-.64l1.01-1.92c.07-.13-.04-.29-.19-.25Zm-4.67,2.91c-.12.03-.24.06-.38.09-.03-.13-.07-.27-.05-.38.05-.24.58-.16.67-.12-.01.02-.23.39-.25.41Zm2.67-1.04c-.05.07-.16.13-.25.03-.09-.1-.32-.57-.24-.62.1-.07.87-.17,1.04-.25-.07.17-.47.75-.54.85Z"/><path class="cls-1" d="m109.81,13.16c.27-.54.43-1.12.42-1.74,0-.55-.25-1.09-.52-1.64-.05-.07-.11-.14-.15-.22-.12-.2-.19-.41-.24-.62-.12-.25-.27-.49-.41-.73-.02,0-.03-.01-.05-.02h0s-.04-.03-.07-.05c-.2.32-.39.64-.62.94-.38.5-.57.98-.56,1.47.03-.03.1-.05.2-.07-.04.14-.09.27-.14.42-.01-.03-.02-.05-.03-.07.06.39.24.78.55,1.19.71.97-.3,1.09-1.06,1.18-.1,0-.19.02-.29.03,0,.1-.28.41-.38.49-.05-.06.04-.29-.01-.35-.26.03-.52.06-.77.09-.13.04-.28.07-.45.07h-.15c-1.45.17-2.58.31-3.72.42-1.01.15-2.17.18-3.17.15h-.06c-.09.02-.18.03-.27.02h-.1c-.78.05-1.53.08-2.28.1.05.07.11.14.17.21-.48.22-.6-.38-1.15-.06-.18.02-.53-.17-.77-.11.14.1.07.21.04.32-.03-.09-.06-.18-.1-.32-1.26.12-2.76.13-4.14.61.03-.09.06-.53.09-.6h-.31c-.38.08-.78.08-1.18.04-.09-.01-.19-.03-.29-.04-.55,0-1.12,0-1.72,0,.04.07.09.14.13.22-.32-.01-.37.09-.36-.1-.55,0-1.18-.11-1.79-.11-.47,0-.67,0-.62-.63.02-.27.01-.52-.02-.77,0,0-.01,0-.02-.01,0-.01,0-.01.01-.02-.1-.73-.42-1.35-.87-1.9-.56-.07-.57-1-1.33-1,.06-.03.09-.1.15-.13-.65-.52-1.29-.63-1.84-.3.03.01.05.03.08.04-.17.08-.28.15-.36.18-.12.12-.24.24-.35.41-.2.32-.39.64-.58.97.02.03.04.06.06.09.03-.03.06-.07.09-.11.05.24.11.48.2.9-.44-.23-.5-.45-.37-.68-.02,0-.04.02-.07.03-.05.15-.14.29-.26.42-.24.45-.47.9-.69,1.36-.03.09-.07.17-.12.25-.02.06-.05.1-.07.16.02.01.04.03.04.05.02.03-.01.08-.02.13-.02,0-.05,0-.08,0,0-.02,0-.03-.01-.05-.05.12-.1.23-.16.35.06.09.12.22.2.42-.12.08-.24.16-.35.24,0,.02-.02.04-.03.06v.16c.03.16.07.31.09.47.17.42.55.76,1.13.96.79.27,1.65.31,2.49.45.1.01.19.04.29.06-.07.07-.13.17-.21.19-.9.23-1.81.64-2.72.64-.79,0-1.58,0-2.37-.01-.09.02-.18.03-.29.03-1.32,0-2.62.07-3.93-.12-.13.01-.24,0-.37-.02-.66-.02-1.32-.04-1.97-.06-.08,0-.16.03-.24.04.06.06.11.15.19.17.03,0,.05.02.08.03.28.01.52.1.7.25.32.12.65.23.98.35.33.06.64.16.93.33.57.2,1.15.4,1.73.57.17-.1.3-.08.42.08,0,0,.01.03.01.06h0c.21.06.43.13.64.18.42.05.84.14,1.22.32.75.17,1.5.28,2.23.22,1.03-.09,1.89-.56,2.64-1.2-.04-.06-.07-.15-.1-.21.09-.13.18-.01.28.06.53-.49,1.01-1.06,1.45-1.65.07-.09.19-.21.28-.21h1.32s.09-.07.13-.11c.03.01.06.02.08.03,0,.03,0,.06,0,.09.66,0,.94.01,1.21.02.1-.12.64-.43,1.04-.51-.1.09.11.4-.61.52,2,.05,6.13.04,8.07,0h0c.21-.07.4-.31.69-.41,1,.58,2.64.1,3.74.08-.07.04-.15.09-.23.13,2.43-.17,4.92-.46,8.12-.93,1.66-.25,3.12-1.21,3.86-2.51-.06-.06-.1-.12-.17-.19.13-.02.2,0,.25.02Zm-31.52,2.35c-.06-.08-.19-.2-.17-.23.15-.22.32-.41.48-.62.05.06.1.13.21.27-.18.2-.35.39-.52.58Zm.81-.13v-.14s.31.04.31.04c-.1.03-.21.07-.31.1Zm.35-.13s-.03-.04-.03-.06c0-.23.01-.46.02-.69.09.03.17.06.26.08-.09.22-.17.44-.25.66Zm-.09-1.95c.27-.32.16-.06.44.24-.21.01-.26-.24-.44-.24Zm.8-.68c-.06-.07-.13-.13-.12-.15.03-.08.09-.14.14-.21.06.05.11.09.16.13-.06.08-.12.15-.18.23Zm-8.59,5.84c-.07-.07-.14-.13-.21-.2.12-.11.22-.23.35-.33.01-.01.12.09.18.14-.11.13-.21.26-.32.39Zm1.85.31c-.13-.22-.26-.43-.37-.65,0-.03.13-.12.27-.24.13.24.24.43.3.63.02.06-.13.17-.21.26Zm3.81.55c-.09-.18-.16-.27-.17-.38-.01-.09.05-.19.08-.28.1.12.22.22.3.35.02.03-.09.14-.2.3Zm.99-1.54v.21s-.05,0-.08,0c-.01-.07-.02-.13-.04-.2.04,0,.07-.01.11-.01Zm-.06,1.42c-.06,0-.12-.04-.19-.06.04-.04.09-.1.12-.1.05,0,.09.06.14.09-.03.03-.06.07-.08.07Zm1.92-.29c-.01-.06-.03-.12-.03-.18,0-.02.05-.05.07-.07.03.06.06.12.08.17-.05.03-.09.06-.13.08Zm.59-4.26s-.09-.27-.04-.32c.1-.11.32-.26.4-.22.22.13.4.33.59.51-.32,0-.63.03-.96.03Zm1.19.59c-.06-.18-.11-.36-.17-.54.1.15.2.28.29.43,0,.01-.08.07-.13.11Zm.73-2.68c-.14-.11-.27-.22-.41-.33.08-.09.16-.17.24-.26.13.12.26.24.38.35-.08.08-.15.16-.22.24Zm.94,3.22c-.07-.02-.17-.15-.16-.22.01-.07.14-.16.22-.16.09,0,.19.06.41.14-.3.16-.4.25-.46.24Zm3.49.03c-.05.16-.2.29-.31.43-.11-.14-.26-.27-.31-.43-.04-.12.06-.28.1-.42.14,0,.27,0,.41,0,.04.14.15.3.11.41Zm.43.07c-.08,0-.16-.02-.24-.03.06-.19.13-.37.19-.56.11.01.22.03.33.04-.09.18-.19.36-.28.54Zm2.47.49c.03-.11.06-.22.1-.33.02.11.03.22.06.32-.06,0-.11,0-.16,0Zm.13-.42c.02-.11.05-.22.08-.33.14.07.28.14.41.21-.17.04-.33.08-.5.12Zm4.44-.78c.11.03.22.07.34.1-.11.02-.22.04-.33.06,0-.06,0-.11,0-.16Zm.34.71s-.13.06-.2.08c.08-.21.16-.41.25-.62,0,.17-.01.36-.04.54Zm2.7-.29c-.05-.07-.1-.15-.14-.22.06-.04.16-.12.18-.11.07.06.13.16.2.24-.06.02-.13.05-.23.09Zm2.18-.03c-.05,0-.1-.07-.15-.1.03-.03.06-.08.08-.07.07,0,.13.04.21.07-.05.04-.1.11-.14.11Zm2.37.14c-.04-.13-.08-.25-.12-.38.23-.09.46-.18.69-.27.02.08.04.15.07.23-.21.14-.43.28-.64.42Zm1.24-.59s-.08-.07-.13-.11c.06-.04.12-.08.18-.1.22-.11.44-.22.67-.32.27.82-.39.48-.72.54Zm1.17-1.06c.06.24.11.48.2.9-.58-.31-.51-.57-.2-.9Zm.73,1.5s-.09-.08-.14-.12c.01-.02.02-.03.04-.05.05.03.1.05.14.08,0,0-.02.06-.03.08Zm1.37-.56c-.11-.16-.21-.32-.38-.57.15-.08.28-.17.42-.21.02,0,.16.17.15.25-.03.18-.12.36-.19.53Z"/><path class="cls-1" d="m78.43,11.27s-.02-.03-.03-.05c-.03.03-.05.07-.08.11.03-.02.07-.04.11-.06Z"/><path class="cls-1" d="m108.86,16.44c-1.4.29-2.7.56-3.99.83-.27.19-.31.29-.27.06-.13.03-.27.06-.4.08-.1.02-.21.14-.26.24-.38.71-.76,1.42-1.13,2.14-.03.06-.03.14-.04.21.07,0,.15,0,.22-.02,1.27-.24,2.54-.48,3.81-.73.33-.07.8-.07.95-.28.17-.25.33-.51.48-.78-.02-.16.08-.13.18-.33.1-.21.34-.69.52-1.02.03-.07-.03-.19-.06-.41Zm-5.36,3.22c-.21-.22-.22-.25-.1-.63.06.2.16.39.1.63Zm1.11-.84c.06-.22.13-.27.24-.22.03.01.03.08.05.13-.08.03-.16.05-.29.09Zm1.57-.33c.12.07.2.1.3.16-.19.1-.24.03-.3-.16Zm.27-.48s-.03,0-.05,0c0-.07,0-.14.01-.21.03,0,.05,0,.08.01-.02.07-.03.14-.05.21Z"/><path class="cls-1" d="m74.17,9.27s-.08-.06-.12-.1c-.11-.1-.19-.23-.24-.37-.21-.24-.43-.44-.62-.55-.64-.37-1.27-.31-1.72.38-.22.34-.39.73-.55,1.13.03-.01.19-.12.22-.13.02.14-.09.39-.26.24-.01.04-.03.09-.05.14.04.07.01.12-.07.2,0,.22.2.57-.14.63-.1.02-.09.18-.14.27-.2.67-.42,1.34-.75,1.88-.08.13-.17.27-.3.32-.16.07-.32.15-.48.24h0s.1.08.15.1c-.12.07-.19.05-.25,0-.17.14-.29.22-.51.3-.02.01-.03.02-.05.03-.44.33-.68.5-1.03.94.04.05-.1.35-.09.46-.07-.06-.12-.09-.16-.13-.78,1.03-1.3,2.31-1.41,3.69.04,0,.08.01.12.02-.03.07-.08.26-.12.33,0,0,0,.02.01.03,0,0-.02,0-.03.01.03.09.03.18.03.28,0,.13.03.13,0,.24.03.27.08.59.12.94.02.08.04.16.05.24,0,.03.02.05.02.08,0,.02,0,.05,0,.07.01.11.03.22.04.33,0,.03,0,.06,0,.08.04,0,.08,0,.12,0v.21s.05.06.02.07c.06.06.04.09.1.14-.03.06-.06.12-.09.17-.03,0-.05-.02-.08-.04.06.42.13.84.21,1.25.02.13.17.24.26.37.05-.1.12-.2.16-.31.02-.06.04-.12.07-.18.03-.14.07-.28.14-.41,0-.01,0-.03,0-.05.11-.29.17-.5.32-.87.18-.47.37-.95.36-1.43,0-.09,0-.18-.01-.27-.02-.01-.03-.03-.05-.05-.17-.15-.16-.16-.16-.41.07.03.13.07.18.1-.04-.13-.06-.27-.07-.41,0-.04.01-.07.02-.11,0-.06-.02-.12-.03-.18,0-.03-.02-.05-.03-.08-.04-.12-.06-.24-.06-.37h0c-.01-.06-.02-.12-.03-.17-.03-.09-.04-.18-.04-.27-.04-.24-.09-.48-.13-.71-.17-1-.16-1.15.65-1.49-.08-.03-.14-.07-.2-.16.13.03.47-.05.59-.02,0,0,0,0,0,0,.73-.29,1.25-.46,1.99-.71-.04-.07-.03-.17.04-.31.06.09.15.15.19.23.07-.02.14-.05.21-.07,1.16-.37,2.04-1,2.72-1.83.25-.43.53-.85.84-1.26.21-.39.4-.8.56-1.24.13-.34-.13-.94-.5-1.48Zm-3.85,4.01s-.07-.06-.11-.09c.03-.02.06-.06.08-.06.06.01.11.04.17.07-.05.03-.09.08-.14.08Zm1.07.85c-.1-.02-.19-.08-.32-.14.09-.12.13-.18.18-.24.08.07.18.13.25.21.01.01-.08.17-.11.17Zm.61-5.24v.51c-.07-.02-.14-.02-.15-.04-.03-.17-.17-.37.15-.48Zm.22,2.95c-.11-.16-.22-.32-.37-.54.15-.24.27-.44.38-.62.15.26.34.52.42.79.03.08-.28.25-.43.37Zm1.3-.07c-.06-.27-.12-.55-.22-.99.43.36.38.67.41.96l-.19.04Z"/><path class="cls-1" d="m5.53,30.51c-.07,0-.13-.02-.21-.03-.24-.01-.49-.05-.73-.09-.31-.03-.62-.04-.91-.13-.96-.15-1.51-.81-1.64-1.96-.02-.18.03-.31.05-.47.25-.22.56-.31.88-.23.24.06.51.13.78.22.07,0,.14,0,.21.03.08.02.14.05.2.09.07.02.14.05.2.08.06.04.11.09.17.13,0,0,0,0,.01.01.2.11.4.23.59.38.28.21.66.19.89-.05l.94-.96s0-.04,0-.07c-.13-.12-.2-.18-.3-.27-.04-.01-.08-.03-.13-.06-.03-.02-.06-.04-.09-.06,0,0-.01,0-.02,0-.1-.03-.19-.09-.27-.17l-.07-.09c-.55-.33-1.22-.6-1.85-.6-.52,0-.99.21-1.48.67-.55.51-1.05,1.05-1.48,1.52-.06.11-.14.21-.24.29-.24.3-.36.58-.37.88,0,.19,0,.39.03.59.21.14.38-.17.38-.17,0,0,.35.12.27.54-.04.2-.45,0-.61-.15.16.64.59,1.2,1.62,1.32.05,0,.1.01.15.01.12-.02.24-.02.36.01.03.01.06.02.09.04.06.02.15.01.22.02.07,0,.13.02.2.03.16.01.31.03.47.04.18.02.34.04.52.08.1.03.2.09.3.12.12.04.23.08.34.13.65.31,1.08,1.28.86,1.98-.77.39-1.83.35-2.69,0-.02,0-.04,0-.06,0-.03,0-.07-.01-.1-.02-.05.02-.1.03-.15.03-.07,0-.13-.08-.15-.17-.05-.03-.1-.07-.14-.11,0,0-.01-.01-.02-.02-.01-.01-.03-.03-.04-.04-.01-.02-.04-.05-.06-.07-.13-.1-.26-.22-.37-.35-.31-.37-.85-.41-1.21-.14-.03.06-.07.11-.12.16-.02.02-.03.04-.06.06-.06.06-.13.1-.19.15l-.45.47s0,.04,0,.06c.18.21.37.42.56.63.06.04.11.09.15.15,0,0,0,.01.01.02.05.05.1.1.15.15.06.04.13.07.19.11.09.06.17.12.25.19.52.28,1.13.41,1.7.41.77.03,1.42-.25,2-.68,0,0,0,0,.01-.01,0-.01.02-.03.03-.03.03-.02.06-.04.08-.07,0,0,.02,0,.02,0,0,0,.02-.01.03-.02,0,0,0,0,.01,0,.01,0,.02-.01.04-.02.41-.33.78-.72,1.14-1.11.06-.09.13-.17.21-.24.05-.05.1-.09.17-.15.27-.27.53-.59.53-.99.08-1.1-.72-1.96-1.82-1.99Zm.22-2.79c0,.07-.01.15-.02.22-.03,0-.4.07-.43.07.02-.07-.11-.62-.1-.69.03,0,.52.4.55.4Zm-3.49,6.46c.11-.06.18-.09.26-.13.02.05.05.07.04.08-.05.11-.11.18-.3.05Zm.71,1.52q-.06-.22.19-.25c-.06.08-.11.15-.19.25Z"/><path class="cls-1" d="m14.64,34.46c-.3-.4-.57-.78-.74-1.23-.04-.04-.07-.08-.09-.13-.58.43-.42-.12-.41-.18,0-.02,0-.09.15-.06.07.02.21.04.19-.03-.03-.1-.04-.2-.05-.3,0-.03,0-.06.01-.09-.05-.34-.06-.76-.06-1.19-.02-.09-.03-.19-.02-.28,0-.06.02-.11.03-.17,0-.03,0-.06,0-.09v-.03s0-.04,0-.06c0-.04-.01-.08-.01-.12,0-.06.01-.12.02-.18,0-.18,0-.32-.05-.5,0,0-.01-.04-.02-.04-.05-.02-.23-.04-.28-.08.02-.08.17-.13.19-.21-.15-.33-.43-.57-.86-.49-.14.03-.28.06-.42.09-.21.06-.43.1-.66.14.08-.01.15-.02.22-.03-.21.03-.42.08-.64.1-.03,0-.05,0-.08,0-.02,0-.05,0-.07,0-.02,0-.05.02-.07.03-.15.05-.31.03-.45,0-.27,0-.47-.02-.79-.07-.01,0-.02,0-.03,0-.1.07-.23.17-.36.29,0,.02,0,.04,0,.05.34.13.05.11-.14.07-.32.3-.66.66-.85.91,0,.03,0,.04.02.06.22.1.46.15.71.15.03,0,.01-.13.05-.13.1,0,.26.13.36.11.07,0,.13-.02.21-.03,0,0,.11-.02.11-.01.58-.1,1.16-.29,1.68-.37.62-.11.55.76.55,1.22-.3.02-.56.05-.81.07-.17.09-.36.12-.55.13-.15,0-.31,0-.46,0-.43.08-.78.18-1.06.35-.05.07-.1.34-.16.43-.03-.03-.05-.24-.18-.15-.26.22-.37.39-.57.8-.04.13-.09.27-.15.4-.09.3-.14.6-.13.89,0,.01,0,.02,0,.03,0,.07.02.14.03.2.02.09.15.17.17.26,0,.04-.07.08-.06.12.13.34.45.57.79.67,0,0,.01,0,.02,0,.09.01.18.03.27.05.07,0,.13.01.21.01.58,0,1.27-.1,1.76-.55.36-.33.72-.62,1.13-.89.31.53.54.93.97,1.35.02,0,.03,0,.06,0,.39-.32,1.1-.95,1.36-1.27,0-.02,0-.03,0-.06Zm-3.04-4.44c-.07-.03-.41-.17-.47-.21,0-.03.3-.23.31-.26.07.03.14.1.21.12-.02.03-.04.31-.06.34Zm-1.34,4.51c-.06-.02-.13-.01-.19-.04-.08-.03-.15-.06-.22-.09-.44-.21-.88-.56-1.07-1.03-.27-.66,1.12-.68,1.82-.66.54.02,1.18.18,1.61.27,0,.24.02.45.07.78-.46.86-1.31,1-2.02.77Zm3.06-.16c-.07.04-.17.22-.24.27-.08-.2.03-.28.24-.27-.05-.05-.15-.1-.28-.1-.09,0-.18.02-.27.09-.09-.26.45-.46.38-.72.15.22.29.56.17.73Z"/><path class="cls-1" d="m46.02,32.83c.29-.56.38-1.22.31-1.86-.03-.13-.06-.26-.06-.4-.01-.04-.02-.08-.03-.13,0,0-.09-.06-.09-.06-.07-.11-.01-.18-.03-.31h0c-.18-.47-.45-.89-.82-1.2-.04.01-.07.03-.11.04,0-.04,0-.08,0-.11-.06-.03-.13-.07-.19-.1-.08-.04-.15-.1-.22-.15-.01,0-.02-.02-.03-.03-.26-.12-.54-.2-.86-.22-.17,0-.33.02-.48.06-.02,0-.04.01-.06.02-.12.05-.23.11-.35.15-.08.03-.17.06-.25.09-.73.43-1.28,1.19-1.93,1.74-.09.08-.17.16-.24.25-.02.06-.01.19-.04.24-.04.09-.14.08-.2.15,0,.01-.02.02-.02.03-.02.04-.05.06-.08.09-.24.47-.33,1.01-.31,1.55,0,.02.02.03.03.05.03.06.04.13.05.2.05.03.1.01.17.05-.05.04-.07.11-.09.11-.03,0-.06,0-.08,0,0,.06-.01.1-.02.16,0-.04-.02-.08-.03-.13-.04.04-.04.11-.03.2.03,0,.05-.01.08-.02.05-.01.09-.02.14-.03.01.03.03.04.02.05-.03.07-.06.14-.09.21.05.1.09.2.1.3,0,.01,0,.03,0,.05.1.25.23.48.39.69.1,0,.18.09.2.16.05.17.16.24.32.27,0,.02-.01.05-.02.07.34.26.76.43,1.23.47.08,0,.15,0,.23.01.28,0,.55-.07.8-.18.02-.01.06-.02.06-.05-.03-.12.11-.17.16-.19.08-.05.14.02.22-.02.59-.42,1.11-1.04,1.61-1.48.17-.14.31-.29.43-.47,0-.03.02-.05.03-.08.02-.04-.03-.14,0-.18.03-.05.15-.03.18-.07Zm-1.53-3.48c0,.07.03.25.02.32,0,0-.26.07-.27.06-.02-.06-.15-.44-.16-.5.04,0,.36.13.41.12Zm-3.22,4.74c-.22-.16-.23-.58,0-.42.1.29,0,.42,0,.42Zm3.65-1.28c0,.43-.06.86-.24,1.23-.69.24-1.32.12-1.85-.21-.06-.03-.3-.04-.36-.08-.09-.06.02-.15-.04-.23-.51-.48-.87-1.16-1.02-1.87-.05-.14-.14-.08-.09-.44,0-.06,0-.11.01-.16-.01-.45.07-.89.26-1.27.22-.05.44-.08.65-.08.4,0,.77.11,1.1.29h0c.06,0,.11.02.15.05.02.01.04.02.06.04.02.01.03.03.05.04.01,0,.02.01.03.02,0,0,.13-.09.13-.09.06.04-.01.18.02.24,0,0,0,.01,0,.02.51.45.87,1.09,1.04,1.78.02.03.03.07.05.11.02.05.03.09.04.14.01.08.03.17.03.25,0,.08,0,.15-.02.23Zm.42-.47c.02-.14.13-.76.34-.27-.03.14-.19.32-.34.27Z"/><path class="cls-1" d="m40.39,26.29c-.08.06-.16.1-.26.12-.17.03-.32.02-.5,0,0,0-.01,0-.02,0-.13.01-.27.02-.4.03h-.01c-.28.12-.5.36-.81.38-.07-.09-.1-.19-.1-.28-.04-.03-.08-.06-.1-.1-.02,0-.04,0-.06-.02-.05-.01-.08-.04-.12-.08-.03,0-.06-.01-.08-.02-.38-.03-.76-.08-1.14-.12-.64-.01-1.3.08-1.65.45,0,0,0,.01,0,.02-.03.06-.07.1-.11.15-.02.02-.04.04-.07.06-.05.04-.1.08-.16.11,0,0-.02,0-.03.01-.22.22-.49.47-.58.56.25-.11.52-.14.79-.08,0,.23,0,.54.01.88,0,.03,0,.06.01.1h0s0,.04,0,.06c.02.19.29.52.29.7,0,.14-.25.14-.27.28,0,.25.02.51.02.75,0,.03,0,.06,0,.1.01.39.01.73,0,.96v.03c.03.14.03.28,0,.42.02,0,.32.17.35.17-.03.14-.32.04-.35.19t0,0v.03c0,.06,0,.13,0,.2v.15c.04.23.03.45,0,.68-.02.24.26.17.26.41,0,.14-.26.57-.28.7,0,.41,0,.79,0,1.06,0,.22.18.4.4.4h1.06s0-.53,0-.53c0-.08,0-.17,0-.26v-.23s0-.01,0-.02c0-.1,0-.2,0-.3v-.55s-.01-.09-.02-.14c-.01-.15,0-.3.02-.45v-.02c-.01-.19-.01-.39,0-.58v-.1c-.03-.09-.03-.19,0-.29v-.29s.16,0,.37,0c.14-.04.32-.18.47-.16.06,0,.07.13.13.14.05,0,.06,0,.06,0,.07,0,.14,0,.21,0,.04,0,.08.01.13.02,0,0,0,0,0,0,.32,0,.6-.11.83-.33.4-.37.8-.77,1.18-1.15-.24.1-.53.16-.84.2-.02,0-.06.04-.08.05-.15.03-.28,0-.43,0-.12,0-.24,0-.36,0-.04,0-.08.02-.12.02-.12,0-.34.13-.46.11-.24-.02-.36-.13-.59-.2-.16-.02-.31-.04-.45-.06,0,0,0,0,0-.01-.01,0-.02.01-.03.02-.02-.21-.03-.32-.03-.43,0-.05.02-.11,0-.15-.06-.1-.24-.15-.15-.29.04-.07.1-.13.15-.2,0-.04-.01-.08-.02-.13-.01-.15.02-.29,0-.44-.01-.12-.02-.24,0-.36,0,0,0-.01,0-.02-.02-.41-.03-.75-.02-.85.64.04,1.62.01,2.39-.09,0,0,.01,0,.02-.01.04-.02.07-.03.1-.04,0,0,0,0,.01,0,0,0,.01,0,.02,0,.04,0,.11-.02.16-.01.03,0,.08,0,.11.01.12-.02.23-.05.32-.08.14-.11.29-.26.45-.41.1-.14.25-.25.37-.38.06-.06.12-.13.18-.19,0,0,.02-.01.03-.02.1-.11.2-.22.27-.31-.17.04-.35.07-.52.1Zm-4.32.57c.27,0,.1.4-.12.21-.2-.17-.15-.21.12-.21Zm.25,8.47s-.36-.11-.43-.04c0-.1.11-.22.13-.25.02-.03.18-.05.22-.06,0,.03.1.32.08.34Z"/><path class="cls-1" d="m60.97,32.16s0-.02-.01-.03c-.06-.26-.06-.53-.08-.79-.09-.54-.24-1.02-.46-1.38-.01-.02-.02-.04-.04-.06,0-.01-.02-.02-.03-.03,0,0,0,0,0,0-.05-.03-.15,0-.17-.05-.03-.03.01-.11,0-.15,0,0,0-.02,0-.03-.2-.2-.45-.33-.76-.36-1.22-.1-2.06.68-2.86,1.47l.03-1.78s-.04-.02-.08-.03l-.22.2s-.14.36-.17.39c-.06.06-.06-.16-.13-.1,0,0-.01,0-.02.01l-.73.67c-.11.1-.18.25-.18.41v.92c.01.13.03.26.03.39,0,.1,0,.2,0,.3v.04c0,.23-.01.46-.01.69,0,.03,0,.07-.02.1v1.27s0,.04.01.06c.04.11.05.24.02.36,0,.02-.02.04-.03.06v.63c0,.22.17.39.39.39h.3c.07,0,.13-.01.2-.02.06,0,.13,0,.19.02h.45s0-3.98,0-3.98c-.01-.04-.02-.09-.03-.13-.02-.07-.02-.15,0-.22l.03-.07v-.51c.42-.19.78-.29,1.1-.34.02-.01.05-.02.08-.03.08-.02.2-.12.29-.11.06,0,.07.1.13.11l.05.02s.02,0,.03,0c1.03.17,1.27,1.34,1.29,2.65.01.04.15.01.15.06.02.12-.1.28-.12.41,0,.04-.02.08-.03.13,0,.05,0,.1-.01.15,0,.15,0,.3-.02.44,0,.07,0,.15,0,.22,0,.04,0,.07-.01.1-.01.24-.02.48-.03.71,0,.22.17.41.4.41h.34c.09-.02.18-.04.28-.05.12,0,.24,0,.36.03.03,0,.07.01.1.02h0c0-.21.01-.53.03-.93,0-.06,0-.11,0-.16,0-.19.01-.38.02-.57,0-.01,0-.03,0-.04.02-.59.02-1.25-.03-1.88Zm-5.43,2.09c.01-.06.09-.29.22-.33.12.17.1.49-.22.33Zm.08-1.89v-.26s.23-.17.23-.17l.2.21-.43.22Zm4.32,1.32s.2-.09.23-.1c.03.11,0,.44.04.6-.27-.1-.31-.37-.27-.5Z"/><path class="cls-1" d="m76.35,29.27c-1.21-.1-2.06.68-2.86,1.47l.03-1.78s-.04-.02-.08-.03l-1.28,1.18c-.11.1-.18.25-.18.41v.26c.05.14.08.29.07.45,0,.2-.04.39-.04.58,0,.13-.01.26-.03.39v.49s.01.02,0,.02c0,0,0,0,0,.01v1.31c0,.14,0,.28,0,.43v.89c0,.22.18.39.39.39h1.13s0-.85,0-.85c-.03-.17-.02-.35,0-.53v-3.54c3.49-1.55,2.97,2.22,2.9,4.51,0,.22.17.41.4.41h1.09c0-.17,0-.43.02-.74-.03-.05-.07-.1-.1-.14.04-.03.08-.06.11-.09.08-1.9.2-5.36-1.58-5.5Zm-3.81,4s0-.06,0-.06c.07-.01.14-.02.21-.03,0,.03,0,.06,0,.1-.07,0-.14,0-.21,0Zm.33-1.15c-.27,0-.07-.16,0-.42.07-.26.27.42,0,.42Zm3.82-1.32c-.02-.1-.05-.2-.08-.35.2.1.16.22.08.35Zm.49,3.36c-.11-.25-.27-.42,0-.42s.15.75,0,.42Z"/><path class="cls-1" d="m31.03,29.2s-.04-.02-.07-.04c-.34.27-.82.73-1.18,1.15-.08.09-.13.21-.13.34,0,.1,0,.2,0,.3.09.41.02.85-.01,1.27,0,.63,0,1.31,0,1.91.02.11.05.22.07.33,0,0,0,.01,0,.01.01,0,.02-.02.03-.03.1-.06.21-.08.27.05.01.03.1.38.06.41-.09.06-.3-.2-.37-.28-.01.07-.04.13-.08.19,0,.2,0,.39,0,.56,0,.22.18.4.4.4h.93s0-.14,0-.14c0-.03-.01-.05-.01-.08,0-.36.03-.74,0-1.11-.01-.15-.04-.31-.02-.47,0-.07.03-.14.06-.2v-.51s0-.04,0-.06c-.02-.16-.02-.31-.02-.47,0-.25.03-.49.05-.74l.02-1.7c0-.06-.01-.12-.01-.18,0-.19,0-.38.03-.58v-.34Zm-.98.98c.07.13.14.26.19.36-.23-.05-.24-.06-.19-.36Z"/><path class="cls-1" d="m31,26.62c0-.33,0-.65,0-.83l-1.15,1.08c-.13.12-.2.28-.2.46h0c-.01.43-.02,1.16-.03,1.57l1.16-1.15c.11-.11.18-.25.19-.41.01-.14.02-.29.03-.45-.06-.05-.11-.1-.06-.19.02-.03.04-.05.06-.08Z"/><path class="cls-1" d="m70.85,28.95s-.04-.02-.07-.04c-.33.26-.81.72-1.17,1.13-.08.1-.13.22-.14.35,0,.08,0,.17,0,.27,0,.12,0,.23,0,.35,0,.13-.01.27-.02.4,0,.41,0,.85,0,1.3,0,.29,0,.59,0,.88,0,.22,0,.43,0,.65v.29s.03-.06.06-.08c.01-.02.09,0,.17.02-.07.12-.13.24-.22.34h0s0,.03,0,.05v.02h0c0,.19,0,.36,0,.51,0,.22.17.4.4.4h.93s0-.15,0-.15c-.03-.06-.05-.12-.06-.19-.01-.22.03-.44.06-.66v-1.01c0-.18-.01-.36-.01-.54,0-.11.02-.22.03-.33l.02-1.93c-.06-.2-.06-.39-.02-.6,0-.01,0-.03,0-.05h0s0-.1,0-.13c0-.08,0-.17,0-.25,0-.14.02-.27.03-.41v-.56Zm-.97,2.87s-.06,0-.13,0c.07-.08.12-.14.16-.2.02,0,.03.02.05.03-.02.06-.04.13-.08.18Zm.46,1.64c-.08.26-.27-.42,0-.42,0,0,.08.15,0,.42Z"/><path class="cls-1" d="m70.81,25.78s-.04-.02-.08-.03l-1.08,1.02c-.13.12-.2.28-.2.45h0c0,.4-.02,1.04-.03,1.46.04.02.04.02.08.03l1.08-1.07c.11-.11.18-.25.19-.41.04-.46.05-1.11.03-1.46Zm-.61,2.14c-.06-.03-.1-.07-.16-.11.02-.03.04-.05.06-.08.05.03.1.07.15.1-.02.03-.06.08-.06.08Zm.28-1.44s-.1,0-.15,0c0-.03,0-.07,0-.1.05,0,.1.02.15.03,0,0,0,.07,0,.07Z"/><path class="cls-1" d="m110.16,28.9s-.04-.02-.07-.03l-1.2.91c.03.27.17.56-.25.82v3.49c-3.65,1.62-2.91-2.58-2.89-4.82-.03-.02-.04-.02-.07-.03l-1.23.95c-.1.08-.17.18-.21.29.07.01.14.03.21.04.03.27.18.57-.26.83-.02,1.35.08,2.92.67,3.74.1-.06.26-.12.48-.19-.04.19-.08.36-.13.54.17.11.36.19.59.2.67.06,1.22-.16,1.72-.49-.03-.06-.06-.11-.07-.18.02-.02.04-.04.07-.06.04.06.07.11.11.17.36-.26.7-.58,1.03-.9v.53s.02,0,.02,0c.02.05.03.1.04.15-.02,0-.05,0-.07,0l-.02,1.17c0,.14-.01.3-.01.47,0,.22-.02.44-.05.62-.02.03-.4.14-.56.19-.52.16-1.04.34-1.55.34-.67,0-1.35-.01-2.02-.03.03.06.02.12-.06.22-.01-.09-.03-.16-.03-.23-1.52-.05-3.04-.15-4.56-.18v.15c.23.08.46.17.69.25.1-.05.18-.02.26.09.87.32,1.73.64,2.62.88.17.05.36.1.54.15.01,0,.03-.02.04-.02.01,0,.04.02.05.04.71.2,1.44.38,2.15.37-.03-.06-.05-.13-.02-.23.14.07.28.14.41.21,1.13-.13,1.95-.71,2.67-1.59h0c.04-.06.08-.11.12-.16.02-.02.03-.05.05-.07.07-.09.14-.19.21-.29.01-.02.06-.09.09-.17.32-.55.52-1.15.51-1.75h0s0-1.57,0-3.17c-.06-.07-.12-.14-.19-.24.08-.1.11-.26.19-.34v-2.67Zm-5.76,3.18s-.08-.05-.1-.06c.03-.03.04-.08.08-.1.02,0,.06.03.09.04-.02.04-.04.07-.07.12Zm.52-2.09c.01.05.02.1.03.16-.03,0-.06,0-.08,0,0-.05,0-.1,0-.15,0,0,.04-.01.06-.02Zm-.25,3.93c.1.03.18.06.29.1q-.25.13-.29-.1Zm-1.42,4.32s-.07-.08-.07-.08c.02-.03.06-.07.09-.08.02,0,.05.04.08.06-.03.03-.05.06-.09.11Zm1.27.49c-.02-.14-.04-.29-.09-.59.26.19.37.27.56.41-.22.08-.34.13-.47.18Zm3.21-.29s0-.06-.01-.08c.06-.01.13-.02.19-.03,0,.03,0,.06.01.08-.06,0-.13.02-.19.03Zm1.56-2.15c-.13-.13-.23-.23-.36-.37.08-.03.15-.05.17-.05.06.13.29.15.19.42Zm-.14-1.63c.06-.42.1-.7.14-.98.1.02.2.04.3.06.03.3.22.64-.45.92Z"/><path class="cls-1" d="m53.56,28.95s-.04-.02-.07-.03l-.36.27s-.03.03-.04.05c-.05.06-.11.11-.18.15-.04.03-.09.04-.13.06l-.52.39h-.01s.08.11.08.11c.5.51.19.25-.15.29,0,0-.03,0-.05,0-.02,0-.05,0-.08-.01,0,.02,0,.04,0,.06v.33s0,0,0,.01c0,.6.03.58,0,1.18v.15s.18.12.18.15c0,.03-.13,0-.15.02,0,.03,0,.06,0,.1,0-.02,0-.04-.01-.07,0,.05.02.1.02.16,0,.06,0,.13-.02.2,0,.02-.01.05-.02.07v1.69c-1.43.63-2.18.38-2.57-.3-.03-.04-.07-.08-.1-.12-.04-.06-.06-.12-.08-.18-.03-.08-.05-.15-.06-.23,0-.06-.01-.12-.02-.18-.13-.6-.15-1.32-.13-2.04,0-.02,0-.05,0-.07-.06-.48-.04-.97.05-1.44,0-.28.01-.55.01-.74-.04-.01-.04-.02-.07-.03l-.15.11c-.04.05-.07.1-.12.14-.07.06-.15.12-.23.17-.05.02-.09.04-.14.06l-.6.46c-.12.1-.2.24-.21.39-.01.23-.03.6-.04,1.11,0,.04,0,.09,0,.13.02.08.02.17,0,.25,0,.22,0,.45.01.67.01.04.03.08.03.12,0,.05,0,.11.01.16.03.18.07.36.06.54,0,.06-.01.11-.02.17.15,1.26.56,2.33,1.53,2.41.49.04.81-.02,1.2-.21-.03,0,.05-.12.01-.12.11-.12.16-.21.27-.33,0,.1,0,.27-.03.32.51-.28.97-.7,1.4-1.14l-.02.99c0,.22.17.4.39.4h1.14s0-.26,0-.68c-.01-.1-.02-.2,0-.3v-1.12s-.01-.02-.02-.03c-.01-.04-.14-.08-.14-.12,0,0,0-.01,0-.02,0,0,.15-.03.15-.04,0-.04-.01-.08,0-.13,0-.01-.03-.05-.02-.06,0,0,.04.01.04,0v-.64s-.08-.03-.08-.03c0-.02.08-.03.08-.05v-.8c0-.06,0-.13,0-.19-.03-.3-.04-.59,0-.87v-1.71Zm-5.2,3.88l-.1-.46.08-.03.16.08-.14.41Zm.06-1.37c-.03-.05-.16-.25-.19-.3l.16-.14s.08.09.12.13c-.03.02-.06.28-.09.31Zm.28-1.08c.07.18.23.52-.14.48.11-.09.08-.43.14-.48Zm.09,4.46l-.2-.21s.07-.21.2-.21c.03,0,.09.02.09.02l.02.17-.11.23Zm4.08-.25l-.2-.16s.04-.15.19-.15c.06,0,.13-.03.15-.03l-.15.35Zm.15-2.19l-.25.19s-.06-.32.09-.32c.07,0,.16-.04.16-.04v.17Z"/><path class="cls-1" d="m68.07,35.18c-.04-.07-.07-.14-.08-.22,0-.19.01-.38.04-.56,0-.27-.02-.57-.02-.87,0,0,0,0,0-.01,0-.02-.01-.04-.02-.06-.04-.1-.06-.19-.08-.29-.02-.17.02-.32.09-.46,0-.67,0-1.38,0-2.08,0-.12-.01-.24,0-.37.02-.34-.03-.67-.03-1.01,0-.26.04-.51.06-.76,0-.27,0-.53.01-.78,0-.15-.01-.31-.01-.46,0-.04.01-.08.02-.11.01-.66.02-1.15.03-1.36-.03-.02-.04-.02-.08-.03l-1.25,1.09c-.12.1-.19.26-.19.41v.27c.19.15.19.28.06.57,0,.03,0,.06.01.09,0,0,0,.02,0,.03,0,.06-.01.12-.02.17,0,.02-.01.05-.02.07,0,.03-.02.05-.03.07v.73c.07.02.13.04.19.06-.01.16.04.49-.07.46-.1-.02-.3-.35-.28-.5-.22,0-.62.02-.77.01-.06,0-.12.01-.17.02-.03,0-.05.02-.08.03-.05.01-.1.01-.15,0-.26.06-.5.15-.73.28,0,0,0,.02,0,.03,0,0,0-.01,0-.02-.84.47-1.53,1.33-2.09,2.04-.04.09-.08.19-.12.28-.04.08-.09.15-.13.22-.23.65-.24,1.4,0,2.05.04.03.08.06.11.09.1.1.17.22.21.35.01.04,0,.08,0,.13,0,.03,0,.07,0,.1.41.55,1.05.94,1.93.94.98.08,1.91-.69,2.2-1.04v.59c.01.21.19.38.41.38h1.08c-.01-.17-.03-.36-.04-.57Zm-5.34-1.2l-.28-.56s.37-.15.51-.15c.07,0,.27.04.27.04l-.5.67Zm3.88.54c-1.01.17-1.83-.06-2.4-.55-.1-.08-.18-.17-.26-.26-.05-.06-.1-.13-.15-.2-.44-.63-.59-1.48-.38-2.38.03-.11.06-.22.09-.32.02-.06.04-.11.06-.16,0,0,.44-.04.63-.04.08,0,.15,0,.23,0,.03,0,.07,0,.11,0,.1.01.21.03.31.04h.01c.13-.01.26,0,.38.03.02-.02.05-.04.07-.06,0,.03.03.06.02.09.06.02.11.06.15.1,0,0,0,0,.01.01.17.07.34.15.49.24.05.03.1.07.15.1.04.03.08.06.11.09.03.02.05.04.07.07.02.02.04.04.06.06.01.02.03.04.04.05.03.03.06.06.08.09.03.05.07.1.1.15v2.82Zm.74-3.48c-.07,0-.43-.29-.43-.29l.42-.35.19.13s0,.51-.18.51Z"/><path class="cls-1" d="m28.2,35.58c-.02-.22-.03-.48-.04-.76,0-.04-.02-.08-.03-.13-.02-.18-.04-.35-.03-.54,0-.07.02-.15.02-.22,0-.31-.01-.63-.01-.96-.02-.21-.03-.42-.01-.64,0-.06,0-.11,0-.16v-.86c-.02-.12-.04-.23-.08-.35-.1-.09-.19-.23-.25-.44h.33s0,0,0-.01c0-.28,0-.55,0-.82-.02-.12-.04-.23-.04-.35,0-.06,0-.12.01-.18,0-.07.02-.13.03-.2h0s0-.01,0-.01c0-.02,0-.04,0-.06,0-.08,0-.16,0-.24v-.02c0-.06,0-.11,0-.16,0-.41.01-.8.02-1.14v-.05c0-.36-.03-.73.03-1.08,0-.18,0-.32,0-.41-.03-.02-.04-.02-.08-.03l-.08.07c-.05.06-.1.11-.17.15l-.25.22s-.06.07-.09.1c-.06.06-.13.1-.2.15l-.46.4c-.12.1-.19.26-.19.41v.31c.06,0,.11.02.17.03.02,0,.03,0,.04.02.01.02,0,.04,0,.06-.05.18-.12.36-.21.52,0,0,0,0,0,.01.01.07.02.15.02.22,0,.07-.01.13-.02.2v.64s-.66.02-.89.01c0,0,0,0,0,0-.06.01-.12.02-.18.03-.02,0-.03,0-.05,0-.85.11-1.57.69-2.19,1.35-.04.06.02.33-.03.38-.02.02-.14-.17-.17-.16-.25.29-.49.59-.7.85-.24.42-.37.92-.37,1.43,0,.09.01.18.01.27,0,.02,0,.04,0,.06.04.44.18.87.41,1.25.04.06.52-.14.56-.09.04.05-.36.36-.32.41.03.03.06.07.1.1.01.01.02.03.03.04.1.1.22.19.34.27.03.01.06.03.09.04,0,0,.01,0,.02,0-.08-.11.03-.15.01-.19.18.11.17.18.31.32.02,0,.04.01.06.02.07.03.13.06.2.09.19.05.4.08.62.08.98.08,1.91-.69,2.2-1.04v.59c.01.08.05.15.09.21,0,0,.02,0,.03,0,0,.02.01.04.03.07.07.06.16.1.27.1h1.04c-.06-.03-.12-.06-.18-.09.08-.04.15-.06.21-.07Zm-1.49-1.95v.89c-.12.02-.24.03-.36.04.07.09.06.13.03.28-.03-.1-.28-.17-.32-.26,0,0,0,0,0,0-.08,0-.09,0-.11,0h-.02s-.03,0-.04,0c-.01,0-.02,0-.04,0h0s0,0-.02,0c-.09.01-.17,0-.25-.03,0,0-.01,0-.02,0-.05,0-.09-.02-.14-.03-.04,0-.09-.02-.13-.03-.04-.01-.08-.02-.13-.04-.08-.03-.17-.06-.24-.09-.08-.03-.15-.07-.23-.11-.04-.02-.07-.04-.11-.06,0,0,0,0,0,0-.03-.01-.05-.03-.07-.05-.03-.01-.05-.03-.07-.05t0,0h0s0,0,0,0c-.02-.01-.04-.03-.06-.05-.02-.01-.04-.03-.06-.05-.06-.04-.11-.09-.15-.15-.01,0-.02-.02-.03-.03,0,0,0,0-.01,0-.03-.03-.06-.06-.08-.08-.05-.06-.1-.11-.14-.18-.01-.01-.02-.03-.03-.05-.02-.04-.04-.08-.05-.12,0,0,0-.02-.01-.03h0c-.1-.19-.18-.38-.24-.59-.03-.13-.06-.26-.08-.39,0-.02-.01-.03-.01-.05-.01-.09-.03-.19-.03-.28,0-.05,0-.09.01-.14,0-.01,0-.03,0-.05,0-.14.02-.28.04-.43.01-.1.03-.19.06-.29.03-.15.08-.29.13-.44,0,0,.06,0,.14-.01.03,0,.08,0,.13,0,.05,0,.11,0,.17-.01.02,0,.05,0,.07,0,.02,0,.04,0,.06,0,.03,0,.05,0,.07,0h.04s0,0,0,0c0,0,0,0,0,0,.07,0,.13,0,.2,0,.07,0,.13.01.2.02.05,0,.1,0,.14.02.1,0,.21.03.31.05.04,0,.07.02.11.03,0,0,.01,0,.02,0,.04.01.08.03.13.04.07.02.13.04.2.07.06.02.11.05.16.07.05.03.1.05.15.08.05.03.1.06.15.09.05.03.09.07.14.1.04.03.09.07.13.11.03.02.05.05.07.07.09.1.18.2.25.32v.44c.01.06.02.12.02.18,0,.1-.01.2-.01.29,0,.1,0,.2,0,.31v.36c0,.06.02.12.03.17,0,.06,0,.12-.03.17Zm.2,1.44c.08-.11.16-.22.24-.34-.08-.02-.13-.04-.19-.06,0-.02,0-.03-.01-.05.11-.02.22-.05.36-.08.03.32-.2.41-.4.52Z"/><path class="cls-1" d="m94.35,27.24c-.15-.13-.34-.25-.53-.35-.02.02-.05.04-.08.06-.02.01-.13-.05-.13-.08,0-.03,0-.05,0-.07-.65-.28-1.46-.42-2.2-.48,0,.02,0,.05,0,.07-.08.02-.16.03-.31.07.05-.06.09-.11.13-.15-.73-.05-1.39-.03-1.71-.02-.15,0-.29.07-.38.18l-1.45,1.64s.02.04.04.07c.17-.02.52-.06.97-.07,0,.39.01,1.57.02,2.84.03.15.03.3,0,.45,0,.25,0,.5,0,.74.07.06.17.12.07.24-.01.01-.04.03-.07.03,0,1.35.02,2.49.02,2.49,0,.41,0,.83,0,.83.32.06.64.1.96.13-.04-.09-.08-.19-.13-.28h0,0s0,0,0,0c.06.01.14.01.15.05.04.08.07.16.11.24.24.02.49.05.73.06.51.02,1.02,0,1.51-.06.42-.06.83-.14,1.21-.27.33-.11.64-.24.94-.41.24-.14.48-.29.7-.47.17-.14.33-.29.48-.46,0,0,.02-.02.03-.03-.02-.03-.05-.04-.08-.08.05,0,.08.01.13.02.17-.22.49-.73.69-1.6.31-1.37.24-3.44-1.81-5.3Zm-4.72.12c.1.15-.04.19-.12.3-.07-.14-.12-.24-.17-.34.12-.06.21-.09.29.04Zm-.07,8.2c-.02-.08-.04-.17-.08-.3.22.1.14.2.08.3Zm.04-2.15c.4-.41-.42-.69-.08-1.03.03.01.08.01.1.04.16.19.31.38.53.64-.2.13-.38.24-.55.34Zm.9.94l-.11-6.2c2.28.23,5.15,1.34,5.16,5.36-1.39.73-2.48,1.07-5.05.83Zm4.74-5.25c.18-.09.25.02.32.16-.17.06-.25-.03-.32-.16Z"/><path class="cls-1" d="m21.11,31.91s0-.02,0-.03v-2.92s-.04-.02-.07-.03l-.2.15c-.06.06-.12.12-.2.16-.03.02-.05.03-.08.05l-.16.12s-.1.08-.15.12c-.01,0-.02.01-.03.02l-.42.31c-.14.1-.22.27-.22.44v.66c.06.03.49,0,.55.03-.05.11-.45.29-.5.4,0,.15-.02.29-.05.43v.21s.02.08.02.11c0,.25,0,.5-.02.75,0,0,0,.01,0,.02v1.36c-.55.24-1,.35-1.37.36-.03.01-.06.03-.09.03-.03,0-.06,0-.09,0-.03,0-.06,0-.09,0h-.05s-.08,0-.12-.01c0,0,0,0-.01,0-.01,0-.03-.01-.04-.02-.03-.01-.06-.03-.08-.03,0,0,0,0,0,0h0s-.06-.04-.08-.07c0,0,0,0,0-.01-.01,0-.02,0-.03-.01-.03-.02-.06-.04-.08-.06,0,0,0-.01-.01-.02-.34-.24-.55-.65-.66-1.15-.01-.03-.02-.06-.03-.09-.04-.14-.06-.28-.05-.42-.01-.1-.02-.2-.03-.31,0,0,0-.01,0-.02-.01-.05-.02-.1-.02-.15,0-.01,0-.03,0-.04,0-.01-.18.06-.18.05,0-.02.18-.3.19-.33,0-.2,0-.24,0-.45,0-.08-.02-.16-.02-.24,0-.05-.04-.29.03-.34,0-.18.01-.37.02-.57-.01-.13-.02-.25-.02-.38,0-.19.02-.38.05-.57,0-.17,0-.32,0-.45-.04-.01-.04-.02-.08-.03l-.35.27s-.05.06-.07.09c-.06.06-.13.11-.2.16-.04.03-.09.06-.14.08,0,0-.02,0-.03.01l-.44.34c-.13.1-.2.24-.21.39-.01.2-.03.52-.04.94.05.09.06.2.03.3v.04c-.02.15-.02.29-.02.44,0,.07,0,.15,0,.22,0,.02,0,.04,0,.06.04-.01.1.03.14.01.15.34.15.36-.07.59h0s0,.04,0,.05c0,.01,0,.03,0,.04,0,.05,0,.1-.02.15,0,0,0,0,0,.01.02.2.04.4.08.59.02.09.05.17.06.27,0,.05.01.11.02.16.08.33.18.63.31.88.01.01.03.02.03.04,0,.01.02.03.03.05.01.02.04.05.07.08.02-.02.07-.08.08-.09.02.02.05.15.07.17l-.06.06s.01.03.02.04c0,.01,0,.03,0,.04.22.25.49.41.84.44.58.05,1.07-.11,1.52-.37,0,0,0,0,0,0s0,0,0,0c0,0,.02-.02.03-.03.05-.05.11-.09.18-.11,0,0,.01,0,.02,0,.39-.27.75-.6,1.1-.95l-.02.99c0,.22.17.4.4.4h.43s0,0,.01,0h0s.08-.01.12-.02h.02s.1,0,.14.02t0,0h.4s0-.22,0-.57c0-.02-.01-.03-.01-.05,0-.02,0-.04,0-.06-.01-.04-.03-.07-.02-.11,0-.1,0-.19.02-.28,0,0,0-.01,0-.02v-.5c-.01-.09-.02-.17-.03-.26-.01-.18.01-.37.02-.55,0-.17-.02-.35-.02-.52,0-.1.01-.19.03-.29v-.23s-.04-.1-.04-.15c-.05-.08-.37-.17-.43-.26.07,0,.4.02.45.03,0,0,0-.01.01-.02Zm-3.3,3.11s-.17.02-.2.01c0-.03.06-.26.05-.29.07-.01.14-.03.2-.05,0,.03.02.05.03.08-.03.02-.04.23-.08.24Zm2.55-.72c.01-.07-.11-.16-.1-.23.03,0,.2.05.23.05-.01.07.06.27.05.34-.02,0-.15-.15-.17-.16Z"/><path class="cls-1" d="m102.75,32.5c-.09-.58-.09-1.4-.05-2.11.03-.63-.22-1.55-1.02-1.4-.65.13-1.24.29-1.92.32-.42-.01-.63-.01-1.03-.07-.01,0-.02,0-.03,0-.4.28-1.05.93-1.34,1.32,0,.03.01.04.02.07.09.04.19.07.29.09.04-.03.08-.06.14-.1,0,.05,0,.09,0,.13.87.15,1.87-.27,2.7-.39.38-.07.5.24.54.59.02.02.03.04.05.06-.02,0-.03,0-.04,0,.01.2,0,.41,0,.58-2.33.19-3.13.28-3.79,1.64-.55,1.14-.38,2.64,1.16,2.64.05,0,.11,0,.16,0-.04-.02-.09-.06-.09-.08-.04-.16.07-.21.26-.23,0,.13.07.24-.03.3.51-.03,1.06-.17,1.47-.54.36-.33.71-.62,1.13-.89.15.26.28.48.43.7.16-.13.41-.28.74-.5-.16.34-.29.62-.43.91.07.08.14.16.22.24.02,0,.04,0,.06,0,.39-.32,1.1-.94,1.35-1.27v-.05c-.44-.6-.83-1.13-.93-1.96Zm-3.5,2.02c-.62-.22-1.18-.55-1.42-1.15-.27-.66,1.12-.68,1.82-.66.54.02,1.18.18,1.61.27,0,.24.02.45.07.78-.48.88-1.36,1.01-2.08.76Zm2.4-3.86q-.3-.29.38-.63c-.14.23-.24.41-.38.63Zm.44.94s-.07-.06-.08-.1c0-.02.06-.07.09-.07.03,0,.06.05.12.1-.06.03-.1.08-.13.07Z"/><path class="cls-1" d="m85.46,28.81c-.09-.03-.17-.12-.27-.15-.69.73-1.17.88-1.3.91,0,0,0,.01.01.02-.17.05-.22-.03-.25-.16-.24-.14-.5-.23-.79-.25-1.23,0-2.06.96-2.82,1.72-.28.28-.48.58-.64.88,0,0,0,0,0,.01,0,.02-.02.04-.04.06-.19.39-.29.8-.3,1.2.04.06.07.14.12.23-.04.01-.08.02-.12.03.08,1.25.98,2.31,2.33,2.32.8.03,1.48-.29,2.13-.5,0,.04,0,.09,0,.14,0,.24-.01.59-.02.94.06,0,.1.04.09.11-.02.1-.05.21-.1.31,0,.26-.02.5-.04.66-.53.22-1.12.52-1.71.54h-.03c.06.16.04.2-.08.41-.24-.14-.27-.18-.06-.41-1.35,0-2.98-.08-4.31-.15-.02.06-.02.06-.04.12.46.36,2.04,1.07,2.93,1.35,0,0,0,0,0,0s0,0,.01,0c.5.14,1.01.23,1.5.18,1.72-.13,3.33-1.99,3.37-3.88v-.19s0-1.2,0-1.2c-.04,0-.08,0-.11.01,0-.1.05-.16.12-.19v-1.11s-.04.05-.06.08c.01-.15.04-.3.08-.44-.01-.72-.02-1.24,0-1.66-.03,0-.05.01-.08.02.02-.08.05-.12.08-.14.01-.26.04-.49.07-.7,0-.08-.01-.14-.02-.2.02,0,.04-.01.06-.02.06-.28.14-.56.25-.91Zm-5.28,5.13c.01-.06-.27-.42,0-.42s-.07.67,0,.42Zm2.66-4.14c.26-.37.27.42,0,.42,0,0-.16-.2,0-.42Zm.71,4.86c-2.9.01-3.36-1.83-2.75-4.08,1.9-.57,2.76,1.56,2.76,1.56,0,0,0,1.34,0,2.52Zm.72-1.34c-.27,0,.01-1.06,0-.42,0,.27.27.42,0,.42Zm.16-2.53s-.06,0-.08,0c0-.08.01-.15.02-.22.03,0,.06,0,.09.01,0,.07-.02.15-.03.22Z"/><path class="cls-1" d="m95.56,44.33c-1.85-.01-11.57-.02-13.43-.02-.24,0-.59,0-.69.13-.31.38-.52.83-.77,1.25-.01.02.03.09.06.09.99,0,6.99,0,10.81,0,.01-.04.03-.09.04-.13.15-.05.29-.09.44-.13.08.08.21.16.27.26,1.33,0,2.28,0,2.44,0,.06,0,.16-.03.19-.08.25-.4.49-.83.72-1.23.01-.03-.05-.13-.08-.13Zm-13.14.91c-.02-.09-.04-.17-.06-.26.03,0,.06-.01.08-.02.02.09.03.17.05.27-.02,0-.05,0-.07.01Zm1.42.03s-.04-.02-.06-.03c.03-.06.06-.13.09-.19.02.01.05.02.07.03-.03.06-.06.13-.09.19Zm.39-.64c.13-.24.24-.35.45-.28-.12.1-.17.31-.45.28Zm1.64.46c.31-.02.56-.03.85-.05-.17.64-.43.68-.85.05Z"/><path class="cls-1" d="m24.49,44.33c-.23,0-.59,0-1.04,0-.06.15-.26.21-.41.25-.13.03-.26.07-.38.1-.15.04-.31.08-.45.02-.06-.02-.11-.06-.17-.06-.02-.1-.04-.21-.08-.31-.7,0-1.49,0-2.31,0,.01,0,.04.05.08.1-.06.02-.1.04-.14.04-.02,0-.04-.05-.05-.08.04-.02.07-.05.11-.06-1.78,0-3.72,0-5.34,0,.03.04.06.09.09.14-.1.08-.2.16-.31.25-.07-.09-.12-.15-.17-.21.04-.06.08-.12.12-.17h-2.96c-.24,0-.59,0-.69.13-.31.38-.52.83-.77,1.25-.01.02.03.09.06.09h2.05s.04-.04.07-.06c.2-.11.45-.09.67-.02.09.02.17.05.25.08,1.52,0,3.37,0,5.13,0,0-.03,0-.06,0-.08.03.03.07.06.1.08h2.49s.07-.03.11-.04c.2-.08.41-.13.61-.2.01.03.02.06.03.09-.13.05-.25.1-.38.15,1.55,0,2.68,0,2.85,0,.06,0,.16-.03.19-.08.25-.4.49-.83.72-1.23.01-.03-.05-.13-.08-.13Zm-12.58.39c-.08-.13-.12-.19-.16-.26q.22-.04.16.26Zm5.79-.07c-.1-.1-.06-.18.05-.23.03-.01.1.02.11.05.03.13-.06.16-.17.18Zm2.46.68c-.05-.13-.09-.23-.13-.35.15-.07.21-.02.27.08.06.11.03.18-.13.27Z"/><path class="cls-1" d="m44.01,47.1s-.41,0-.94,0c0,.02-.02.03-.04.04-.01,0-.03,0-.05.01-.08.01-.15.08-.22.13-.02.01-.05.03-.08.03-.02,0-.05,0-.07,0-.13-.02-.25-.05-.38-.07-.01,0-.03,0-.04-.01-.01,0-.02-.02-.03-.03-.01-.03-.03-.06-.05-.09-.28,0-.54,0-.74,0,2.06-1.9,2.46-2.47,2.57-3.31.08-.59-.09-1.25-.49-1.71-.01.01-.02.02-.03.03-.07-.08-.13-.17-.2-.25-.06-.05-.13-.1-.2-.14-.26-.14-.52-.23-.79-.26.02.05.06.09.07.15,0-.06-.85.04-.93.01-.02,0-.03-.01-.04-.02h0c-.07.03-.13.07-.2.11-.69.45-.98,1.11-1.25,1.83l.1.08s.01-.02.02-.03c.65-.85,1.67-.82,2.31-.38,0,0,.01,0,.02.01.01-.04.03-.08.05-.1.13-.12.42.02.51.13.07.07.11.17.2.22.03.07-.02.14-.08.17-.06.03-.13.04-.21.03h-.07c.24.45.18,1.03-.21,1.48-.57.66-1.5,1.42-2.07,1.81-.63.43-1.04,1.46-1.04,1.46h.79c.14-.07.32-.1.49-.17.05.06.09.12.13.17h2.33c.15,0,.29-.08.36-.21l.55-.97-.08-.14Zm-2.53-4.54c0-.06,0-.12,0-.17.02,0,.04,0,.07,0,0,.06.02.12.03.17-.03,0-.06,0-.09.01Zm1.78,2.19c-.06.04-.13.08-.2.13-.04-.24.12-.13.2-.13Zm-1.34,1.3s.15-.08.18,0c0,0,0,.01,0,.02-.04.08-.08.17-.17.22,0,0-.02.01-.03.01-.03,0-.06-.04-.08-.03,0,0,.07-.2.1-.22Zm-1.43,2.04s-.04,0-.06-.01c.01-.06.03-.12.05-.17.02,0,.05.02.07.03-.01.05-.03.1-.05.15Zm3.24-.58q-.11-.14.03-.31c-.01.09-.02.18-.03.31Z"/><path class="cls-1" d="m39.02,41.71s0,.04,0,.06c0,.01,0,.02,0,.03,0,.01-.02.02-.04.02-.19.07-.37.15-.56.22-.09-.15-.28-.22-.38-.34h-.74s0,.22,0,.22c-.09-.08-.1-.15-.09-.22h-.13s0,.02,0,.03h-.06s0-.02,0-.03h-1.58s-.37.68-.37.68c0,0,0,0,.01,0,.13.14-.11.34-.18.45-.05.08-.07.18-.13.25-.01.02-.03.03-.05.04-.01,0-.03,0-.05,0h-.01s-.04.08-.04.08h3.58s-2.6,5.2-2.6,5.2h.64s3.43-6.71,3.43-6.71h-.6Zm-2.34,1.32c-.03-.06-.06-.1-.05-.13,0-.03.06-.05.1-.07.01.04.04.08.04.13,0,.02-.04.04-.08.08Z"/><path class="cls-1" d="m49.89,41.71h-1.23s-.05.01-.07.02c0,0-.01-.01-.02-.02h-.23c.1.06.08.1-.03.24-.02-.08-.04-.15-.06-.24h-2.2c-.15,0-.29.08-.36.22l-.1.18c.08,0,.15.05.22.16-.1-.03-.19-.05-.27-.07l-.5.9c.03.06.04.07.07.12h.91s.02-.06.03-.09c0-.02,0-.03.02-.05,0,0,.02-.02.03-.03.2-.15.49-.18.72-.08-.02.01-.05.02-.08.01,0,.08.06.15.13.18.07.03.15.03.23.04.02,0,.04,0,.06.01h1.4s-1.33,2.66-1.33,2.66c.05,0,.09.03.11.06.03.06-.03.14-.07.19-.05.08-.1.15-.16.22-.03.04-.12.19-.17.2-.02,0-.03,0-.05-.01l-.94,1.89h.64s1.73-3.39,1.73-3.39h0s-.01-.1-.01-.14c0-.02,0-.04,0-.06,0-.02.01-.03.02-.05.06-.09.12-.19.17-.28,0-.01.02-.03.04-.03,0,0,.01,0,.02,0,0,0,.02,0,.03.01l.34-.65h-.12c.06-.04.12-.09.17-.13,0,0,0,.01,0,.02l.97-1.89s-.04-.06-.07-.12Zm-1.87.22s-.05-.03-.09-.07c.05-.04.08-.07.12-.09.01,0,.07.06.06.07-.02.04-.06.07-.09.08Zm-1.07,5.52c-.01.06-.06.1-.11.13-.05-.07-.22-.23-.09-.31.1-.06.22.08.2.17Zm2.26-4.5s-.06-.02-.09-.03c.02-.06.05-.11.07-.16.02,0,.04.01.06.02-.01.06-.03.12-.04.18Zm.22-.13s-.06-.02-.08-.03c.01-.06.03-.11.05-.17,0,0,.06.01.1.02-.02.06-.04.11-.06.17Z"/><path class="cls-1" d="m33.4,41.56l-.24-.09s-.64.95-1.5,1.63h.5s0,.52,0,.52c.18.05.18.17.12.3-.03.07-.07.1-.12.1l.02,3.99c0,.23.19.41.42.41h.81s0-.46,0-.46c-.05.05-.1.09-.14.11-.02.01-.04.02-.06.03-.02,0-.05,0-.08,0-.07,0-.14,0-.21-.01,0-.11.02-.23.03-.34,0,0,0-.02,0-.03,0,0,.01,0,.02-.01.13-.03.25-.07.38-.1.01,0,.03,0,.05-.01v-2.58c-.03-.13-.03-.27,0-.4v-3.05Zm-.54,5.11s-.07-.06-.07-.06c.03-.05.07-.1.11-.15l.07.06s-.07.1-.11.15Zm.06-1.34c-.08-.07-.14-.13-.27-.24.17,0,.27-.01.41-.02-.06.12-.1.18-.14.26Z"/><path class="cls-1" d="m55.12,41.44l-.54.99-.2.37-1.02,1.9s.01,0,.02,0c-.01.07-.02.14-.03.21-.03,0-.06-.02-.09-.03l-.27.5c.09.05.09.17.04.3-.06-.02-.12-.03-.17-.05l-.84,1.56c-.08.15-.12.31-.11.48l.02.89c.08.02.07.01.15.03l.64-1.21s-.08.05-.12.07c-.02,0-.05.02-.06,0,0,0,0-.02,0-.03,0-.19-.02-.37-.08-.55.2-.06.4-.1.6-.14l2.15-4.09c.08-.15.12-.32.11-.5l-.04-.69c-.08-.02-.07-.01-.15-.03Z"/><path class="cls-1" d="m61.46,12.14c-.04-.06-.06-.13-.06-.21,0-.17,0-.35.01-.53,0-.11.02-.22.04-.33,0-.85-.01-1.7-.02-2.55,0-.03,0-.07-.01-.1-.02-.19-.01-.38,0-.57,0-.53-.01-1.06-.02-1.6-.03-.15-.05-.3-.04-.44,0-.09.02-.18.03-.27v-.11c0-.6,0-1.21-.01-1.81t-.08-.02l-1.08,1.38c.09.02.15.12.2.29-.12-.04-.22-.07-.34-.1l-.26.33c-.14.21-.21.45-.2.7.02.38.03.79.04,1.2,0,.03.02.05.02.08,0,.42.06.84.03,1.26,0,.02-.01.04-.01.07.02.87.08,1.74.13,2.6,0,.01.01.03.01.04,0,.29.02.57.04.86v.04c0,.1.01.21.01.31,0,.01,0,.02,0,.03,0,.27.02.55.02.82,0,.12.01.25-.03.38-.01.04-.37.09-.9.13-.46.15-.95.11-1.43.09-.21,0-.42.01-.63.02-.1.03-.21.06-.31.1-.08-.03-.16-.07-.24-.1-.51,0-.98,0-1.35-.03.12-.22.21-.37.3-.52.52-.91.85-1.99.88-2.06t0,0c-.06.03-.76.26-1.38.46,0,0,0,0,0,0-.13.06-.24.12-.37.18-.28.13-.56.22-.87.23-.02,0-.04,0-.06-.01-.2.06-.41.13-.62.2-.18.08-.36.17-.55.22-.31.09-.61.2-.91.29-.36.1-.72.22-1.09.3-.07.05-.13.09-.2.15-.19-.02-.37-.03-.54-.03-.86.2-1.75.35-2.65.41-.05,0-.09-.03-.09-.08l.03-1.16c-.1.2-.23.39-.42.69-.06-.2-.09-.29-.08-.34.03-.22.25-.69.41-.6.05-.01.07.11.1.16l.05-1.68c-.1-.31-.05-.68.03-1.03l.04-1.21s-.01-.02-.01-.03c0-.06-.02-.13-.02-.2,0-.03,0-.07.01-.11-.04-.01-.09-.03-.13-.05.05-.25.1-.51.15-.82,0,0,.02,0,.02.01v-.48c0-.06,0-.13,0-.19,0-.08.01-.17.03-.25,0-.01,0-.02,0-.03-.01-.14,0-.27.02-.41,0,0,0,0,0-.01v-.36s.01-1.09.01-1.09t-.08-.03l-.58.75c.13.13.27.26.4.38-.03.04-.07.08-.1.13-.14-.13-.38-.14-.36-.43l-.84,1.08c-.13.19-.2.41-.2.63v.63s.11.06.17.09c-.07.03-.12.06-.17.08v.85s0,0,0,0c0,0,0,0,0,0v1.44s.1,0,.16,0c-.05.16-.08.24-.14.29.01.08.02.16.02.24,0,.14-.01.28-.05.42v2.67c.03.17.08.34.07.51,0,.14-.04.28-.07.41v1.38c0,.2.16.38.36.37.27-.01.55-.03.83-.06.02-.02.05-.05.09-.07.32-.13.73-.14,1.17-.1.24-.04.48-.09.72-.14.38-.19.82-.27,1.25-.29,1.43-.36,2.79-.8,3.79-1.19-.04.08-.06.14-.08.19-.24.47-.48.93-.72,1.39-.03.07-.1.18-.16.3-.09.16.03.35.22.34l3.03-.15c.16-.03.32-.04.49-.02l1.48-.07c.08,0,.16-.01.24-.02.09-.02.18-.04.28-.07.1-.03.2-.06.31-.09t.01,0s.04-.02.06-.03c.04-.01.07-.03.11-.05.14-.06.29-.13.44-.16.01,0,.02,0,.03,0,.05-.03.09-.05.13-.06.1-.03.18,0,.23.05.01,0,.03,0,.04,0,.17-.08.32-.15.44-.24.45-.33.82-.76,1.08-1.26.15-.28.25-.62.28-1.01.02-.29,0-1.11,0-1.63Zm-15.83-.21c.18-.06.36-.16.54-.17.12,0,.24.13.35.2-.14.04-.29.08-.5.14-.13-.05-.26-.11-.4-.17Zm.51,3.32c-.07-.06-.13-.09-.13-.12,0-.05.04-.1.08-.13,0,0,.1.03.1.06,0,.05-.02.1-.05.19Zm3.04-.24c-.07,0-.14,0-.21-.01-.07.03-.24-.16-.24-.2.07.01.38.12.45.14,0,.02,0,.05-.01.08Zm2.11-.17c-.22-.5-.32-.71-.41-.91.12-.05.25-.14.37-.12.08.01.17.17.18.28.01.15-.04.3-.14.76Zm1.66-1.32c.06.1.1.16.17.28-.3,0-.27-.1-.17-.28Zm1.67-.15c-.1.02-.24-.02-.33-.08-.04-.04-.04-.19,0-.26.12-.2.29-.12.47-.04.02.18.03.35-.15.38Zm.44,2.92s-.02.07-.03.11c-.03.05-.07.1-.1.16.02-.06.05-.13.07-.19.02-.02.04-.05.06-.07.03-.08-.07-.14-.05-.22.03.02.19.03.19.03-.05.06-.1.12-.14.18Zm1.5-.71c-.12-.17-.17-.26-.24-.35.02-.03.04-.05.06-.07.08.03.2.04.23.09.03.06-.02.16-.05.33Zm.78.74c-.05-.06-.16-.15-.15-.18.05-.09.14-.16.22-.23.09.1.18.21.27.32-.1.03-.2.06-.34.1Zm.81-1.07c-.15,0-.31-.1-.46-.15.1-.06.21-.12.38-.22.13.08.26.14.38.21-.1.06-.2.17-.3.16Zm2.22-6.07c.03-.05.06-.11.1-.16-.03.06-.05.13-.07.19,0,0,0,0,0,.01.05.12.11.25.17.37.02,0,.03.01.05.01.06.03.11.07.16.1-.06-.03-.13-.05-.19-.07,0-.01-.01-.03-.02-.04-.13-.05-.24-.08-.37-.13.07-.08.13-.16.2-.24,0-.01-.01-.03-.02-.04Zm.52,2.25q-.24.11-.41-.18c.17.04.34,0,.41.18Zm-.34,1.57c-.07-.02-.16-.15-.15-.21,0-.07.13-.15.21-.16.09,0,.19.06.39.14-.29.15-.38.24-.45.23Zm.1-5.05c-.06.03-.24-.16-.38-.25.17-.22.34-.44.5-.66.11.13.22.25.37.41-.19.21-.32.4-.5.51Z"/></g><path class="cls-1" d="m30.27,44.52c-.03-.23-.33-.28-.63-.26-.05.03-.11.04-.17.04-.05,0-.1,0-.15,0-.16.02-.3.05-.35.05-.19.03-.32.2-.44.42.1.06.21.17.31.25-.1.11-.18.2-.27.3-.06-.06-.14-.13-.21-.19-.15.32-.3.64-.55.69-1.05.2-1.43,1.01-1.48,1.99,0,.05,0,.08,0,.11,0,.04,0,.08,0,.1,0,.17.01.35.03.53,0,.05.01.1,0,.14.02.06.02.13.02.17.03.22.06.43.1.65.04.08.06.19.05.26,0,.01,0,.02,0,.04.02.07.03.15.05.22.03.07.05.15.06.23,0,.01,0,.02,0,.03.02.04.03.09.03.13,0,.02.01.05.02.07.02.04.03.09.04.14,0,.03.02.06.02.09,0,0,.02,0,.02,0l.18-.5c.02-.06.03-.13.03-.19,0-.04,0-.07,0-.09,0-.06-.01-.12-.03-.18-.01-.03-.02-.07-.04-.11-.02-.04-.03-.09-.04-.14-.01-.04-.03-.08-.04-.13v-.02s0-.01-.01-.02c-.01-.04-.02-.07-.03-.1-.01-.03-.02-.07-.03-.11-.01-.05-.03-.1-.04-.14-.04,0-.09-.02-.12-.05-.06-.07-.06-.15.01-.21.01-.01.03,0,.04-.02,0-.01,0-.02,0-.03,0,0,0-.01,0-.02,0-.02,0-.03,0-.05,0-.02-.02-.04-.02-.06,0-.02,0-.04,0-.06,0-.02,0-.04,0-.06,0-.06,0-.12,0-.18h0s0,.03,0,.04c0-.01,0-.03,0-.04,0,0,0,0,0,0h0s0-.08.02-.11c0,0,0,0,0,0h0s0-.03.01-.04c0-.04.02-.07.03-.11.01-.08.05-.16.09-.23.03-.05.07-.09.11-.13.07-.09.17-.16.26-.23,0,0,0,0,0,0,.04-.03.09-.06.13-.1.01,0,.03,0,.04-.02,0,0,.01,0,.02,0,.02-.02.04-.03.06-.05.06-.04.12-.06.18-.09.03-.02.05-.04.09-.06,0,0,0,0,0,0,0,0,.02,0,.02-.01.01,0,.03,0,.04,0,.08-.04.16-.08.25-.11.09-.04.18-.08.26-.11.04-.02.08-.04.12-.06.02,0,.03-.01.05-.02.18-.08.37-.17.54-.26,0-.04.01-.08.04-.12.06-.09.11-.21.25-.19.02,0,.05-.02.08-.03.1-.05.14-.07.2-.04.36-.31.62-.71.69-1.31,0-.04,0-.08.01-.09,0-.02,0-.05,0-.06,0,0,0-.01,0-.02,0-.03,0-.06,0-.09,0,0,0-.01,0-.01Zm-3.33,2.83c-.06-.05-.06-.05,0-.16.02.05.04.09.06.14-.03,0-.05.02-.06.01Z"/><path class="cls-1" d="m79.19,46.97s0-.01,0-.02c-.02-.07-.05-.15-.11-.21-.22-.25-.37-.55-.46-.87-.05-.16-.08-.32-.1-.48-.02-.15,0-.34-.05-.48-.02-.05-.03-.11-.04-.16,0-.08,0-.16,0-.24,0-.03.01-.06.02-.1,0-.25.01-.49.03-.73-.12-.06-.12-.07-.18-.26.05-.11.1-.21.15-.3-.93-4.31-4.21-.18-3.39,1.63,0,0,.01.02.02.03.02.04.05.08.07.12,0,.01.01.02.02.03,0,0,0,0,0,.01.14.2.34.36.63.45.85.25,1.62-.1,1.87-.33-.05.64-.02.96.01,1.31,0,.05.01.09,0,.13.02.14.04.27.07.41,0,.02,0,.03.01.05.04.17.09.33.14.5,0,0,0,.01,0,.02.05.14.09.27.16.41.03.04.05.09.07.15,0,.02.01.03.02.05,0,.01.01.03.02.04.09.16.18.32.29.47.02,0,.04,0,.07,0l.23-.45s0-.01,0-.02c0-.01,0-.02.01-.03-.14.07-.13-.11-.23-.12-.08,0-.15-.03-.24-.06-.06-.08-.13-.18-.22-.3,0-.04.01-.12.03-.23.09.05.17.1.26.15.09-.05.18-.11.31-.19,0,.26-.09.51.09.73,0-.01,0-.02.02-.04,0-.02.02-.04.03-.05,0,0,0,0,.01,0l.28-.64c.05-.09.07-.2.06-.3,0-.03-.02-.06-.02-.08Zm-3.77-2.19s-.03,0-.04.01c-.03-.06-.07-.12-.09-.18,0-.03.04-.07.07-.1.03.03.08.06.08.09,0,.06-.01.12-.02.18Zm.77-2.72s.07.05.08.08c0,.02-.03.05-.07.1-.04-.06-.07-.09-.08-.12,0-.01.05-.06.07-.06Zm.49.53c.5-.18.98,1.04.98,1.54-1.28.46-2.68-.94-.98-1.54Z"/><path class="cls-1" d="m74.06,41.52l-.51-.18c.38,1.25-.53,1.65-.9.89-.08,0-.09-.12-.17-.13-.08,0-.15-.03-.24-.06,0,0,0-.01-.01-.02l.09-.36s-.04-.02,0,0c.06-.03.12-.07.19-.12,0-.02,0-.04,0-.07l-.49-.12c.02.09.02.17.03.25v.18c0,1.54-2,.83-2.32-.54l-.56,1.09c-.09.16-.08.34.01.5.8,1.3,1.59,3.92,1.09,5.68h.07c1.17-.92,1.08-3.53.67-4.55.5.15.87.12,1.07-.32,1.42,1.37,2.49-.58,1.99-2.11Zm-3.6,4.4c.05.05.1.1.16.17-.06.06-.1.14-.15.14m.41-2.92c0,.11.02.18.03.31-.1-.11-.17-.18-.03-.31Zm2.03.68c.03-.08-.03-.19.13-.26-.01.13.04.25-.13.26Z"/><path class="cls-1" d="m62.52,43.88l.43.97h0c.04.13.08.25.12.37.16.03.28.15.35.28.03.06-.03.23-.02.36.01.1.01.2.02.3-.02.01-.04.02-.06.04-.02-.04-.05-.08-.07-.12.16.79.23,1.61.27,2.42h.09c.31-.43.52-.89.65-1.38-.03.06-.07.13-.1.2-.1-.07-.11-.19-.09-.3,0-.04.1-.09.14-.16.03-.05.07-.09.1-.14.01,0,.02,0,.03,0,.1-.61.08-1.26-.06-1.92-.24-1.18-.57-2.32-1.32-3.38-.04.03-.11-.09-.09-.12-.05-.07-.1-.14-.15-.21-.26.6-.43,1.01-.62,1.48-.08.21-.07.55.05.73.12.18.23.36.33.56Z"/><path class="cls-1" d="m63.39,44.04s-.04,0-.06,0c0-.04-.01-.08-.02-.12.03,0,.06,0,.08-.01,0,.04,0,.08,0,.12Z"/><path class="cls-1" d="m66.07,43.88h.25s.08,0,.11.02c.04.01.06.04.09.06.09.09.18.17.26.26,0,0-.04,0-.04,0l-.26.62s-.05-.01-.05,0c.42,1.16.59,2.42.65,3.67h.08c.72-1.16.95-2.36.68-3.69-.12-.61-.27-1.2-.49-1.78,0,.02,0,.05-.01.07-.03.1-.09.19-.15.3-.1-.07-.11-.19-.09-.3,0-.04.1-.09.14-.16.01-.02.03-.04.05-.07-.2-.49-.44-.97-.77-1.43-.04.03-.09.06-.15.1.02-.13.03-.19.06-.23-.05-.07-.1-.14-.15-.21-.24.61-.42,1.01-.61,1.49-.08.21-.07.55.05.73.12.18.23.36.33.56Z"/><path class="cls-1" d="m61.07,45.35s-.11-.67-.11-.67c-.04-.19-.09-.33-.16-.45-.03-.04-.05-.1-.1-.1-.08,0-.15-.03-.24-.06-.05-.07-.12-.16-.19-.26-.87-.15-2.3,1.36-2.62,2.05-.13.22.32.24.4.12h0c.32-.25.96-1.17,1.48-1.04.07.05.13.1.17.16.27.5.43,1.33.4,2-.24.11-.51.2-.82.27.28-.44.54-.73.15-1.23h0c-.7-.95-1.88.89-2.19,1.42-.25.06-1.21.13-1.15.25l-.28.81s.03.04.03.05c0,.03,0,.08-.01.08,0,0,0,0-.01,0,0,0,0,.01,0,.02.52,0,1.09-.19,1.62-.28.03-.03.06-.06.09-.09.05.02.1.03.14.06,0,0,0,0,0,0h0c1.81.16,3.66-1.35,3.4-3.12Zm-3.03,1.42s.06.03.05.05c0,.03-.03.06-.04.09-.03-.02-.05-.04-.1-.07.04-.03.06-.06.09-.07Zm-.06.68s-.07-.05-.06-.1c.08-.14.41-.27.58-.31.07,0,.13.07.2.22-.13.08-.53.14-.72.19Zm1.93.15s-.03-.02-.05-.03c.02-.02.03-.03.04-.04,0,.01.02.03.03.04,0,0-.02.03-.02.03Z"/></g><g><path class="cls-1" d="m160.46,23.44s.05,0,.07,0c-.02-.01-.03-.03-.05-.04,0,.02-.01.03-.02.05Z"/><g><path class="cls-1" d="m148.43,6.38c-.58-.93-1.44-1.47-2.55-1.4-.54.03-1.04.18-1.48.43.04-.21.11-.42.22-.61.38-.7.95-.89,1.7-.72.25.06.57,0,.8-.11.08-.03.41-.2.16-.26-.96-.22-2.05-.13-2.92.38-.19.11-.35.23-.49.38-.15-.2-.33-.37-.57-.51-.77-.47-1.74-.41-2.59-.22-.08.02-.59.13-.54.28.05.16.51.06.61.04,1.08-.24,1.87.32,2.25,1.13-.4-.17-.85-.24-1.34-.19-.27.03-.53.08-.77.17h0c-.09.1-.15.17-.23.25-.06-.02-.13-.05-.2-.08-.55.27-1.02.68-1.38,1.24-.1.17.4.12.44.11.19-.02.57-.08.68-.26.34-.53.85-1.18,1.55-.99.47.13.86.44,1.17.8-.6.06-1.19.23-1.69.57-.47.32-.75.76-.88,1.25.06.05.09.13.09.22,0,.13-.07.2-.16.22-.03.35,0,.71.07,1.06.06.23,1.2-.01,1.15-.24-.28-1.22.15-2.87,1.69-2.66v.36s0,0-.01,0c-.06.02-.13.04-.19.08-.06.04-.1.1-.13.17-.1.2-.15.43-.13.66.01.23.09.46.23.64.06.08.15.16.24.22v1.62c0,.17,1.08.12,1.08-.17v-1.48c.06-.03.11-.06.16-.1.23-.19.37-.51.33-.81-.01-.1-.05-.18-.09-.27,0,.06-.04.13-.11.19-.16-.08-.31-.17-.26-.38.01-.06.06-.15.11-.16,0,0,.02,0,.03,0-.05-.05-.09-.09-.15-.14,0,0-.02-.02-.03-.03v-.37s.06-.05.08-.07c1.33.17,1.94,1.55,1.63,2.91-.02.09,1.07.08,1.15-.24.1-.44.12-.89.04-1.31-.03.01-.07.03-.1.05,0-.03-.02-.06-.03-.1.04,0,.08-.01.12-.02-.1-.43-.31-.82-.66-1.14-.58-.51-1.36-.62-2.1-.57.39-.53.89-1,1.6-.73.55.21.96.65,1.27,1.14.17.27,1.22-.14,1.15-.24Zm-5.35-1.98s-.05-.04-.08-.06c.03-.04.07-.08.1-.13.02.02.05.03.07.05-.03.04-.06.09-.1.13Zm1.04,2.49c-.07,0-.15-.01-.22-.02,0-.03,0-.06,0-.09.06-.04.11-.08.22-.15v.26Z"/><path class="cls-1" d="m147.28,44.84c-.31.49-.72.93-1.27,1.14-.7.27-1.2-.21-1.6-.73.74.05,1.52-.06,2.1-.57.73-.64.84-1.61.64-2.52-.08-.33-1.17-.33-1.15-.24.31,1.36-.31,2.73-1.63,2.91-.02-.02-.05-.05-.08-.07v-.37s.02-.02.03-.03c.23-.19.42-.45.46-.74.04-.3-.1-.61-.33-.81-.05-.04-.1-.07-.16-.1v-1.48c0-.29-1.08-.35-1.08-.17v1.62c-.09.06-.17.13-.24.22-.14.18-.21.41-.23.64-.01.23.03.46.13.66.03.06.08.13.13.17.06.04.12.06.19.08,0,0,0,0,.01,0v.36c-1.54.21-1.96-1.45-1.69-2.66.05-.23-1.09-.48-1.15-.24-.23,1.03-.03,2.12.89,2.75.5.34,1.09.51,1.69.57-.31.37-.7.67-1.17.8-.7.19-1.22-.47-1.55-.99-.11-.18-.49-.24-.68-.26-.05,0-.54-.05-.44.11.59.93,1.49,1.47,2.58,1.58.49.06.94-.02,1.34-.19-.38.81-1.18,1.37-2.25,1.13-.09-.02-.55-.12-.61.04-.05.15.46.26.54.28.85.19,1.81.25,2.59-.22.23-.14.42-.31.57-.51.14.14.3.27.49.38.87.51,1.95.59,2.92.38.25-.06-.08-.23-.16-.26-.23-.1-.55-.17-.8-.11-.75.17-1.33-.03-1.7-.72-.11-.19-.17-.4-.22-.61.44.25.95.39,1.48.43,1.11.08,1.97-.47,2.55-1.4.07-.11-.97-.51-1.15-.24Zm-3.04.27q-.19-.15,0-.34v.34Z"/><path class="cls-1" d="m165.77,28.21c.06-.02.11-.05.15-.09-.02-.63-.17-1.26-.49-1.8-.11-.19-.24-.35-.38-.48.19-.15.37-.33.51-.57.47-.77.4-1.74.22-2.59-.02-.08-.13-.59-.28-.54-.16.06-.06.52-.04.61.24,1.08-.32,1.87-1.13,2.25.17-.4.24-.85.19-1.34-.08-.69-.32-1.31-.72-1.81-.19-.13-.35-.3-.48-.48-.12-.1-.25-.19-.38-.28-.17-.1-.12.39-.11.44.02.19.08.56.26.68.53.33,1.19.85.99,1.55-.13.47-.44.86-.8,1.17-.06-.6-.23-1.19-.57-1.69-.47-.69-1.19-.97-1.95-.97-.17.04-.34.06-.54.06-.03,0-.06,0-.09,0-.06,0-.11.01-.17.03-.2.05-.04.93.16,1.11,0-.02.02-.04.03-.05.23-.07.25-.28.33-.45.08.04.03.26.23.13.04-.03.17.08.26.13h0s.01,0,.01,0c0,0,0,0-.01,0-.04.06-.08.13-.11.2,1.08-.02,2.19.49,2.01,1.77h-.36s0-.01,0-.02c-.02-.06-.04-.13-.08-.18-.04-.06-.1-.1-.17-.13-.2-.11-.43-.15-.66-.13-.23.01-.46.08-.64.22-.08.07-.16.15-.22.24h-1.63c-.17,0-.12,1.08.17,1.08h1.48c.03.06.06.11.1.16.19.24.5.38.81.34.29-.04.55-.24.74-.46.01,0,.02-.02.03-.03h.37s.04.07.07.08c-.17,1.33-1.56,1.94-2.91,1.64-.09-.02-.08,1.07.24,1.15.11.03.23.05.34.06.03,0,.06,0,.09,0,.13,0,.24.01.36.03.65,0,1.27-.2,1.73-.72.51-.58.62-1.36.56-2.11.53.39,1,.89.73,1.6-.21.55-.65.96-1.13,1.27-.27.17.14,1.21.24,1.15.12-.08.24-.16.34-.25.12-.16.26-.3.43-.42.44-.51.67-1.14.62-1.89-.03-.54-.18-1.04-.43-1.48.21.04.41.11.61.22.7.38.89.95.72,1.7-.05.25,0,.57.11.8.04.08.21.41.26.16.02-.08.03-.16.04-.23,0,0-.02.01-.03.02-.04-.27-.07-.45-.09-.64,0-.06.02-.16.05-.17Zm-.67-3.3c.07-.11.15-.22.28-.02-.1,0-.19.01-.28.02,0,0,0,0,0,.01h-.01s.02-.01.02-.01Z"/><path class="cls-1" d="m128.45,25.18h-1.63c-.06-.09-.13-.17-.22-.24-.18-.14-.41-.21-.64-.22-.23-.02-.46.02-.66.13-.06.03-.13.08-.17.13-.04.06-.06.12-.09.18,0,0,0,.01,0,.02h-.36s0-.03,0-.05c-.06-.02-.14-.05-.14-.05.02-.09.05-.18.08-.27.02,0,.03,0,.05.01.07-1.25,1.56-1.59,2.67-1.34.23.05.48-1.09.24-1.15-1.03-.23-2.12-.03-2.74.89-.34.5-.51,1.09-.57,1.69-.36-.31-.67-.7-.8-1.17-.19-.7.47-1.22.99-1.55.18-.12.24-.49.26-.68,0-.05.05-.55-.11-.44-.93.59-1.47,1.48-1.59,2.58-.05.49.02.94.19,1.34-.81-.38-1.37-1.18-1.13-2.25.02-.09.12-.55-.04-.61-.15-.05-.26.46-.28.54-.19.85-.25,1.81.22,2.59.14.23.31.42.51.57-.14.14-.27.3-.38.48-.17.29-.29.61-.37.94.03,0,.07,0,.09.02.03.02,0,.15,0,.29-.06-.04-.1-.07-.14-.1-.11.58-.09,1.19.04,1.76.06.25.23-.08.26-.16.1-.23.16-.55.11-.8-.17-.75.03-1.32.72-1.7.2-.11.4-.18.61-.22-.13.23-.23.48-.3.74.06.02.08.07.09.15-.05.03-.1.03-.13.02-.04.18-.08.37-.09.57-.08,1.11.47,1.97,1.4,2.55.11.07.51-.97.24-1.15-.24-.15-.46-.33-.66-.53-.01.03-.02.06-.04.09-.03-.03-.07-.05-.08-.08,0-.07,0-.1.03-.12-.16-.19-.3-.4-.39-.63-.27-.71.2-1.21.73-1.6-.03.46,0,.93.14,1.36.01-.02.05-.06.06-.05.03.01.07.05.09.08,0,0-.03.05-.09.12.08.22.2.42.36.6.64.73,1.62.84,2.52.63.33-.07.34-1.17.24-1.15-1.35.31-2.73-.31-2.91-1.64.03-.02.05-.05.07-.08h.37s.02.02.03.03c.19.23.45.42.74.46.3.04.61-.1.81-.34.04-.05.07-.1.1-.16h1.48c.29,0,.35-1.08.17-1.08Zm-5.48.85c.11-.07.2-.12.31-.18.05.06.1.12.17.21-.19-.01-.32-.02-.49-.03Zm4.57,2.06c.03.06.06.09.07.13,0,0-.05.05-.07.05-.03,0-.06-.04-.07-.07,0-.03.03-.06.07-.1Z"/></g><g><path class="cls-1" d="m133.33,11.19s-.03-.03-.04-.04c-.06-.05-.11-.1-.16-.16,0,0-.01,0-.02,0-.1-.05-.19-.14-.27-.2-.13-.1-.24-.17-.33-.29-.08-.08-.14-.16-.21-.24-.39-.31-.77-.54-1.13-.65-.51-.15-1-.15-1.54-.15h-.06c-.21,0-.37,0-.53-.02-.17,0-.33-.02-.54-.02-.04,0-.08,0-.11,0-.04,0-.08,0-.11,0-.08,0-.14,0-.19.02-.19.05-.3.16-.42.29-.05.05-.12.13-.17.19.1.05.18.15.24.29,0,0,.01-.01.02-.02.02.02.04.05.05.08,0,.01-.02.04-.03.04.03.11.06.22.08.37-.16.07-.3.11-.42.13v.73c0,.55.05,1.14.3,1.7.21.47.53.84.94,1.25h.01s0,.02.01.03c.04.04.22.22.45.45.17.12.31.26.42.41.39.38.78.77.84.83.21.21.87-.65.75-.77-.15-.15-.69-.77-.83-.91-.51-.5-1.61-1.67-1.79-2.21-.15-.46-.17-.93-.17-1.33v-.48c0-.18,0-.32-.01-.45h.01s.53-.02.53-.02c.56,0,1.17.03,1.75.29.5.22.9.58,1.24.92l.72.62c.21.21.88-.56.76-.67Zm-.68.1s0-.06-.01-.08h.55s0,.06,0,.08h-.54Z"/><path class="cls-1" d="m127.41,41.26c0,.08,0,.14.02.19.05.19.16.3.29.42.06.06.16.15.23.2.01.01.03.02.03.02l.03.02h1.52c.55,0,1.14-.05,1.7-.3.47-.21.84-.53,1.25-.94h.01s0-.02.01-.03c.13-.13,1.56-1.58,1.69-1.71.21-.21-.65-.87-.77-.75-.15.15-.77.69-.91.83-.5.51-1.67,1.61-2.21,1.79-.46.15-.93.17-1.33.17h-.48c-.18,0-.32,0-.45.01h-.01s0-.27,0-.27c0,0-.02,0-.03,0v-.06s.03,0,.03,0v-.2c0-.56.03-1.17.29-1.75.22-.5.58-.9.92-1.24l.62-.72c.21-.21-.56-.88-.67-.76-.18.18-.09.09-.27.27-.65.69-1.15,1.31-1.33,1.91-.15.51-.15,1-.15,1.54v.06c0,.21,0,.37-.02.53,0,.17-.02.33-.02.54,0,.04,0,.08,0,.11,0,.04,0,.08,0,.11Zm4.14-.23c.16-.1.25-.17.35-.2.1-.03.21.14.19.26-.01.13-.1.22-.22.18-.1-.03-.18-.12-.33-.23Z"/><path class="cls-1" d="m160.11,9.92c-.05-.19-.16-.3-.29-.42-.06-.06-.16-.15-.23-.2-.01-.01-.03-.02-.03-.02l-.03-.02h-1.52c-.55,0-1.14.05-1.7.3-.47.21-.84.53-1.25.93v.02s-.02,0-.03.01c-.13.13-1.56,1.58-1.69,1.71-.21.21.65.87.77.75.15-.15.77-.69.91-.83.26-.26.7-.68,1.13-1.05-.04-.05-.08-.1-.12-.16.07-.08.12-.14.19-.22.06.06.11.11.17.17.32-.26.63-.47.83-.54.46-.15.93-.17,1.33-.17h.48c.18,0,.32,0,.45-.01h.01s0,.54,0,.54c0,.56-.03,1.17-.29,1.75-.22.5-.58.9-.92,1.24l-.62.72c-.21.21.56.88.67.76.18-.18.09-.09.27-.27.65-.69,1.15-1.31,1.33-1.91.15-.51.15-1.01.15-1.54v-.06c0-.21,0-.37.02-.53,0-.17.02-.32.02-.53,0-.04,0-.08,0-.11,0-.04,0-.08,0-.11,0-.08,0-.14-.02-.19Zm-5.41,2.23s-.03-.03-.05-.05c.03-.03.04-.08.07-.1.03-.02.07-.03.1-.05.02.02.03.05.05.07-.06.04-.12.08-.17.13Zm.9-1.43c-.14-.03-.27-.07-.46-.11.22-.18.34,0,.48.02,0,.03-.01.06-.02.09Zm1.08-.33c-.12-.09-.21-.15-.32-.23.14-.04.23-.06.38-.1-.02.12-.03.19-.06.33Z"/><path class="cls-1" d="m154.51,40.37l-.14-.03.11.11c.69.65,1.31,1.15,1.91,1.33.51.15,1,.15,1.54.15h.06c.21,0,.37,0,.53.02.17,0,.33.02.54.02.04,0,.08,0,.11,0,.04,0,.08,0,.11,0,.08,0,.14,0,.19-.02.19-.05.3-.16.42-.29.06-.06.15-.16.2-.23.01-.01.02-.03.02-.03l.02-.03v-1.52c0-.55-.05-1.14-.3-1.7-.11-.25-.26-.48-.43-.7-.3-.21-.26-.18-.49-.47-.08-.11-.14-.18-.19-.26-.2-.19-.55-.55-.88-.87-.13-.1-.24-.21-.34-.34-.17-.17-.31-.3-.34-.34-.21-.21-.87.65-.75.77.15.15.69.77.83.91.51.5,1.61,1.67,1.79,2.21.15.46.17.93.17,1.33v.48c0,.18,0,.32.01.45h-.01s-.53.02-.53.02c-.56,0-1.17-.03-1.75-.29-.5-.22-.9-.58-1.24-.92l-.72-.62c-.2-.2-.84.52-.76.66.11,0,.21.08.29.19Zm4.75,1.04c.11-.11.19-.2.29-.3.13.24.08.3-.29.3Z"/></g><g><path class="cls-1" d="m148.46,13.55s-.02-.57-.08-.56c-.24.06-.5.08-.76.09.02.06.02.13.02.22-.03,0-.05.01-.07.02-.03-.08-.06-.15-.1-.24-.02,0-.05,0-.07,0-.28,0-.56-.04-.82-.13-.24-.08-.48-.2-.71-.31-.36-.17-.73-.4-1.13-.48-.11-.02-.23-.03-.31.05-.11.12-.18.3-.27.44-.1.17-.21.33-.31.49-.03.05-.08.1-.1.16,0,0,0,.01,0,.02,0,0,0-.01,0-.02-.05-.13-.18-.27-.26-.39-.11-.17-.22-.34-.32-.51-.06-.1-.1-.22-.24-.24-.14-.02-.3.04-.42.09-.3.11-.58.26-.87.4.04.03.07.06.09.1,0,.02-.05.06-.09.11-.05-.07-.09-.11-.11-.16-.07.03-.15.07-.22.11-.17.08-.34.14-.51.18.05.07.1.13.16.19-.21,0-.27,0-.31-.15-.27.06-.55.08-.83.07-.06.03-.11.06-.17.09-.01-.02-.03-.05-.04-.07.02,0,.03-.02.05-.03-.18-.01-.36-.04-.54-.08-.04,0-.05.33-.05.48.04.04.09.08.13.12-.03.14-.09.29-.11.44,0,.05.02.08.05.08.29.06.6.09.9.09.22-.08.48-.14.77-.14.03,0,.06,0,.09,0,.18-.06.37-.13.55-.22.39-.19.77-.41,1.18-.54.11-.04.27-.09.38-.04.11.05.18.24.24.34,0,0,0,0,0,0-.03.08-.06.16-.08.24h0s-.09.28-.09.28c-.03.08,0,.18.08.23l.48.28c.06.03.13.03.19,0l.49-.28c.08-.05.12-.14.09-.23l-.12-.36s0,0,0,0c-.01-.05-.03-.09-.04-.13.03-.06.07-.11.11-.17.06-.11.1-.21.24-.22.15-.01.31.05.44.1.42.16.81.38,1.21.57.33.15.67.23,1.03.26.07-.06.14-.12.15-.11.22.2.32-.03.51-.18,0,.12,0,.21,0,.28.15-.01.3-.04.45-.07.09-.02.05-.5.05-.56Zm-2.77-.34c-.03-.06-.05-.13-.08-.19.02-.01.03-.02.05-.03.05.04.09.08.14.12-.03.03-.07.07-.11.1Z"/><path class="cls-1" d="m148.41,37.47c-.24-.06-.49-.09-.74-.09-.15.03-.31.05-.48.05-.06,0-.11,0-.17,0-.26.04-.51.12-.75.22-.41.18-.8.4-1.21.57-.13.05-.29.11-.44.1-.14-.01-.17-.11-.24-.22-.03-.06-.07-.11-.11-.17.01-.04.03-.09.04-.13,0,0,0,0,0,0l.12-.36c.03-.09,0-.18-.09-.23l-.49-.29c-.06-.03-.14-.03-.19,0l-.48.28c-.08.05-.11.14-.08.23l.09.28h0c.03.08.06.16.08.24,0,0,0,0,0,0-.06.1-.13.29-.24.34-.12.05-.27,0-.38-.04-.1-.03-.19-.07-.29-.11-.08,0-.15-.02-.22-.08-.02-.01-.03-.03-.05-.04-.21-.1-.42-.21-.62-.31-.29-.14-.56-.24-.86-.29-.07,0-.13,0-.21,0-.18,0-.35-.02-.51-.06-.25,0-.49.03-.73.08-.09.02-.07.49-.07.56,0,.04,0,.57.05.56.65-.14,1.32-.12,1.93.1.15.03.29.08.41.13-.07-.13-.14-.23-.22-.36.26.04.28.18.25.38.13.06.24.13.34.22.22.11.43.21.66.3.13.05.29.11.42.09.13-.02.18-.14.24-.24.1-.17.21-.34.32-.51.08-.12.21-.26.26-.39,0,0,0-.02,0-.02,0,0,0,.01,0,.02.02.05.07.11.1.15.1.16.21.33.31.49.08.14.16.32.27.44.08.08.2.07.31.05.4-.08.77-.31,1.13-.48.23-.11.46-.23.71-.31.26-.09.54-.12.82-.13.33,0,.66.02.98.1.06.01.07-.52.08-.56,0-.07.04-.54-.05-.56Zm-6,1.18c-.14.03-.33-.08-.47-.06.52-.34.74-.37.83-.16-.13.04-.22.19-.36.22Z"/><path class="cls-1" d="m157.34,26.46c-.12-.11-.3-.18-.44-.27-.16-.1-.33-.21-.49-.31-.05-.03-.1-.08-.15-.1-.01,0-.02,0-.02,0,0,0,.01,0,.02,0,.13-.05.27-.18.39-.26.17-.11.34-.22.51-.32.1-.06.2-.1.23-.21-.03-.12-.04-.24-.05-.37-.01-.03-.02-.06-.03-.08-.16-.42-.38-.8-.56-1.2-.32-.68-.36-1.45-.2-2.18.01-.05-.52-.05-.56-.05-.07,0-.54-.01-.56.07-.03.15-.06.3-.07.45.05.04.09.08.14.13-.08.32-.26.68.1.96-.04.09-.1.09-.17.08.06.23.15.46.26.69.18.39.41.77.54,1.18.03.11.09.27.04.38-.05.11-.24.18-.34.24,0,0,0,0,0,0-.08-.03-.16-.06-.24-.08h0s-.28-.09-.28-.09c-.09-.03-.18,0-.23.08l-.28.48c-.03.06-.03.13,0,.19l.29.49c.05.08.14.12.23.09l.36-.12s0,0,0,0c.04-.01.09-.03.13-.04.06.03.11.07.17.1.11.06.21.1.22.24.01.15-.05.31-.1.44-.16.42-.38.81-.56,1.21,0,.01-.01.03-.02.04-.03.27-.1.53-.22.77-.06.44-.03.88.06,1.32.02.09.5.05.56.05.05,0,.58-.02.56-.07-.07-.32-.1-.65-.09-.98,0-.28.04-.55.13-.82.08-.24.2-.47.31-.71,0,0,0,0,0,0,.07-.21.16-.4.29-.58.08-.18.15-.36.19-.55.02-.1.03-.23-.05-.31Zm-1.15-2.16c0-.07-.02-.14-.03-.21.02,0,.03,0,.05-.01.02.07.04.14.06.21-.03,0-.05.01-.08.02Z"/><path class="cls-1" d="m132.65,25.68l-.28-.48c-.05-.08-.14-.11-.23-.08l-.28.09h0c-.08.02-.16.05-.24.08,0,0,0,0,0,0-.1-.06-.29-.13-.34-.24-.05-.11,0-.27.03-.38.13-.41.36-.79.54-1.18.2-.43.34-.85.35-1.33,0-.33-.02-.66-.09-.98-.02-.09-.49-.07-.56-.07-.04,0-.58,0-.56.05.16.73.12,1.5-.2,2.18-.19.4-.41.79-.57,1.2,0,.01,0,.03-.01.04.03.03.04.06.04.09,0,.04-.04.08-.11.12-.01.06-.02.12,0,.17.02.13.13.18.24.24.17.1.34.21.51.32.12.08.26.21.39.26,0,0,.01,0,.02,0,0,0-.01,0-.02,0-.06.02-.11.07-.16.1-.16.1-.33.21-.49.31-.14.08-.32.16-.44.27-.09.08-.08.2-.05.31.08.4.31.77.48,1.13.01.03.03.06.04.08.08-.01.17-.01.22.02.18.13.34.29.53.46-.17.08-.3.15-.46.22,0,0,0,0-.01,0,0,0,.01,0,.02.01h0s.08.07.1.08c.09.04.2.06.17.2-.03.1-.09.17-.18.19,0,.08.02.17.02.25,0,.33-.02.66-.1.98-.01.05.52.07.56.07.06,0,.54.04.56-.05.1-.46.13-.94.05-1.4h0v-.02c-.04-.25-.11-.49-.22-.72-.18-.41-.4-.8-.56-1.21-.05-.13-.12-.29-.1-.44.01-.14.11-.17.22-.24.06-.03.11-.07.17-.1.04.01.09.03.13.04,0,0,0,0,0,0l.36.12c.09.03.18,0,.23-.09l.28-.49c.03-.06.03-.14,0-.19Zm-1.43-1.89s.06-.07.1-.08c.01,0,.05.03.1.05-.04.05-.07.1-.1.1-.02,0-.06-.05-.09-.07Z"/></g><g><path class="cls-1" d="m137.39,16.85c-.21-.33-.67-.96-.95-1.24-.12-.12-.28-.11-.4,0-.04.03-.07.07-.1.12-.14.2-.27.4-.41.61-.05.07-.08.08-.16.03-.07-.06-.16-.12-.25-.15-.15-.05-.3-.09-.45-.11-.27-.04-.47-.21-.54-.45-.02-.08-.01-.14.08-.18.18-.07.35-.15.53-.2.22-.06.42,0,.58.16l.61-.54c0-.06-.02-.09-.07-.11-.12-.06-.23-.11-.35-.17-.3-.16-.6-.33-.84-.58-.03-.04-.09-.05-.14-.07-.09-.03-.19-.06-.28-.09-.1-.03-.2-.06-.3-.08-.1-.01-.21,0-.31.01-.03,0-.05,0-.08.02-.08.02-.15.09-.22.15-.08.07-.16.15-.24.22-.82.86-1.21,2.08-1.22,3.25,0,.31.28-.03.35-.11.18-.23.34-.59.34-.89,0-.54.14-.97.44-1.28l.29-.05c-.1.17-.18.35-.22.47-.1.38.04.69.27.97.19.24.28.4.51.58.12.1.25.21.35.33.16.18.22.52.16.82-.34.27-.72.48-1.13.62-.05.01.23.47.25.51.04.06.27.47.36.44.31-.1.6-.25.87-.42-.06-.04-.11-.08-.18-.12.04-.15.07-.29.11-.44.31,0,.4.05.46.26.18-.16.33-.33.47-.53.16-.19.29-.42.37-.69.07-.23.05-.46.02-.69-.05-.41.07-.79.26-1.14.03-.06.07-.1.13-.04.11.14.43.63.52.79.09.16.08.32-.04.48-.07.1-.13.2-.2.29-.05.07-.07.12,0,.19.04.04.07.09.1.13.12.15.24.3.37.46.02-.03.03-.04.04-.06.12-.35.26-.7.31-1.08.02-.15-.01-.29-.09-.41Zm-3.71-2.94c.11.05.2.09.33.15-.33.12-.33.12-.33-.15Zm.44,2.03s-.05-.04-.08-.07c.05-.02.09-.04.11-.03.03,0,.04.05.06.07-.03.01-.06.03-.08.03Z"/><path class="cls-1" d="m152.98,37.51c.09.03.19.06.28.09.11.03.21.07.32.08.1.02.29.01.39-.04.02,0,.04-.02.06-.03.14-.1.26-.21.38-.33.82-.86,1.21-2.08,1.22-3.25,0-.31-.28.03-.35.11-.18.23-.34.59-.34.89,0,.54-.14.97-.44,1.28l-.29.05c.1-.17.18-.35.22-.47.1-.38-.04-.69-.27-.97-.19-.24-.28-.4-.51-.59-.12-.1-.25-.21-.35-.33-.16-.19-.23-.52-.16-.82.33-.27.72-.48,1.13-.62.05-.02-.23-.47-.25-.51-.04-.06-.27-.47-.35-.44-.31.1-.61.26-.89.43-.35.22-.61.5-.84.82-.16.19-.29.42-.37.69-.07.23-.05.46-.02.69.05.41-.07.79-.26,1.15-.03.06-.07.1-.13.04-.12-.14-.43-.63-.52-.79-.09-.16-.07-.32.04-.47.07-.1.13-.2.2-.29.05-.07.07-.12,0-.19-.04-.04-.07-.09-.1-.13-.12-.15-.24-.3-.37-.46-.02.02-.03.04-.04.06-.13.35-.26.7-.31,1.08-.02.15.01.29.09.41.08.13.2.3.33.48.05,0,.1,0,.14,0,0,0,.01.06.01.06-.03,0-.06.02-.1.02.19.26.4.53.56.68.12.12.28.11.4,0,.04-.03.07-.07.09-.12.14-.2.28-.4.41-.61.05-.07.09-.08.16-.02.07.06.16.12.25.14.14.05.3.09.45.11.27.04.47.21.54.45.02.08.01.14-.07.18-.18.06-.35.15-.54.2-.22.06-.42,0-.58-.16l-.25.22s-.04.08-.1.12c0,0-.02,0-.03,0l-.23.2c0,.06.02.09.07.11.12.05.23.11.34.17.3.16.6.33.84.59.03.04.09.05.14.07Z"/><path class="cls-1" d="m155.69,15.63s0-.05-.02-.08c-.06-.16-.25-.33-.37-.44-.86-.82-2.08-1.21-3.25-1.22-.3,0,.03.28.11.35.23.18.58.34.88.34.54,0,.97.14,1.28.44l.05.29c-.17-.1-.35-.18-.47-.22-.38-.1-.69.04-.97.26-.23.19-.4.28-.58.51-.1.12-.21.25-.33.35-.18.16-.52.23-.82.16-.18-.22-.33-.46-.45-.72-.17,0-.29-.12-.29-.25,0-.06.01-.1.03-.14-.14.06-.39.21-.42.23-.06.04-.47.27-.44.35.1.31.25.61.43.89.06.09.12.17.18.25.02-.06.04-.11.06-.17.04,0,.07.01.11.01.01.11.03.22.05.39.13.13.27.25.43.36.19.16.42.29.69.37.23.07.46.05.69.02.41-.05.79.07,1.14.26.06.03.1.07.04.13-.14.12-.63.43-.79.53-.16.09-.32.07-.48-.04-.1-.07-.2-.13-.29-.2-.07-.05-.12-.07-.19,0-.04.04-.09.07-.13.1-.15.12-.3.24-.46.37.03.01.04.03.06.04.35.13.7.26,1.08.31.15.02.29-.01.41-.09.33-.21.96-.67,1.24-.95.12-.12.11-.28,0-.4-.03-.04-.07-.06-.12-.09-.2-.14-.4-.27-.61-.41-.07-.05-.08-.09-.02-.16.06-.07.11-.16.14-.24.05-.15.09-.3.11-.45.04-.27.21-.47.45-.54.08-.02.14-.02.18.07.07.18.15.35.2.54.06.22,0,.42-.16.58l.54.61c.06,0,.09-.02.11-.07.06-.11.11-.23.17-.34.16-.3.33-.6.58-.84.04-.04.05-.09.07-.14.03-.09.06-.19.09-.28.06-.22.1-.39.06-.62Zm-3.61,3.47q.08-.21.26-.12c-.09.04-.17.08-.26.12Zm2.03-3.09c.12.04.21.07.31.11-.12.01-.24.12-.31-.11Zm.81-.87c.18,0,.31-.03.29.18-.09-.06-.18-.11-.29-.18Zm.44.49c.03.08.06.15.12.29-.24-.08-.29-.15-.12-.29Z"/><path class="cls-1" d="m137.47,34.75c-.22-.35-.5-.61-.82-.84-.19-.16-.42-.29-.69-.37-.23-.07-.45-.05-.68-.02-.41.05-.79-.06-1.15-.26-.05-.03-.1-.07-.03-.13.14-.11.63-.43.79-.52s.32-.08.48.04c.09.07.2.13.29.2.07.05.12.07.19,0,.04-.04.09-.07.13-.1.15-.12.3-.24.46-.37-.03-.02-.04-.03-.05-.04-.35-.13-.7-.26-1.08-.31-.15-.02-.29.01-.41.09-.33.21-.97.67-1.24.95-.12.12-.11.28,0,.4.03.04.08.06.12.09.2.14.4.27.61.41.07.05.08.08.03.16-.06.07-.12.16-.15.25-.05.15-.09.3-.11.45-.05.27-.22.47-.45.54-.08.02-.14.01-.17-.08-.07-.18-.15-.35-.2-.53-.06-.22,0-.42.16-.58l-.54-.61c-.06,0-.09.02-.12.07-.05.12-.11.23-.17.35-.16.3-.33.6-.59.84-.04.03-.05.09-.07.14-.03.09-.06.19-.09.28-.06.2-.1.41-.06.63.03.2.24.39.38.52.86.82,2.08,1.21,3.25,1.22.31,0-.03-.28-.11-.35-.23-.18-.59-.34-.88-.34-.54,0-.97-.14-1.28-.44l-.05-.29c.17.1.35.18.47.22.37.1.69-.04.97-.27.24-.19.4-.28.59-.51.1-.13.21-.25.33-.35.19-.16.52-.22.82-.16.04.06.08.11.12.17,0,0,0-.02.01-.02.06.03.13.06.19.09-.02.04-.04.07-.07.11-.01,0-.02-.01-.03-.02.16.25.29.52.39.82.02.05.47-.23.51-.25.06-.04.47-.27.44-.36-.11-.31-.26-.61-.43-.89Zm-.18.05s-.06-.08-.06-.12c0-.01.06-.06.08-.05.03.02.06.06.09.09-.03.02-.05.04-.1.08Z"/></g><g><path class="cls-1" d="m144.2,19.57c.08-.12-.54-1.29-.94-.89l-.03.84c-.96,0-1.09,1.32-.26,1.68v.42c-.76.16-1.37-.02-2.12-.02v.34c-.17-.3-.56-.37-.74-.62-2.03-.68-3.2-.67-3.62.41,0,.05.01.09.02.14,0,.29-.05.55-.18.8,0,.01,0,.02-.01.03-.02.38,0,.82.06,1.34.04.49-.05,1.12,0,1.7.06.17.09.35.1.53.05.17.12.33.22.47.83,1.38,1.52-.58,3.73.58.24.08.48.16.72.23.17-.15.49-.18.49.11.43.08.88.08,1.34.07.13,1.57-.31,2.51.26,3.3.13-.05.28-.1.45-.16.08.14.15.28.23.42-.31.17-.65.24-.93.43.02.27-.12.64.36.64.29,0,1.23-.17,1.23-.46,0-.61,0-1.47,0-2.46,0-.03-.02-.05-.03-.08-.03-.18-.05-.37-.08-.55,0-.22.03-.42.1-.62,0-1.27,0-2.64,0-3.89-.02-.16-.04-.31-.06-.47,0-.17.02-.34.06-.5,0-.82,0-1.56,0-2.12h0s0-.07,0-.16c.76-.46.32-1.22-.35-1.51Zm-3.02,2.55c-.1.08-.19.16-.29.24.01-.17.07-.28.29-.24Zm-1.85,4.38v-.33h.08c0,.11.01.22.02.33-.03,0-.06,0-.1,0Zm3.63-2.66v2.41c-.15.03-.3.05-.45.07h0c-.32.03-.63.03-.93,0,0,0-.01,0-.01,0-.42-.04-.83-.13-1.24-.26,0,0-.01,0-.02,0-.14-.04-.28-.09-.42-.14-.07-.02-.13-.04-.2-.07-.25-.09-.51-.18-.78-.24-.07-.01-.13-.03-.2-.04-.13-.03-.26-.04-.4-.06-.07,0-.13,0-.2,0-.05,0-.1,0-.16,0-.11,0-.23.02-.34.04-.05.01-.11.02-.16.04v-.49s-.02.02-.04.03c-.03-.1-.06-.18-.09-.25h-.01,0s0,0,0-.01c-.07-.01-.15-.03-.22-.04,0-.02,0-.04-.01-.07.07-.02.13-.04.2-.06.01.06.02.11.03.17,0,0,0,0,.01,0,0,0,0,0,0,.01h.13c.02-.27.02-.53,0-.78-.02-.4-.06-.77,0-1.06,0,0,0,0,0-.01.03-.19.11-.35.26-.47.17-.14.43-.23.83-.25h.02c.08,0,.16,0,.25,0h.02c.04-.06.11-.11.21-.14,0,.07-.02.12-.04.16.37.05.75.14,1.13.26.02,0,.04.01.06.02.51.15,1.02.33,1.54.43.06.01.13.03.19.03.35.06.7.09,1.05.06v.34c.07,0,.15.11.27.2-.12.07-.19.14-.27.18Zm.45,6.12c-.09-.14-.14-.18,0-.27.09.11.13.14,0,.27Zm.25,0c.16,0,.25-.02.33,0,.51.31-.41.55-.33,0Zm.53-3.53h-.08c.02-.11-.2-.24.08-.37v.37Z"/><path class="cls-1" d="m150.07,28.51c-.04-.53.17-1.06-.46-1.53-.41-.31-.32-1.17-.42-1.62-.08-.35-.17-.7-.25-1.06-.03.02-.09.02-.11,0-.11-.09-.09-.18.04-.28-.1-.39-.21-.77-.33-1.15-.02-.08-.05-.16-.11-.21-.06-.04-.13-.05-.19-.06-.51-.06-1.02-.09-1.52-.1-.17,0-.33,0-.5,0-.04.03-.08.06-.13.1,0-.04,0-.07.01-.1-.23.02-.46.06-.68.13-.13.05-.26.11-.33.24-.03.08-.04.17-.04.25-.01.56-.03,1.11-.05,1.67-.02.69-.03,1.4.23,2.04.31.74.97,1.29,1.69,1.66.29-1.02.72-2,1.29-2.89.02-.03.04-.05.07-.06.03,0,.05.02.07.03.16.14.32.29.47.44.02,0,.04-.01.06-.02.01.03.02.07.03.1,0,0,0,0,0,0,.04.15.08.3.13.44.03.1.06.21.09.31.03.13-.04.22-.16.24-.02,0-.04,0-.06,0,.02.08.04.17.07.25.18.54.42,1.09.28,1.64-.05.22-.17.41-.31.59.02-.14,0-.29-.09-.4-.34-.43-.72-.15-.75.31-.03.36.08.72.13,1.07-.07.3-.15.6-.19.9-.01.12-.02.24.02.35.14.36.58.1.72-.13.27-.45-.21-1.33.44-1.62.22-.1.39-.23.52-.37-.03-.18-.05-.32-.07-.46,0-.06.02-.16.05-.17.23-.07.25-.28.33-.45.01,0,.02.01.03.03,0-.05,0-.09,0-.14Zm-3.92-4.39c-.06-.04-.11-.09-.17-.13l.03-.03.17.12s-.02.03-.03.04Zm.4,2.72c-.07-.01-.13-.1-.26-.19.12-.08.18-.14.24-.15.11-.02.18.05.19.17,0,.13-.07.19-.18.17Zm.38.41v-.45c.13.19.14.3,0,.45Zm.4-.27c-.07-.04-.13-.09-.24-.15.18-.11.27-.1.31.01.01.03-.05.09-.08.14Zm.99,2.73c.11.08.22.15.33.22-.26.09-.28.08-.33-.22Z"/><path class="cls-1" d="m145.1,21.89v.23c.06.08.16.17.23.18.58.03,1.16.02,1.73.02,0,0,.7.03,1.02-.05.12-.03.2-.16.29-.29v-.2c-.13-.06-.26-.13-.39-.13-.88-.02-1.75-.02-2.63.02-.09,0-.19.12-.26.24Z"/><path class="cls-1" d="m145.74,20.78c-.09,0-.18.16-.27.3v.16c.12.08.24.17.37.19.28.04.58,0,.87,0,.29,0,.58.02.87,0,.15-.01.3-.06.44-.1v-.16c-.12-.17-.24-.38-.37-.39-.26-.03-.51-.04-.77-.04.01.02.02.03.02.05,0,.05-.07.09-.12.16-.05-.06-.13-.12-.12-.14.01-.03.03-.05.05-.07-.32,0-.65.01-.97.03Z"/></g><path class="cls-1" d="m169.19,24.26c-.06-.23-.1-.46-.1-.7,0,.04-.01.07-.02.12-.16-.26-.24-.39-.33-.54.21-.04.31-.06.36,0,0-.03,0-.06,0-.09-.25-2.63-.88-5.18-1.89-7.46-.39.02-.59-.48-.33-.75-2.75-5.91-7.68-10.52-13.57-12.96.03.22-.02.44-.03.7-1.5-1.44-3.56-2.08-5.75-2.37-.78,0-1.57-.02-2.35-.07-.22-.01-.43-.06-.62-.13-.86-.01-1.72,0-2.53,0-.02.08-.04.14-.06.2-.82-.28-2.41-.17-3.01.53-.03-.01-.06-.03-.08-.04.03-.1.03-.21.09-.28-.57.11-1.14.24-1.71.4-.7.29-1.22.51-1.75.73.03-.08.06-.15.09-.23-.68.24-1.38.5-2.04.81.03.05.07.09.11.14-.13.02-.22-.01-.29-.06-1.5.68-2.88,1.47-4.15,2.35.03.05-.03.09-.06.15-.02-.03-.04-.05-.06-.07-.31.22-.61.44-.91.67-.05.09-.1.18-.16.26.04.01.08.03.12.05-.01.03-.03.06-.04.09-.04-.02-.09-.05-.13-.07-.23.29-.54.51-.94.62-.48.42-.95.85-1.38,1.29,0,.01.02.03.03.04-.05,0-.08.03-.11.05,0,0,0-.01.02-.02-.07.02-.13.04-.18.06,0,0,0,.02,0,.03,0,0,0,0-.01,0,0,.02.02.05.03.07.03.08.06.19.12.36-.15-.09-.23-.14-.3-.18-.61.65-1.18,1.32-1.7,2.02.18.16.19.2.01.42-.08-.12-.15-.18-.15-.24-.83,1.11-1.56,2.28-2.19,3.5.07.08.13.15.2.22-.03.03-.06.06-.09.08-.06-.06-.11-.13-.16-.19-.13.24-.24.49-.36.73.06.05.13.1.2.16-.05.2-.1.4-.16.67-1.13.22-1.39,3.27-1.83,4.33.04.05.08.11.11.16-.04,0-.09,0-.15,0-.26,1.53-.76,3.18-.51,4.7-.04.07-.08.13-.13.19.03,1.72-.15,3.66.45,5.27-.05.03-.09.04-.12.06.13.83.31,1.65.52,2.47.22.29.36.64.41,1.01.02,0,.04,0,.06,0,.45,3.03,2.34,5.83,4.17,8.35.09-.02.18-.03.28-.03.12.2.56.48.27.7,1.79,2.14,4.17,4.12,6.85,5.64.33.11.66.25.97.42.15.08.28.19.4.31,1.3.64,2.65,1.18,4.02,1.58.21-.16.39-.18.63-.13,1.06,1.08,7,1.66,7.97.75.03.21.09.25.14.37,1.98-.13,3.91-.5,5.77-1.08.3-.14.61-.25.93-.35.91-.57,1.85-1.06,2.88-1.18.59-.29,1.17-.6,1.73-.94-.01,0-.02-.01-.03-.02.1-.09.1-.14.17-.07.31-.19.61-.38.91-.58.11-.36.12-.78.43-.29.93-.64,1.81-1.34,2.65-2.09-.15-.05-.23-.16-.24-.35.21-.08.37-.05.51.1,2.03-1.89,3.78-4.11,5.12-6.59-.29-.5,0-.46.31-.68,0,.03,0,.07,0,.1.03-.06.06-.12.09-.18h0s0-.07,0-.1c.01,0,.03,0,.05,0,1.95-3.76,2.81-8.41,2.57-12.94Zm-50.65-1.24c.1-.03.19-.07.28-.11.01.03.03.06.04.1-.12.03-.26.19-.32.01Zm.38.99s-.1-.03-.15-.04c.02-.13.1-.06.18-.04,0,.03-.02.05-.03.08Zm49.26-3.69s-.04.04-.07.06c-.09-.1-.17-.19-.26-.29.17.01.26.1.33.22Zm-3.35-8.45s.05,0,.07,0c0,.07,0,.15.01.22-.03,0-.06,0-.09,0v-.22Zm-7.96-7.67c.06.02.12.03.18.05,0,.03,0,.06-.01.09h-.17s0-.09,0-.13Zm-1.64-.88c.06,0,.12.08.18.13-.05.06-.1.12-.17.22-.19-.14-.22-.28,0-.35Zm-4.2-1.95c-.07-.08-.15-.16-.24-.26.22-.04.22.12.24.26Zm-1.07-.53s.06.06.08.09c-.1.06-.13.15-.22.01.06-.04.09-.08.14-.1Zm-.55.92c.2.12-.02.26-.15.05.08-.03.12-.06.15-.05Zm-4.61-1.09c.16.1.14.19.07.29-.18.06-.2-.19-.07-.29Zm-1.41.24q-.27.02-.38-.29c.3-.09.32-.08.38.29Zm-5.53.13v.38c-.42-.05-.4-.53,0-.38Zm-6.39,3.11s.08.1.11.16c-.13.1-.16.02-.26-.09.07-.03.13-.08.15-.06Zm-2.57,1.92c.07.02.14.04.2.06-.01.03-.03.07-.05.1-.06-.05-.24-.08-.16-.17Zm-9.16,12.39s.06,0,.1.01c0,.13.01.27.02.43-.07,0-.13-.01-.2-.02.03-.15.06-.29.08-.42Zm-.45.95c.12.07.1.1.03.23-.1-.1-.12-.13-.03-.23Zm2.89,18.73c-.14-.07-.33-.08-.2-.37.16.02.31.05.53.08-.14.13-.23.2-.32.29Zm.93,1.86c-.17-.09-.17-.16,0-.25v.25Zm3.92,4.7c-.16,0-.17-.09-.22-.22.07-.03.14-.05.24-.09-.01.13-.02.21-.03.31Zm4.64,3.42c-.06-.02-.17,0-.15-.09h.15s0,.06,0,.09Zm17.28,1.66c-.02-.45.21-.2.33.01-.1,0-.2,0-.33-.01Zm18.09-14.12c-.02-.07-.05-.14-.07-.21.02,0,.05,0,.07-.01.01.07.03.14.04.2-.01,0-.03.01-.04.02Zm.1-3.29c.02-.12.03-.24.05-.35-.06.43-.17.8-.4,1.13-.68,2.23-1.66,4.36-2.91,6.3-.05.17-.11.34-.19.51-.18.4-.49.73-.68,1.13-.16.35-.6.7-1,.87-2,2.34-4.48,4.24-7.38,5.48-.28.3-.67.5-1.08.6v.06c-.13.03-.27.06-.42.09,0-.03,0-.06,0-.1h-.03c-.16.1-.34.18-.53.23-.1.01-.2.03-.3.04-2.89,1.07-5.98,1.63-9.09,1.58h0c-.08.12-.22.18-.35.16-.2.07-.43.1-.69.1-.51,0-.93-.15-1.24-.4-3.61-.39-7.19-1.6-10.47-3.74-.01,0-.03,0-.04-.01-.1-.03-.42-.15-.59-.25-.14-.09-.36-.25-.47-.37-.05-.05-.09-.1-.13-.15-.08.02-.17.03-.26,0-.05.04-.11.08-.17.13-.1-.31-.38-.53-.38-.82-2.78-2.16-5.02-4.98-6.58-8.09-.26-.29-.42-.66-.49-1.05-.75-1.71-1.29-3.49-1.61-5.28-.24-.73-.4-1.48-.47-2.25-.03-.28.02-.54.12-.78-.1-1.89.01-3.79.35-5.65-.1-.35-.1-.7.02-1.03.11-.27.22-.49.35-.69.26-1.01.57-2.01.96-2.98.03-.19.08-.38.15-.56,0-.03,0-.06.01-.1,0,0,.02.01.03.02.06-.12.13-.24.21-.34,1.41-3.65,4.67-6.51,7.11-9.34.21-.11.41-.19.61-.09,1.58-1.16,3.23-2.09,4.93-2.82.63-.57,1.46-.95,2.25-1.03.22-.02.46-.03.71-.03,3.28-.92,6.7-1.1,10.16-.6.14-.02.28-.04.42-.06.03,0,.06,0,.09.01.03-.17,0-.2-.24-.31.27-.27.42.1.52.35.06,0,.13.02.19.03.23.07.44.17.64.26,2.91.63,5.7,1.77,8.21,3.36.2.08.41.16.61.26.28.14.53.31.79.48.51.32.93.7,1.22,1.13h.35c-.1.1-.19.12-.27.11,1.36,1.03,2.54,2.2,3.56,3.48.24.18.43.39.62.64.28.35.46.73.68,1.12.06.1.1.21.14.32,1.86,3.06,2.89,6.57,3.17,10.16.07.47.11.95.14,1.43,0,.18-.01.36-.06.53,0,1.97-.22,3.94-.64,5.86-.04.42-.13.85-.19,1.28Zm1.11-.77s.08.03.12.04c-.01.11-.03.22-.04.33-.1-.02-.19-.03-.37-.07.13-.14.2-.22.28-.31Zm-.09.86s-.03-.05-.04-.07c.08-.05.16-.1.24-.15.01.02.03.05.04.07-.08.05-.16.1-.24.15Zm0-13.04s0-.07,0-.1c.08-.02.15-.04.23-.06.13.23-.08.34-.22.16Z"/></g></g></g></svg>