<?xml version="1.0" encoding="UTF-8"?><svg id="Layer_2" xmlns="http://www.w3.org/2000/svg" viewBox="0 0 113.66 107.63"><defs><style>.cls-1{fill:#e6dac6;}</style></defs><g id="Layer_1-2"><g><g><path class="cls-1" d="m76.21,23.23s.05,0,.07,0c-.02-.01-.03-.03-.05-.04,0,.02-.01.03-.02.05Z"/><g><path class="cls-1" d="m64.28,6.32c-.58-.92-1.43-1.46-2.53-1.38-.53.03-1.03.18-1.47.42.04-.21.11-.41.21-.61.37-.69.94-.89,1.69-.72.25.05.56,0,.79-.11.08-.03.41-.2.16-.26-.95-.22-2.03-.13-2.89.37-.18.11-.35.23-.48.37-.15-.2-.33-.37-.56-.5-.77-.46-1.72-.4-2.56-.21-.08.02-.59.13-.53.28.05.16.51.06.6.04,1.07-.24,1.85.31,2.23,1.12-.4-.17-.84-.24-1.33-.18-.27.03-.52.08-.77.16h0c-.09.1-.15.17-.22.25-.06-.02-.13-.05-.2-.07-.55.27-1.01.68-1.36,1.23-.1.16.39.12.44.11.19-.02.56-.08.67-.26.33-.52.84-1.17,1.54-.99.46.13.85.43,1.16.8-.59.05-1.18.23-1.68.57-.47.32-.74.75-.88,1.24.05.05.09.12.09.21,0,.13-.07.2-.16.22-.03.35,0,.7.07,1.06.05.23,1.19-.01,1.14-.24-.27-1.21.15-2.85,1.67-2.64v.36s0,0-.01,0c-.06.02-.13.04-.18.08-.06.04-.1.1-.13.17-.1.2-.14.43-.13.66.01.23.09.45.22.63.06.08.15.16.24.22v1.61c0,.17,1.07.12,1.07-.17v-1.47c.05-.03.11-.06.16-.1.23-.19.37-.5.33-.8-.01-.1-.05-.18-.09-.27,0,.06-.04.13-.11.19-.16-.07-.3-.17-.26-.38.01-.06.06-.14.11-.16,0,0,.02,0,.03,0-.05-.05-.09-.09-.14-.14,0,0-.02-.02-.03-.03v-.37s.06-.05.08-.07c1.31.17,1.92,1.54,1.62,2.88-.02.09,1.06.08,1.14-.24.1-.43.12-.88.04-1.3-.03.01-.07.03-.1.05,0-.03-.02-.06-.03-.1.04,0,.07-.01.12-.02-.1-.42-.3-.82-.66-1.13-.57-.5-1.35-.61-2.08-.56.39-.52.89-.99,1.58-.73.55.21.95.64,1.26,1.13.17.27,1.21-.14,1.14-.24Zm-5.3-1.96s-.05-.04-.07-.06c.03-.04.07-.08.1-.12.02.02.05.03.07.05-.03.04-.06.09-.1.13Zm1.03,2.47c-.07,0-.14-.01-.22-.02,0-.03,0-.06,0-.09.05-.04.11-.08.22-.15v.26Z"/><path class="cls-1" d="m63.15,44.44c-.31.49-.71.92-1.26,1.13-.7.27-1.19-.2-1.58-.73.74.05,1.51-.06,2.08-.56.72-.64.83-1.6.63-2.5-.07-.33-1.16-.33-1.14-.24.3,1.34-.3,2.71-1.62,2.88-.02-.02-.05-.05-.08-.07v-.37s.02-.02.03-.03c.22-.19.42-.44.46-.74.04-.3-.1-.61-.33-.8-.05-.04-.1-.07-.16-.1v-1.47c0-.29-1.07-.34-1.07-.17v1.61c-.09.06-.17.13-.24.22-.14.18-.21.41-.22.63-.01.23.03.46.13.66.03.06.07.12.13.17.05.04.12.06.18.08,0,0,0,0,.01,0v.36c-1.53.21-1.95-1.43-1.67-2.64.05-.23-1.08-.47-1.14-.24-.23,1.02-.03,2.1.88,2.72.5.33,1.08.51,1.68.57-.31.36-.69.67-1.16.8-.7.19-1.21-.46-1.54-.99-.11-.18-.49-.24-.67-.26-.05,0-.54-.05-.44.11.58.92,1.47,1.45,2.55,1.57.49.05.93-.02,1.33-.19-.38.81-1.16,1.36-2.23,1.12-.09-.02-.55-.12-.6.04-.05.15.45.26.53.28.84.19,1.8.25,2.56-.21.23-.14.42-.31.56-.5.14.14.3.27.48.37.86.5,1.93.59,2.89.37.25-.06-.07-.22-.16-.26-.23-.1-.54-.16-.79-.11-.74.17-1.31-.03-1.69-.72-.11-.19-.17-.4-.21-.61.44.25.94.39,1.47.42,1.1.07,1.95-.47,2.53-1.38.07-.11-.97-.51-1.14-.24Zm-3.01.27q-.19-.15,0-.33v.33Z"/><path class="cls-1" d="m81.46,27.95c.06-.02.11-.05.14-.09-.02-.63-.17-1.25-.48-1.79-.11-.18-.23-.34-.37-.48.19-.15.37-.33.5-.56.46-.77.4-1.72.21-2.56-.02-.08-.13-.59-.28-.54-.16.05-.06.51-.04.6.24,1.07-.31,1.85-1.12,2.23.17-.4.24-.84.19-1.33-.07-.69-.32-1.29-.72-1.8-.19-.13-.35-.29-.47-.48-.12-.1-.25-.19-.38-.28-.16-.1-.12.39-.11.44.02.19.08.56.26.67.52.33,1.18.84.99,1.54-.13.47-.43.85-.79,1.16-.06-.6-.23-1.18-.57-1.68-.46-.68-1.18-.96-1.93-.97-.16.04-.34.06-.53.06-.03,0-.06,0-.09,0-.05,0-.11.01-.16.03-.2.05-.04.92.16,1.1,0-.02.02-.04.03-.05.23-.07.25-.28.33-.45.08.04.03.26.22.13.04-.03.16.07.26.12h0s.01,0,.01,0c0,0,0,0-.01,0-.04.06-.07.13-.11.2,1.07-.02,2.17.48,2,1.75h-.36s0-.01,0-.02c-.02-.06-.04-.13-.08-.18-.04-.06-.1-.1-.17-.13-.2-.11-.43-.15-.65-.13-.23.01-.45.08-.63.22-.08.07-.16.15-.22.24h-1.61c-.17,0-.12,1.07.17,1.07h1.47c.03.05.06.11.1.16.19.23.5.37.8.33.29-.04.54-.23.73-.46.01,0,.02-.02.03-.03h.37s.04.07.07.08c-.17,1.31-1.54,1.92-2.88,1.62-.09-.02-.08,1.06.24,1.14.11.03.22.05.34.06.03,0,.06,0,.09,0,.13,0,.24.01.36.03.64,0,1.26-.2,1.71-.72.5-.57.61-1.35.56-2.09.52.39.99.89.73,1.59-.21.55-.64.95-1.12,1.26-.27.17.14,1.2.24,1.14.12-.08.23-.16.34-.25.12-.16.26-.3.43-.42.43-.51.67-1.13.62-1.87-.03-.53-.18-1.03-.42-1.47.2.04.41.11.61.22.69.37.88.94.71,1.68-.05.25,0,.57.11.79.04.08.2.41.26.16.02-.08.03-.16.04-.23,0,0-.02.01-.03.02-.04-.27-.07-.45-.09-.64,0-.06.02-.16.05-.17Zm-.67-3.27c.07-.11.15-.22.28-.02-.1,0-.18.01-.28.02,0,0,0,0,0,.01h-.01s.02-.01.02-.01Z"/><path class="cls-1" d="m44.48,24.95h-1.61c-.06-.09-.13-.17-.22-.24-.18-.14-.41-.21-.63-.22-.22-.02-.46.02-.65.13-.06.03-.12.07-.17.13-.04.05-.06.12-.09.18,0,0,0,.01,0,.02h-.36s0-.03,0-.05c-.05-.02-.14-.05-.14-.05.02-.09.05-.18.08-.27.02,0,.03,0,.05.01.07-1.24,1.54-1.58,2.65-1.33.23.05.47-1.08.24-1.14-1.02-.23-2.1-.03-2.72.88-.34.5-.51,1.08-.57,1.68-.36-.31-.67-.69-.79-1.16-.19-.69.46-1.21.99-1.54.18-.12.24-.49.26-.67,0-.05.05-.54-.11-.44-.92.58-1.45,1.47-1.57,2.55-.05.49.02.93.19,1.33-.8-.38-1.36-1.16-1.12-2.23.02-.09.12-.55-.04-.6-.15-.05-.26.45-.28.54-.19.84-.25,1.8.21,2.56.14.23.31.42.5.56-.14.14-.27.29-.37.48-.17.29-.29.6-.37.93.03,0,.07,0,.09.02.03.02,0,.14,0,.29-.05-.04-.1-.07-.14-.1-.11.58-.09,1.18.04,1.75.06.25.22-.08.26-.16.1-.22.16-.54.11-.79-.17-.74.03-1.31.71-1.68.2-.11.4-.18.61-.22-.13.23-.22.48-.3.74.05.02.08.07.09.15-.05.03-.1.03-.13.02-.04.18-.07.37-.09.56-.07,1.1.47,1.95,1.38,2.53.11.07.51-.97.24-1.14-.24-.15-.46-.32-.65-.52-.01.03-.02.05-.04.09-.03-.03-.07-.05-.07-.07,0-.07,0-.1.03-.12-.16-.19-.3-.39-.39-.63-.27-.7.2-1.2.73-1.59-.03.45,0,.92.14,1.34.01-.02.05-.05.06-.05.03.01.07.05.09.08,0,0-.03.05-.09.12.08.21.2.41.36.59.64.72,1.6.83,2.5.63.33-.07.33-1.16.24-1.14-1.34.3-2.71-.31-2.88-1.62.03-.02.05-.05.07-.08h.37s.02.02.03.03c.19.22.44.42.73.46.3.04.61-.1.8-.33.04-.05.07-.1.1-.16h1.47c.29,0,.34-1.07.17-1.07Zm-5.43.84c.11-.07.2-.12.31-.18.05.06.1.12.17.21-.18-.01-.32-.02-.48-.03Zm4.53,2.04c.03.05.06.09.07.13,0,0-.05.05-.07.05-.03,0-.06-.04-.07-.07,0-.03.03-.05.07-.1Z"/></g><g><path class="cls-1" d="m49.32,11.08s-.03-.03-.04-.04c-.06-.05-.11-.1-.16-.16,0,0-.01,0-.02,0-.1-.05-.19-.14-.27-.2-.13-.1-.24-.17-.33-.29-.07-.08-.14-.16-.2-.24-.39-.31-.76-.54-1.12-.65-.5-.15-.99-.15-1.52-.15h-.06c-.2,0-.37,0-.52-.02-.17,0-.32-.02-.53-.02-.04,0-.07,0-.11,0-.04,0-.07,0-.11,0-.07,0-.14,0-.19.02-.18.05-.3.16-.42.29-.05.05-.12.13-.17.19.1.05.18.14.24.29,0,0,.01-.01.02-.02.02.02.04.05.05.07,0,.01-.02.04-.03.04.03.11.06.22.07.37-.16.07-.29.11-.42.12v.73c0,.54.05,1.13.3,1.69.21.47.52.84.93,1.24h.01s0,.02.01.03c.04.04.22.22.45.44.16.12.3.25.42.41.39.38.77.76.83.82.2.2.86-.64.74-.76-.14-.15-.68-.76-.82-.91-.5-.5-1.6-1.66-1.77-2.19-.15-.45-.16-.92-.17-1.32v-.47c0-.18,0-.32-.01-.44h.01s.52-.02.52-.02c.56,0,1.16.03,1.73.29.5.22.89.57,1.23.91l.71.62c.2.2.87-.55.75-.67Zm-.67.1s0-.05-.01-.08h.54s0,.05,0,.08h-.54Z"/><path class="cls-1" d="m43.45,40.89c0,.07,0,.14.02.19.05.18.16.3.29.42.06.06.16.15.23.2.01.01.03.02.03.02l.03.02h1.5c.54,0,1.13-.05,1.69-.3.47-.21.84-.52,1.24-.93h.01s0-.02.01-.03c.13-.13,1.54-1.57,1.67-1.7.2-.2-.64-.86-.76-.74-.15.14-.76.68-.91.82-.5.5-1.66,1.6-2.19,1.77-.45.15-.92.17-1.32.17h-.47c-.18,0-.32,0-.44.01h-.01s0-.27,0-.27c0,0-.02,0-.03,0v-.06s.03,0,.03,0v-.2c0-.56.03-1.16.29-1.73.22-.5.57-.89.91-1.23l.62-.71c.2-.2-.55-.87-.67-.75-.18.18-.09.09-.27.27-.65.68-1.14,1.3-1.32,1.89-.15.5-.15.99-.15,1.52v.06c0,.2,0,.37-.02.52,0,.17-.02.32-.02.53,0,.04,0,.07,0,.11,0,.04,0,.07,0,.11Zm4.1-.22c.16-.1.25-.17.35-.2.1-.03.21.14.19.25-.01.13-.1.21-.22.18-.1-.03-.18-.12-.33-.23Z"/><path class="cls-1" d="m75.86,9.83c-.05-.18-.16-.3-.29-.42-.06-.06-.16-.15-.23-.2-.01-.01-.03-.02-.03-.02l-.03-.02h-1.5c-.54,0-1.13.05-1.69.3-.47.21-.84.52-1.24.93v.02s-.02,0-.03.01c-.13.13-1.54,1.57-1.67,1.7-.2.2.64.86.76.74.15-.14.76-.68.91-.83.26-.26.69-.67,1.12-1.04-.04-.05-.07-.1-.12-.16.07-.07.12-.14.19-.21.05.06.11.11.17.17.32-.26.62-.46.82-.53.45-.15.92-.17,1.32-.17h.47c.18,0,.32,0,.44-.01h.01s0,.54,0,.54c0,.56-.03,1.16-.29,1.73-.22.5-.57.89-.91,1.23l-.62.71c-.2.2.55.87.67.75.18-.18.09-.09.27-.27.65-.68,1.14-1.3,1.32-1.89.15-.5.15-1,.15-1.52v-.06c0-.2,0-.37.02-.53,0-.16.02-.32.02-.53,0-.04,0-.07,0-.11,0-.04,0-.07,0-.11,0-.07,0-.14-.02-.19Zm-5.37,2.21s-.03-.03-.05-.05c.03-.03.04-.07.07-.1.03-.02.07-.03.1-.05.02.02.03.05.05.07-.06.04-.12.08-.17.13Zm.89-1.42c-.14-.03-.27-.07-.46-.11.22-.18.33,0,.47.02,0,.03-.01.06-.02.09Zm1.07-.33c-.12-.09-.21-.15-.32-.23.14-.04.23-.06.37-.1-.02.12-.03.19-.05.33Z"/><path class="cls-1" d="m70.3,40.01l-.14-.03.11.11c.68.65,1.3,1.14,1.89,1.32.5.15.99.15,1.52.15h.06c.2,0,.37,0,.52.02.17,0,.32.02.53.02.04,0,.07,0,.11,0,.04,0,.07,0,.11,0,.07,0,.14,0,.19-.02.18-.05.3-.16.42-.29.06-.06.15-.16.2-.23.01-.01.02-.03.02-.03l.02-.03v-1.5c0-.54-.05-1.13-.3-1.69-.11-.25-.26-.48-.43-.69-.29-.21-.26-.18-.48-.47-.08-.11-.14-.18-.19-.25-.2-.19-.55-.54-.87-.86-.13-.1-.24-.21-.34-.33-.17-.17-.31-.3-.34-.33-.2-.2-.86.64-.74.76.14.15.68.76.82.91.5.5,1.6,1.66,1.77,2.19.15.45.16.92.17,1.32v.47c0,.18,0,.32.01.44h-.01s-.52.02-.52.02c-.56,0-1.16-.03-1.73-.29-.5-.22-.89-.57-1.23-.91l-.71-.62c-.2-.2-.83.51-.75.66.11,0,.21.08.29.19Zm4.71,1.03c.11-.11.19-.2.28-.29.13.24.08.29-.28.29Z"/></g><g><path class="cls-1" d="m64.31,13.43s-.02-.57-.07-.56c-.24.05-.5.08-.75.09.02.06.02.12.02.22-.03,0-.05.01-.07.02-.03-.07-.06-.15-.1-.23-.02,0-.05,0-.07,0-.27,0-.55-.04-.81-.13-.24-.08-.47-.2-.7-.31-.35-.17-.72-.4-1.12-.48-.11-.02-.23-.03-.31.05-.11.12-.18.3-.27.43-.1.16-.2.33-.31.48-.03.05-.08.1-.1.16,0,0,0,.01,0,.02,0,0,0-.01,0-.02-.05-.13-.18-.27-.25-.39-.11-.17-.22-.33-.32-.51-.06-.1-.1-.22-.24-.24-.14-.02-.29.04-.42.09-.3.11-.58.26-.86.4.04.03.07.06.09.1,0,.02-.05.06-.09.11-.05-.07-.09-.11-.11-.16-.07.03-.14.07-.22.11-.16.07-.33.14-.5.18.05.07.1.13.16.19-.2,0-.27,0-.3-.15-.27.06-.55.08-.82.07-.05.03-.11.06-.16.09-.01-.02-.03-.05-.04-.07.02,0,.03-.02.05-.03-.18-.01-.36-.04-.53-.08-.04,0-.05.33-.05.48.04.04.09.08.13.12-.03.14-.09.29-.11.44,0,.05.02.08.05.08.29.06.59.09.89.09.22-.08.48-.14.76-.14.03,0,.06,0,.09,0,.18-.06.36-.13.55-.21.38-.18.76-.41,1.16-.54.11-.04.27-.09.38-.04.11.05.18.24.24.33,0,0,0,0,0,0-.03.08-.05.16-.08.24h0s-.09.28-.09.28c-.03.08,0,.18.08.22l.48.28c.06.03.13.03.19,0l.49-.28c.08-.05.12-.14.09-.22l-.12-.36s0,0,0,0c-.01-.05-.03-.09-.04-.13.03-.05.07-.11.11-.17.06-.11.1-.2.23-.22.14-.01.3.05.44.1.41.16.8.38,1.2.56.32.14.67.22,1.02.25.07-.06.14-.12.14-.11.22.2.32-.03.51-.18,0,.12,0,.2,0,.28.15-.01.3-.04.45-.07.09-.02.05-.5.05-.56Zm-2.74-.34c-.03-.06-.05-.12-.08-.18.02-.01.03-.02.05-.03.05.04.09.07.14.12-.03.03-.07.07-.11.1Z"/><path class="cls-1" d="m64.26,37.13c-.24-.05-.49-.09-.73-.09-.15.03-.31.05-.48.05-.06,0-.11,0-.17,0-.26.04-.51.12-.75.22-.4.18-.79.4-1.2.56-.13.05-.29.11-.44.1-.14-.01-.17-.11-.23-.22-.03-.05-.07-.11-.11-.17.01-.04.03-.09.04-.13,0,0,0,0,0,0l.12-.36c.03-.09,0-.18-.09-.22l-.49-.28c-.06-.03-.14-.03-.19,0l-.48.28c-.08.05-.11.14-.08.23l.09.27h0c.03.08.05.16.08.24,0,0,0,0,0,0-.06.1-.12.29-.24.33-.12.05-.27,0-.38-.04-.1-.03-.19-.07-.28-.11-.07,0-.15-.02-.22-.08-.02-.01-.03-.03-.05-.04-.21-.1-.41-.21-.62-.31-.28-.14-.56-.23-.85-.29-.07,0-.13,0-.2,0-.18,0-.35-.02-.5-.05-.25,0-.49.03-.73.08-.09.02-.07.49-.07.56,0,.04,0,.57.05.56.64-.14,1.3-.12,1.92.1.15.03.28.07.41.13-.07-.12-.14-.23-.21-.36.26.04.28.18.25.38.12.06.24.13.34.21.21.11.43.21.65.29.13.05.28.11.42.09.13-.02.18-.14.24-.24.1-.17.21-.34.32-.51.08-.12.2-.25.25-.39,0,0,0-.02,0-.02,0,0,0,.01,0,.02.02.05.07.11.1.15.1.16.21.32.31.48.08.14.16.32.27.44.08.08.2.07.31.05.39-.08.76-.31,1.12-.48.23-.11.46-.23.7-.31.26-.09.54-.12.81-.12.32,0,.66.02.97.1.05.01.07-.51.07-.56,0-.07.04-.54-.05-.56Zm-5.94,1.17c-.14.03-.33-.07-.46-.06.52-.34.74-.37.82-.16-.13.04-.22.19-.35.22Z"/><path class="cls-1" d="m73.12,26.23c-.12-.11-.3-.18-.44-.27-.16-.1-.32-.2-.48-.31-.05-.03-.1-.08-.15-.1-.01,0-.02,0-.02,0,0,0,.01,0,.02,0,.13-.05.27-.18.39-.25.17-.11.34-.22.51-.32.1-.06.2-.1.23-.21-.03-.12-.04-.24-.05-.36-.01-.03-.02-.06-.03-.08-.16-.41-.38-.79-.56-1.19-.31-.68-.36-1.43-.2-2.16.01-.05-.52-.05-.56-.05-.07,0-.54-.01-.56.07-.03.15-.05.3-.07.45.05.04.09.08.14.12-.08.32-.26.67.1.95-.04.09-.1.09-.16.08.06.23.15.46.26.69.18.38.4.76.54,1.17.03.11.09.27.04.38-.05.11-.24.18-.33.24,0,0,0,0,0,0-.08-.03-.16-.05-.24-.08h0s-.27-.09-.27-.09c-.09-.03-.18,0-.23.08l-.28.48c-.03.06-.03.13,0,.19l.28.49c.05.08.14.12.22.09l.36-.12s0,0,0,0c.04-.01.09-.03.13-.04.06.03.11.07.17.1.11.06.21.1.22.23.01.15-.05.3-.1.44-.16.41-.38.8-.56,1.2,0,.01-.01.03-.02.04-.03.27-.1.53-.21.77-.06.43-.03.88.06,1.31.02.09.5.05.56.05.05,0,.57-.02.56-.07-.07-.32-.1-.65-.09-.97,0-.27.04-.55.12-.81.08-.24.2-.47.31-.7,0,0,0,0,0,0,.07-.2.16-.4.29-.57.08-.18.15-.36.19-.54.02-.1.03-.22-.05-.31Zm-1.14-2.14c0-.07-.02-.14-.03-.21.02,0,.03,0,.05-.01.02.07.04.14.06.21-.03,0-.05.01-.08.02Z"/><path class="cls-1" d="m48.65,25.45l-.28-.48c-.05-.08-.14-.11-.23-.08l-.27.09h0c-.08.02-.16.05-.24.08,0,0,0,0,0,0-.1-.06-.29-.12-.33-.24-.05-.11,0-.27.03-.38.13-.41.35-.78.54-1.17.2-.43.33-.84.35-1.31,0-.33-.02-.66-.09-.97-.02-.09-.49-.07-.56-.07-.04,0-.57,0-.56.05.16.73.12,1.48-.2,2.16-.18.4-.41.78-.56,1.19,0,.01,0,.03-.01.04.03.03.04.06.04.09,0,.04-.04.08-.11.12-.01.06-.02.12,0,.17.02.13.13.18.24.24.17.1.34.21.5.32.12.08.25.2.39.25,0,0,.01,0,.02,0,0,0-.01,0-.02,0-.05.02-.11.07-.16.1-.16.1-.32.21-.48.31-.14.08-.32.16-.43.27-.09.08-.07.2-.05.31.08.39.3.76.48,1.12.01.03.03.06.04.08.08-.01.16-.01.21.02.18.13.34.29.52.46-.17.08-.3.15-.45.22,0,0,0,0-.01,0,0,0,.01,0,.02.01h0s.07.07.1.08c.09.04.2.06.16.2-.03.1-.09.17-.18.19,0,.08.02.16.02.25,0,.33-.02.66-.1.97-.01.05.51.07.56.07.06,0,.54.04.56-.05.1-.46.13-.93.05-1.39h0v-.02c-.04-.25-.11-.48-.22-.71-.18-.4-.4-.79-.56-1.2-.05-.13-.12-.29-.1-.44.01-.14.11-.17.22-.23.05-.03.11-.07.17-.1.04.01.09.03.13.04,0,0,0,0,0,0l.36.12c.09.03.18,0,.23-.09l.28-.49c.03-.06.03-.14,0-.19Zm-1.41-1.87s.06-.07.1-.08c.01,0,.05.03.1.05-.04.05-.07.1-.1.1-.02,0-.06-.05-.09-.07Z"/></g><g><path class="cls-1" d="m53.35,16.7c-.21-.33-.66-.95-.94-1.22-.12-.12-.28-.11-.4,0-.04.03-.07.07-.1.11-.13.2-.27.4-.4.6-.05.07-.08.08-.15.03-.07-.06-.16-.12-.24-.14-.14-.05-.29-.09-.44-.11-.26-.04-.47-.21-.53-.45-.02-.08-.01-.14.07-.17.17-.06.35-.15.53-.19.21-.06.42,0,.58.16l.6-.53c0-.06-.02-.09-.07-.11-.12-.06-.23-.11-.34-.17-.3-.16-.59-.33-.83-.58-.03-.04-.09-.05-.14-.07-.09-.03-.19-.06-.28-.09-.1-.03-.2-.06-.3-.08-.1-.01-.21,0-.31.01-.03,0-.05,0-.08.02-.08.02-.15.09-.21.15-.08.07-.16.14-.24.22-.81.85-1.2,2.06-1.21,3.22,0,.3.28-.03.34-.11.18-.23.34-.58.34-.88,0-.53.14-.96.44-1.27l.29-.05c-.1.17-.18.34-.22.47-.1.37.04.68.26.96.19.23.28.39.51.58.12.1.24.21.35.33.16.18.22.52.16.81-.33.27-.71.47-1.12.61-.05.01.23.47.25.51.04.06.27.47.35.44.3-.1.6-.25.87-.42-.06-.04-.11-.08-.17-.12.04-.15.07-.29.11-.43.31,0,.4.05.45.26.17-.16.32-.33.47-.52.16-.19.28-.42.36-.68.07-.23.05-.45.02-.68-.05-.41.07-.78.26-1.13.03-.06.07-.1.13-.04.11.14.43.63.52.78.09.16.08.32-.04.47-.07.1-.13.2-.2.29-.05.07-.07.12,0,.19.04.03.07.09.1.13.12.15.24.3.36.46.02-.03.03-.04.04-.06.12-.35.26-.7.3-1.07.02-.15-.01-.28-.09-.41Zm-3.68-2.91c.1.05.19.09.33.15-.33.12-.33.12-.33-.15Zm.44,2.02s-.04-.04-.08-.07c.05-.02.09-.04.11-.03.03,0,.04.05.06.07-.03.01-.06.03-.08.03Z"/><path class="cls-1" d="m68.79,37.17c.09.03.19.06.28.09.11.03.21.07.32.08.1.02.29.01.39-.04.02,0,.04-.02.06-.03.14-.1.26-.21.38-.33.81-.85,1.2-2.06,1.21-3.22,0-.3-.28.03-.34.11-.18.23-.34.58-.34.88,0,.53-.14.96-.44,1.27l-.29.05c.1-.17.18-.34.22-.47.1-.37-.04-.68-.26-.96-.19-.23-.28-.39-.5-.58-.12-.1-.24-.21-.35-.33-.16-.18-.22-.52-.16-.81.33-.27.71-.47,1.12-.61.05-.02-.23-.47-.25-.51-.04-.06-.27-.47-.35-.44-.31.1-.61.25-.88.43-.34.22-.6.49-.84.81-.16.19-.28.42-.36.68-.07.22-.05.45-.02.68.05.41-.07.78-.26,1.14-.03.05-.07.1-.13.04-.11-.14-.43-.62-.52-.78-.09-.15-.07-.32.04-.47.07-.09.13-.2.2-.29.05-.07.07-.12,0-.19-.04-.04-.07-.09-.1-.13-.12-.15-.24-.3-.36-.46-.02.02-.03.04-.04.05-.13.35-.26.7-.3,1.07-.02.15.01.28.09.41.08.13.2.3.33.47.05,0,.1,0,.14,0,0,0,.01.06.01.06-.03,0-.06.02-.1.02.19.26.4.52.55.67.12.12.27.11.4,0,.04-.03.06-.07.09-.11.14-.2.27-.4.41-.6.05-.07.08-.08.15-.02.07.06.15.11.24.14.14.05.29.09.44.11.26.04.47.21.53.45.02.08.01.14-.07.18-.18.06-.35.15-.53.19-.21.06-.42,0-.58-.16l-.25.22s-.04.08-.09.12c0,0-.02,0-.03,0l-.23.2c0,.06.02.09.07.11.11.05.23.11.34.17.3.16.6.33.83.58.03.04.09.05.14.07Z"/><path class="cls-1" d="m71.48,15.49s0-.05-.02-.08c-.06-.16-.24-.33-.36-.44-.85-.81-2.06-1.2-3.22-1.21-.3,0,.03.28.11.34.23.18.58.34.88.34.53,0,.96.14,1.27.44l.05.29c-.17-.1-.34-.18-.47-.21-.37-.1-.68.04-.96.26-.23.19-.39.28-.58.51-.1.12-.21.24-.33.35-.18.16-.52.23-.81.16-.17-.22-.32-.46-.44-.72-.17,0-.29-.12-.29-.24,0-.06.01-.1.03-.14-.14.06-.39.21-.42.23-.06.04-.47.27-.44.35.1.31.25.61.43.88.06.09.12.17.18.25.02-.06.04-.11.05-.17.04,0,.07.01.11.01.01.11.03.22.05.38.13.13.27.24.42.35.19.16.42.29.68.37.23.07.45.05.68.02.41-.05.78.07,1.13.26.06.03.1.07.04.13-.14.12-.63.43-.78.52-.16.09-.32.07-.47-.04-.1-.07-.2-.13-.29-.2-.07-.05-.12-.06-.19,0-.03.04-.09.07-.13.1-.15.12-.3.24-.46.37.03.01.04.03.06.04.35.13.7.26,1.07.31.15.02.28-.01.41-.09.33-.21.95-.67,1.22-.94.12-.12.11-.27,0-.4-.03-.03-.07-.06-.11-.09-.2-.14-.4-.27-.6-.4-.07-.05-.08-.09-.02-.16.06-.07.11-.15.14-.24.05-.14.09-.29.11-.44.04-.26.21-.47.45-.53.08-.02.14-.02.17.07.06.18.15.35.19.53.06.21,0,.41-.16.57l.53.6c.06,0,.09-.02.11-.07.06-.11.11-.23.17-.34.16-.3.33-.6.58-.83.04-.04.05-.09.07-.14.03-.09.06-.19.09-.28.06-.21.1-.39.06-.62Zm-3.58,3.44q.08-.21.26-.12c-.09.04-.17.08-.26.12Zm2.01-3.06c.12.04.21.07.31.11-.12.01-.24.11-.31-.11Zm.81-.86c.18,0,.3-.03.29.18-.09-.06-.18-.11-.29-.18Zm.43.49c.03.08.06.15.12.28-.23-.08-.29-.15-.12-.28Z"/><path class="cls-1" d="m53.42,34.44c-.22-.34-.49-.6-.81-.83-.19-.16-.42-.28-.68-.36-.22-.07-.45-.05-.68-.02-.41.05-.78-.06-1.14-.26-.05-.03-.1-.07-.03-.13.14-.11.63-.43.78-.52s.32-.08.47.04c.09.07.2.13.29.2.07.05.12.07.18,0,.04-.04.09-.07.13-.1.15-.12.3-.24.46-.36-.03-.02-.04-.03-.05-.04-.35-.13-.7-.26-1.07-.31-.15-.02-.28.01-.41.09-.33.21-.96.66-1.22.94-.12.12-.11.28,0,.4.03.03.08.06.11.09.2.13.4.27.6.4.07.05.08.08.03.15-.06.07-.11.16-.14.24-.05.14-.09.29-.11.44-.05.26-.21.47-.45.53-.08.02-.14.01-.17-.07-.07-.17-.15-.35-.2-.53-.06-.21,0-.42.16-.58l-.53-.6c-.06,0-.09.02-.12.07-.05.12-.11.23-.17.34-.16.3-.33.6-.58.83-.03.03-.05.09-.07.14-.03.09-.06.19-.09.28-.06.2-.1.41-.06.62.03.2.24.38.38.51.85.81,2.06,1.2,3.22,1.21.3,0-.03-.28-.11-.34-.23-.18-.58-.34-.88-.34-.53,0-.96-.14-1.27-.44l-.05-.29c.17.1.34.18.47.22.37.1.68-.04.96-.26.23-.19.39-.28.58-.5.1-.13.21-.25.33-.35.19-.16.52-.22.81-.16.04.05.08.11.12.16,0,0,0-.02.01-.02.06.03.12.06.19.09-.02.04-.04.07-.06.11-.01,0-.02-.01-.03-.02.16.25.29.52.39.81.02.05.47-.23.51-.25.06-.04.47-.27.44-.35-.1-.31-.25-.61-.43-.88Zm-.18.05s-.06-.08-.06-.11c0-.01.06-.06.07-.05.03.02.06.06.09.09-.03.02-.05.04-.1.07Z"/></g><g><path class="cls-1" d="m60.09,19.39c.08-.12-.54-1.28-.93-.88l-.03.83c-.95,0-1.08,1.31-.26,1.66v.42c-.75.16-1.36-.02-2.1-.02v.34c-.17-.3-.56-.36-.74-.61-2.02-.68-3.17-.67-3.59.41,0,.05.01.09.02.14,0,.28-.05.55-.18.79,0,.01,0,.02-.01.03-.02.38,0,.82.06,1.33.04.48-.05,1.11,0,1.68.05.17.09.35.1.52.05.17.12.33.22.47.82,1.37,1.51-.58,3.7.57.23.08.47.16.72.23.17-.15.49-.18.48.11.43.08.88.08,1.32.07.13,1.55-.3,2.49.26,3.28.13-.05.27-.1.44-.16.07.14.15.27.23.42-.3.17-.65.24-.93.43.02.27-.12.63.35.63.29,0,1.22-.17,1.22-.45,0-.6,0-1.46,0-2.44,0-.03-.02-.05-.03-.07-.03-.18-.05-.36-.07-.55,0-.21.03-.42.1-.61,0-1.26,0-2.62,0-3.86-.02-.16-.04-.31-.06-.46,0-.17.02-.33.06-.49,0-.82,0-1.54,0-2.1h0s0-.07,0-.16c.75-.46.32-1.21-.34-1.5Zm-2.99,2.53c-.1.08-.19.16-.29.24.01-.17.07-.28.29-.24Zm-1.83,4.34v-.32h.08c0,.11.01.22.02.33-.03,0-.06,0-.1,0Zm3.6-2.64v2.39c-.15.03-.3.05-.45.07h0c-.31.03-.62.03-.93,0,0,0-.01,0-.01,0-.42-.04-.82-.13-1.23-.25,0,0-.01,0-.02,0-.14-.04-.28-.09-.41-.14-.07-.02-.13-.04-.2-.07-.25-.09-.5-.18-.77-.24-.07-.01-.13-.03-.2-.04-.13-.03-.26-.04-.39-.05-.07,0-.13,0-.2,0-.05,0-.1,0-.16,0-.11,0-.22.02-.33.04-.05.01-.11.02-.16.04v-.49s-.02.02-.04.03c-.03-.1-.06-.18-.09-.25h-.01,0s0,0,0-.01c-.07-.01-.14-.03-.22-.04,0-.02,0-.04-.01-.07.07-.02.13-.04.2-.06.01.05.02.11.03.17,0,0,0,0,.01,0,0,0,0,0,0,.01h.12c.02-.27.02-.52,0-.77-.02-.39-.06-.76,0-1.05,0,0,0,0,0-.01.03-.19.11-.35.26-.47.17-.14.43-.23.82-.25h.02c.08,0,.16,0,.25,0h.02c.04-.06.11-.11.21-.14,0,.07-.02.12-.04.16.37.05.74.14,1.12.25.02,0,.04.01.06.02.5.15,1.01.32,1.52.43.06.01.13.03.19.03.35.06.69.09,1.04.05v.34c.07,0,.15.11.27.2-.12.07-.19.14-.27.18Zm.45,6.07c-.09-.14-.14-.18,0-.27.09.11.13.14,0,.27Zm.25,0c.16,0,.25-.02.32,0,.5.31-.4.54-.32,0Zm.52-3.5h-.08c.02-.11-.2-.24.08-.37v.37Z"/><path class="cls-1" d="m65.91,28.25c-.04-.52.17-1.05-.45-1.52-.41-.31-.31-1.16-.41-1.61-.08-.35-.16-.7-.25-1.05-.03.02-.09.02-.11,0-.11-.09-.09-.18.04-.28-.1-.38-.21-.76-.32-1.14-.02-.08-.05-.16-.11-.21-.05-.04-.13-.05-.19-.06-.5-.05-1.01-.09-1.51-.1-.17,0-.33,0-.5,0-.04.03-.08.06-.13.1,0-.04,0-.07.01-.1-.23.02-.46.05-.67.13-.13.05-.26.11-.32.24-.03.07-.04.16-.04.25-.01.55-.03,1.1-.05,1.65-.02.68-.03,1.39.23,2.02.31.74.96,1.28,1.67,1.65.28-1.01.71-1.98,1.27-2.87.02-.03.04-.05.07-.06.03,0,.05.02.07.03.16.14.31.28.46.43.02,0,.04-.01.05-.02.01.03.02.07.03.1,0,0,0,0,0,0,.04.15.08.29.13.44.03.1.06.21.09.31.03.13-.04.21-.16.24-.02,0-.04,0-.06,0,.02.08.04.16.07.25.18.53.42,1.08.28,1.62-.05.22-.16.41-.31.58.02-.14,0-.28-.09-.4-.34-.42-.72-.14-.75.31-.03.36.08.71.13,1.06-.07.29-.14.59-.18.89-.01.12-.02.24.02.35.14.35.58.1.71-.12.27-.45-.2-1.32.43-1.61.22-.1.39-.22.52-.37-.03-.18-.05-.32-.07-.46,0-.05.02-.16.05-.17.22-.07.25-.28.32-.45.01,0,.02.01.03.03,0-.05,0-.09,0-.14Zm-3.89-4.35c-.05-.04-.11-.09-.16-.13l.03-.03.16.12s-.02.03-.03.04Zm.39,2.7c-.07-.01-.13-.1-.25-.19.12-.07.18-.14.24-.15.11-.02.18.05.19.16,0,.12-.07.19-.18.17Zm.37.4v-.45c.13.19.14.29,0,.45Zm.4-.27c-.07-.04-.13-.09-.24-.15.18-.11.27-.1.31.01.01.03-.05.09-.07.14Zm.99,2.71c.11.07.21.15.32.22-.26.09-.28.08-.32-.22Z"/><path class="cls-1" d="m60.99,21.69v.23c.06.08.16.17.22.18.57.03,1.15.01,1.72.01,0,0,.69.03,1.02-.05.11-.03.2-.16.29-.29v-.2c-.13-.06-.25-.13-.38-.13-.87-.02-1.74-.02-2.61.01-.08,0-.19.12-.26.24Z"/><path class="cls-1" d="m61.62,20.59c-.09,0-.18.16-.27.3v.16c.12.08.24.17.37.19.28.04.57,0,.86,0,.29,0,.57.02.86,0,.15-.01.29-.06.44-.1v-.15c-.12-.17-.24-.37-.37-.39-.25-.03-.51-.04-.77-.04.01.02.02.03.02.05,0,.05-.06.09-.11.16-.05-.06-.13-.12-.12-.14.01-.03.03-.05.05-.07-.32,0-.64.01-.96.03Z"/></g><path class="cls-1" d="m84.85,24.04c-.06-.23-.1-.46-.1-.69,0,.04-.01.07-.02.12-.16-.26-.24-.39-.33-.53.21-.04.31-.06.35,0,0-.03,0-.06,0-.09-.25-2.6-.87-5.14-1.87-7.39-.39.02-.59-.47-.33-.74-2.73-5.86-7.61-10.43-13.45-12.85.03.22-.02.44-.03.69-1.48-1.42-3.53-2.06-5.7-2.34-.78,0-1.55-.02-2.33-.07-.22-.01-.42-.06-.62-.13-.86-.01-1.7,0-2.51,0-.02.08-.04.14-.06.2-.81-.27-2.39-.17-2.99.52-.03-.01-.05-.03-.08-.04.03-.1.03-.21.09-.28-.57.11-1.13.24-1.69.39-.69.29-1.21.51-1.74.73.03-.08.06-.15.09-.22-.67.24-1.36.49-2.02.8.03.05.07.09.11.14-.12.02-.21-.01-.29-.06-1.48.68-2.85,1.46-4.11,2.33.03.05-.03.09-.05.15-.02-.03-.04-.05-.06-.07-.31.22-.61.44-.9.66-.05.09-.1.18-.16.26.04.01.08.03.12.05-.01.03-.03.06-.04.09-.04-.02-.09-.05-.13-.07-.23.28-.54.5-.93.61-.48.41-.94.84-1.37,1.28,0,.01.02.03.03.04-.05,0-.08.03-.11.05,0,0,0-.01.02-.02-.07.02-.13.04-.18.06,0,0,0,.02,0,.03,0,0,0,0-.01,0,0,.02.02.05.03.07.03.08.06.19.12.36-.14-.09-.23-.14-.3-.18-.6.64-1.16,1.31-1.69,2,.18.16.19.2.01.42-.07-.12-.14-.18-.15-.24-.82,1.1-1.55,2.26-2.17,3.47.07.07.13.15.2.22-.03.03-.06.05-.09.08-.05-.06-.11-.12-.16-.19-.12.24-.24.48-.36.73.06.05.13.1.2.16-.05.2-.1.4-.16.67-1.12.21-1.38,3.24-1.81,4.29.04.05.08.11.11.16-.04,0-.09,0-.15,0-.25,1.52-.75,3.15-.51,4.66-.04.07-.08.13-.13.18.03,1.71-.15,3.63.44,5.22-.05.03-.09.04-.12.05.13.82.31,1.64.52,2.44.22.29.35.63.4,1,.02,0,.04,0,.05,0,.44,3,2.32,5.78,4.13,8.27.09-.02.18-.03.28-.03.12.2.56.47.27.69,1.77,2.12,4.14,4.08,6.79,5.59.33.11.65.25.96.42.15.08.28.19.4.31,1.29.64,2.63,1.17,3.98,1.57.21-.16.38-.18.63-.13,1.05,1.07,6.93,1.64,7.9.74.03.21.09.25.14.37,1.96-.13,3.88-.5,5.72-1.07.3-.14.61-.25.92-.35.9-.57,1.83-1.05,2.85-1.16.58-.29,1.16-.6,1.72-.93-.01,0-.02-.01-.03-.02.1-.09.1-.14.17-.07.3-.18.61-.37.9-.57.11-.36.12-.77.43-.29.92-.63,1.8-1.33,2.62-2.07-.14-.05-.23-.16-.23-.35.21-.08.37-.05.5.1,2.02-1.87,3.74-4.07,5.08-6.53-.28-.5,0-.46.3-.68,0,.03,0,.07,0,.1.03-.06.06-.12.09-.18h0s0-.07,0-.1c.01,0,.03,0,.05,0,1.93-3.72,2.78-8.33,2.55-12.82Zm-50.19-1.23c.1-.03.19-.07.28-.11.01.03.03.06.04.1-.12.03-.26.19-.32.01Zm.38.98s-.1-.03-.15-.04c.02-.13.1-.06.18-.04,0,.03-.02.05-.03.08Zm48.81-3.66s-.04.04-.07.06c-.09-.1-.17-.19-.26-.28.16.01.26.1.33.22Zm-3.32-8.38s.05,0,.07,0c0,.07,0,.14.01.21-.03,0-.06,0-.09,0v-.22Zm-7.89-7.61c.06.02.12.03.18.05,0,.03,0,.06-.01.09h-.17s0-.09,0-.13Zm-1.63-.87c.06,0,.12.08.18.13-.05.06-.1.12-.17.22-.19-.14-.22-.27,0-.35Zm-4.16-1.93c-.07-.08-.14-.16-.23-.26.22-.04.22.12.23.26Zm-1.06-.52s.05.06.08.09c-.1.06-.13.15-.22.01.05-.04.09-.08.14-.1Zm-.54.91c.2.12-.02.25-.15.05.08-.03.12-.06.15-.05Zm-4.57-1.08c.16.1.14.19.07.29-.18.06-.2-.19-.07-.29Zm-1.4.24q-.27.02-.37-.28c.3-.09.32-.08.37.28Zm-5.48.13v.37c-.42-.05-.39-.52,0-.37Zm-6.33,3.08s.07.1.11.16c-.13.1-.16.02-.26-.09.07-.03.13-.07.14-.06Zm-2.55,1.91c.07.02.14.04.2.06-.01.03-.03.07-.05.1-.06-.05-.23-.08-.16-.17Zm-9.08,12.28s.06,0,.1.01c0,.13.01.27.02.42-.07,0-.13-.01-.2-.02.03-.15.06-.28.08-.42Zm-.45.95c.12.07.1.1.03.22-.1-.1-.12-.13-.03-.22Zm2.87,18.56c-.14-.07-.33-.08-.2-.37.16.02.31.05.52.08-.14.13-.22.2-.32.29Zm.93,1.85c-.17-.09-.17-.16,0-.25v.25Zm3.88,4.66c-.16,0-.17-.09-.21-.21.07-.03.14-.05.24-.09-.01.13-.02.21-.03.31Zm4.6,3.38c-.06-.02-.16,0-.15-.09h.15s0,.06,0,.09Zm17.12,1.64c-.02-.44.21-.2.32.01-.1,0-.2,0-.32-.01Zm17.93-13.99c-.02-.07-.05-.14-.07-.21.02,0,.05,0,.07-.01.01.07.03.14.04.2-.01,0-.03.01-.04.02Zm.1-3.26c.02-.12.03-.23.05-.35-.06.43-.17.79-.4,1.12-.68,2.21-1.65,4.32-2.88,6.24-.05.17-.11.34-.19.51-.18.4-.49.72-.67,1.12-.16.35-.59.69-.99.86-1.98,2.32-4.44,4.2-7.32,5.43-.28.29-.66.5-1.07.59v.06c-.13.03-.27.06-.41.09,0-.03,0-.06,0-.1h-.03c-.16.1-.34.18-.52.23-.1.01-.2.03-.3.04-2.87,1.06-5.92,1.61-9.01,1.57h0c-.08.12-.22.18-.34.16-.2.07-.43.1-.68.1-.51,0-.92-.15-1.23-.4-3.58-.39-7.12-1.59-10.38-3.7-.01,0-.03,0-.04-.01-.1-.03-.42-.15-.58-.25-.14-.09-.35-.25-.47-.36-.05-.05-.09-.1-.13-.15-.08.02-.17.03-.25,0-.05.04-.11.08-.16.13-.1-.31-.37-.52-.37-.82-2.76-2.14-4.98-4.94-6.52-8.02-.26-.29-.42-.65-.49-1.04-.75-1.69-1.28-3.46-1.6-5.24-.24-.72-.39-1.46-.47-2.23-.03-.28.02-.53.12-.77-.1-1.87.01-3.75.34-5.6-.1-.34-.1-.7.02-1.02.11-.27.21-.48.34-.68.25-1,.57-1.99.95-2.96.03-.19.08-.38.15-.56,0-.03,0-.06.01-.1,0,0,.02.01.03.02.06-.12.13-.23.2-.34,1.4-3.62,4.63-6.45,7.04-9.25.21-.11.41-.19.6-.09,1.57-1.15,3.2-2.08,4.88-2.8.63-.57,1.45-.95,2.23-1.02.22-.02.46-.03.7-.03,3.25-.91,6.64-1.09,10.06-.59.14-.02.27-.04.41-.06.03,0,.06,0,.09.01.03-.17,0-.2-.24-.31.27-.27.41.1.51.35.06,0,.12.02.19.03.22.07.44.16.64.26,2.88.62,5.65,1.76,8.13,3.33.2.08.41.16.61.25.27.14.52.31.78.47.51.32.92.69,1.21,1.12h.35c-.1.1-.19.12-.27.11,1.35,1.02,2.52,2.18,3.52,3.45.24.18.43.39.61.63.27.35.46.72.67,1.11.06.1.1.21.14.32,1.85,3.04,2.87,6.51,3.15,10.07.07.47.11.94.14,1.42,0,.18-.01.35-.06.52,0,1.95-.21,3.9-.63,5.81-.04.42-.12.84-.19,1.27Zm1.1-.76s.08.03.12.04c-.01.11-.03.22-.04.33-.1-.02-.19-.03-.36-.07.12-.14.2-.22.28-.31Zm-.09.86s-.03-.05-.04-.07c.08-.05.16-.1.24-.15.01.02.03.05.04.07-.08.05-.16.1-.24.15Zm0-12.92s0-.07,0-.1c.07-.02.15-.04.23-.06.12.23-.08.34-.22.16Z"/></g><g><g><path class="cls-1" d="m40.36,68.33s-.05,0-.08,0c-.01.02-.02.04-.04.06.04-.02.08-.04.11-.05Z"/><path class="cls-1" d="m12.01,69.09s-.02,0-.03.01c.05.02.11.04.16.06-.05-.03-.09-.05-.13-.07Z"/><path class="cls-1" d="m45.74,67.15c-1.38,1.22-2.91,2.08-3.96,2.21.03-.07.06-.12.09-.18.26-.51.52-1.03.78-1.55.08-.15.17-.31,0-.47-.29.15-.58.3-.87.45-.15.13-.33.24-.52.32-.27.25-.61.42-1.03.48-.03.04-.06.09-.1.16-.05-.02-.11-.03-.19-.06-.72.33-1.45.65-2.29.8.22-.55.6-.99.61-1.61-.02-.02-.04-.05-.05-.07-.08.05-.14.09-.18.12-.6.44-1.23.8-1.96.99-.59.15-1.18.26-1.78.33-.04.02-.08.04-.13.05-.18.03-.37.05-.55.07-.04.05-.04.1.06.12-.11,0-.15-.02-.19-.1-.15.03-.3.05-.47.05-.25,0-.48-.04-.68-.1-.14-.02-.27-.05-.39-.11-.02,0-.02,0-.04,0-.37-.07-.69-.22-.97-.44-.02.01-.04.03-.05.05-.05-.06-.1-.11-.16-.17.02,0,.02-.02.04-.03-.24-.24-.43-.54-.56-.9-.17-.46-.25-.94-.24-1.43,0-.25.02-.42.03-.57-.03-.22-.03-.45,0-.67,0,0,0,0-.01.02.01-.18.03-.26.06-.29,0-.02,0-.03.01-.05.02-.49.03-1.41.03-1.41l-.08-.03-1.25,1.87c-.12.18-.19.39-.2.62,0,.02,0,.06,0,.09.04.19.05.38.04.58.04.1.03.18.14.19.09,0-.08.12-.19.2-.01.07-.03.13-.05.2-.02.3-.03.6-.04.84,0,.08-.02.15-.03.23-.39.22-.78.41-1.19.59-.33.28-.78.46-1.34.46-.02,0-.04,0-.06,0-.04.01-.08.03-.12.03-1,.21-2.57.4-2.88.29.17-.32.35-.65.51-.98.13-.26.26-.52.36-.79.06-.15.09-.32-.04-.48-.28.18-.53.37-.8.51-.06.04-.13.07-.2.1,0,.28-.02.28-.37.19.02,0,.03-.02.05-.03-.35.17-.69.33-1.05.49-.44.19-.87.41-1.4.5.09-.17.17-.3.23-.42.16-.3.32-.61.46-.91.08-.16.12-.32-.04-.49-.08.06-.16.11-.23.17-.66.64-1.41,1.18-2.3,1.41-.48.12-.97.24-1.46.35-.02,0-.02,0-.03,0-.02,0-.04,0-.05,0-.06.01-.13.02-.2.04-.2.09-.38.17-.59.21-.29.07-.56.07-.83.04-.27.04-.54.07-.81.08-.04,0-.08,0-.12,0-.47.02-.94.02-1.41-.05-.12-.02-.23-.04-.34-.08,0,0-.01,0-.02,0-.05-.02-.11-.04-.16-.06-.08.02-.14,0-.28.07,0-.15-.04-.16-.05-.23h0s0,0,0,0h0s0-.01-.02-.02c0,0,0,0-.01-.02-.01,0-.02,0-.04,0,0,0,0,0,.01,0,0,0,0,0-.01,0-.09-.03-.2-.15-.35-.11.02-.04.04-.07.05-.1-.37-.3-.66-.71-.78-1.17-.02-.1-.09-.19-.17-.35-.08.09-.14.15-.2.21,0,.01,0,.03.02.04-.02,0-.03,0-.04,0-.04.04-.07.08-.1.13-.19.35-.38.71-.57,1.06.02.03.04.05.04.08,0,.1-.09.21-.18.39-.02-.03-.05-.06-.08-.08-.1.18-.21.37-.3.55-.07.12-.07.28-.07.42,0,.23.03.45.06.69.23.1.06.78.2,1.37.21.86.54,1.71.53,2.64-.49.29-1.02.51-1.6.6-.34.05-.68.09-1.03.12-.1.04-.2.07-.31.09-.06.06-.12.12-.19.14-.12.04-.62.45-.75.45-.01-.03.05-.41.04-.45-.19-.01-.08-.14-.24-.19-.96-.04-1.85-.29-2.68-.77-.49-.37-.77-.51-.99-1.01-1.02-.51-.91-.88-.25-.92-.2-.65-.16-1.1-.03-1.8-.04,0-.08,0-.13,0,.06-.12.12-.14.16-.13.16-.74.48-1.45.91-2.06l-.08.02s-.07.05-.11.07c-.24.21-.46.45-.67.71,0,.02-.01.03-.02.05-.09.12-.19.24-.28.36-.29.41-.54.88-.75,1.36-.09.33-.19.66-.35.96-.21.72-.32,1.47-.31,2.18.04.15.31.15.3.32,0,.05-.26.26-.26.31.07.51.21.98.43,1.41.12.19.25.38.38.57.57.69,1.45,1.15,2.7,1.24.65.06,1.3.07,1.96.02.85-.06,1.65-.21,2.42-.54-.52-.51.5-.7.97-.57.31-.26.62-.62.78-.91.38-.67.75-1.36,1.12-2.04.31-.57.45-1.18.49-1.81,0-.09.03-.17.04-.22.56-.04.67-.04,1.21-.07.02-.06.25-.1.27-.15.1.05.34.11.52.11.19,0,.39-.04.58-.06.84-.12,1.68-.33,2.54-.51-.07.28-.29.5-.12.81.66-.13,1.29-.33,1.93-.54.26-.09.53-.19.8-.28-.03-.09,0-.19.12-.33.07.08.12.16.17.23.27-.1.55-.2.82-.29-.05.42-.49.69-.29,1.13.08.02.15.03.21.04.99.04,1.97-.05,2.94-.2.15-.02.3-.05.45-.07l.43-.18c.28-.09.56-.11.83-.05.12-.02.23-.04.34-.06,1.38-.29,2.75-.64,3.85-1.71.1.21.18.38.27.53.08.13.17.27.29.37.26.22.54.39.84.53.35,0,.64.07.9.18-.1-.45.14-.38.31.16.48.07.95.07,1.44.04.59-.03,1.18-.11,1.76-.23.13-.03.49-.13.63-.16-.02.3-.04.62-.06.91.32-.03.63-.08.93-.15.12-.11.23-.21.35-.31.06.02.15.05.27.08-.02.03-.04.06-.05.08,1.07-.32,2.07-.81,3.11-1.25-.15.6-.39,1.2-.6,1.78.18-.04.36-.09.5-.14.42-.12.83-.24,1.24-.38.35-.11.67-.26.99-.41.11-.15.23-.29.39-.4-.03-.02-.06-.05-.08-.06.14-.12.27-.24.42-.33.02,0,.09.07.14.13.13-.05.26-.08.41-.1.11-.07.23-.14.33-.22.3-.23.73-.66.93-.97.35-.52.63-1.09.93-1.65.08-.15.15-.3.2-.47.05-.15.14-.34-.04-.47ZM1.22,73.95c.26-.09.38-.04.46.17-.15-.05-.27-.1-.46-.17Zm2.01,3.88c-.1-.02-.18-.11-.32-.2.11-.11.77-.95.64-.38.1.05.17.32.22.42.01.02-.5.17-.55.17Zm5.46-1.48s-.06-.04-.05-.07c0-.02.04-.04.06-.06.02.03.05.05.07.07-.02.02-.05.06-.08.06Zm.22-.42s-.06-.04-.06-.07c0-.02.04-.04.07-.06.02.02.04.05.06.07-.02.02-.05.06-.07.06Zm2.62-4.64s-.43-.82-.48-.84c.09-.05.54.14.62.09.05.02.09.04.14.05-.09.05-.19.64-.28.69Zm3.29-.06c-.46.26-.9-.11-.9-.16,0-.03.83-.13.9-.23v.38Zm.04-.85c-.08-.03-.16-.05-.22-.07-.13.03-.26.07-.26.08,0,.02-.22-.21.26-.08.1-.03.2-.05.22-.07-.02.02-.05.04-.07.06.02.02.04.05.06.07Zm-.24-.47s-.13-.23-.13-.26c0-.07.12-.15.15-.22.04.05.51.27.51.31,0,.05-.5.12-.53.17Zm2.6.89c-.21-.02-.48-.51-.7-.53.04-.02.08-.05.12-.07.19.02.38.05.57.08-.02.02.02.5,0,.52Zm2.93-.91c.1-.02.82-.31.92-.31.07,0,.14.06.23.11-.12.11-.2.18-.27.25-.09-.1-.8.05-.88-.05Zm1.03,1.64c-.04-.06-.08-.11-.13-.17.02-.02.04-.03.07-.05.04.05.08.11.12.17-.02.02-.04.03-.06.05Zm-.21-1.39s-.03-.04-.05-.06c.13-.04.25-.07.38-.1.02.03.05.06.07.08-.14.03-.27.05-.41.08Zm1.12,1.3s-.04-.05-.07-.07c.03-.02.05-.04.08-.06.02.02.06.05.06.07s-.05.04-.07.06Zm-.06-.63s-.11-.08-.16-.13c.07-.06.14-.13.21-.19.03.04.07.08.13.14-.05.06-.11.14-.17.17Zm.48.63s-.06-.05-.06-.07.05-.06.07-.06.04.04.06.07c-.02.02-.05.04-.07.06Zm.43-.85s-.06-.05-.06-.07c0-.02.04-.04.07-.06.02.03.37.1.39.13-.03.02-.38,0-.4,0Zm.63,1.28s-.06-.05-.06-.07c0-.03.05-.05.07-.07.02.02.04.05.06.07-.02.02-.05.06-.07.06Zm1.92-.84s-.05-.05-.07-.07c.02-.02.03-.11.06-.14.02.02.08.12.08.14,0,.02-.05.04-.07.06Zm.2-1.14s.07.21.09.23c-.03.02-.05.06-.07.06-.02,0-.05-.04-.07-.07.03-.02.03-.2.05-.22Zm.2.78s-.25-.11-.25-.13c0-.02.05-.06.07-.06.02,0,.14-.06.16-.04-.03.02.05.21.02.23Zm1.88-.73c-.14.03-.3.06-.5.1.08-.3.28-.35.5-.38v.29Zm.48-.6s-.05-.05-.07-.08c.02-.02.05-.04.08-.06.02.03.06.05.06.07,0,.03-.05.05-.07.07Zm.48-1.12c-.09-.08-.13-.18-.05-.29.04,0,.08,0,.09.01.03.08.06.17.09.25-.04.01-.11.04-.13.03Zm.31-2.78c-.1-.04-.19-.09-.28-.13.01-.03.02-.05.04-.08.1.05.2.11.29.16l-.04.05Zm.61,3.49s-.09,0-.09,0c0-.05,0-.1,0-.15.06.02.12.03.19.05-.04.04-.07.08-.11.11Zm.28.32s.06-.06.08-.06c.06.01.12.04.18.07-.05.03-.1.09-.14.09-.04,0-.08-.07-.12-.1Zm.32,1.47s-.04-.06-.05-.09l.17-.08s.02.04.03.06c-.05.04-.09.08-.14.11Zm1.09.03c-.14-.19-.3-.36-.43-.56-.08-.11-.13-.25-.2-.38-.03.04-.05.09-.08.14.02-.06.04-.12.06-.18,0,.01.02.02.02.04,0,0,0,0,0,0,.48.2,1.04-.65,1.24.63.14.94-.41,0-.61.32Zm2.21-.23q.45-.13.81.35c-.37-.16-.57-.24-.81-.35Zm1.05.34c-.08-.1-.21-.22-.19-.26.06-.13.18-.24.29-.34.02,0,.16.11.16.13-.06.14-.14.27-.25.46Zm2.44.04c-.17-.09-.37-.17-.52-.29-.1-.08-.11-.26-.17-.39.3-.06.6-.12.9-.18-.07.29-.14.57-.22.87Zm1.53-.73c.12-.38.3-.4.69-.21-.3.09-.47.14-.69.21Zm1.52.31c-.06-.11-.15-.22-.17-.34-.02-.1.04-.21.09-.44.16.24.29.35.29.45,0,.11-.13.22-.2.33Zm2.3-.57s-.05-.05-.08-.07l.14-.17s.05.03.07.05c-.05.06-.08.13-.13.19Zm.67.17s-.05-.03-.08-.04c.03-.06.06-.13.09-.19.03.02.06.03.09.05-.03.06-.06.12-.1.18Z"/><path class="cls-1" d="m66.48,69.87c0-.51-.02-1.31-.02-1.51v-.31c-.04-.35-.05-.69-.05-1.04,0-.11.02-.21.04-.31,0-.89,0-1.79,0-2.68,0-.18,0-.4,0-.63-.06-.49-.08-.97-.02-1.46-.02-1.69-.04-3.51-.04-3.51l-.08-.02-1.47,1.88c-.14.2-.2.44-.2.68,0,.35.02.72.04,1.43.11.02.24.35.22.45-.04.21-.15.29-.21.41.05,1.4.12,2.96.15,4.28,0,.02,0,.04,0,.05,0,.13,0,.26,0,.38.09-.03.18-.05.26.09-.1.08-.18.08-.26.04,0,.23,0,.44,0,.63,0,1,.05,3.01.07,3.72,0,.08.11.11.15.04l1.18-1.83c.14-.22.22-.47.23-.73h-.02s-.17-.14-.19-.19c-.02-.06.02-.47,0-.59.06.14.17.63.21.73v-.02Zm-1.46,1.22s-.04,0-.06,0c0-.06-.02-.12-.02-.19.03,0,.29-.17.32-.17l-.23.36Zm.64-5.37c-.04.09-.41.15-.52.07-.25-.19-.37-.48-.15-.81h.76c-.02.26,0,.53-.09.75Zm.55-4.73c-.06-.03-.36.28-.41.25.02-.03.29-.4.31-.42.05.04.1.08.14.11-.01.02-.03.04-.04.05Z"/><path class="cls-1" d="m49.55,57.82c-.49.17-1.01.32-1.65.29.2-.39.38-.72.55-1.06-.49-1.73-2.18-.26-2.42,1.03.03-.06.04-.09.1-.1.53-.27.34.43.39.6-.13,0-.39-.39-.51-.39-.04.39.07.82.41,1.05-.18.41-1.03.9-.57,1.34,1.07-.75,3.97-1.1,3.69-2.74Z"/><path class="cls-1" d="m59.01,62.75c-1.59.33-3.36.26-4.46.54-.35.09-.64.31-.81.61l-1.18,2.09c-.08.14.05.3.2.26,1.21-.33,3.01-.36,4.44-.59.41-.07.76-.31.95-.66l1.05-1.98c.07-.14-.05-.29-.2-.26Zm-4.64,1.88c.09.02.14.02.17.05.04.04.07.1.11.16-.23.1-.28.01-.28-.21Zm2.35-.35c-.06.1-.14.09-.2-.04.07-.05.13-.09.22-.15,0,.08,0,.15-.02.19Zm.72.29s-.1-.07-.12-.12c0-.02.05-.11.07-.11.05.01.09.05.16.1-.05.06-.08.09-.11.13Z"/><path class="cls-1" d="m30.31,73.16c-1.11.23-1.78.23-2.78.33.02.02-.22.32-.2.35-.09-.02-.43-.28-.5-.3-.36.04-.69.08-.98.16-.35.08-.65.31-.81.61l-1.17,2.08c-.08.14.05.31.2.26,1.21-.33,3.01-.36,4.45-.59.41-.06.76-.31.95-.66l1.05-1.98c.07-.14-.05-.29-.2-.26Zm-4.81,3c-.12.03-.25.06-.39.09-.04-.14-.07-.28-.05-.4.05-.25.6-.17.69-.12-.02.02-.24.4-.26.42Zm2.75-1.07c-.05.07-.16.14-.26.03-.09-.1-.33-.58-.25-.64.1-.07.9-.17,1.07-.26-.07.18-.48.77-.56.88Z"/><path class="cls-1" d="m113.23,68.93c.28-.55.44-1.16.43-1.8,0-.57-.26-1.13-.53-1.69-.05-.08-.11-.15-.16-.23-.12-.21-.2-.42-.25-.64-.12-.26-.28-.5-.43-.75-.02,0-.03-.01-.05-.02h0s-.04-.03-.07-.05c-.21.33-.4.66-.63.97-.39.51-.59,1.01-.58,1.52.04-.03.1-.05.2-.07-.05.14-.09.27-.14.44-.01-.03-.02-.05-.03-.07.07.4.25.8.57,1.23.74,1-.31,1.12-1.09,1.22-.1,0-.2.02-.29.04,0,.1-.29.42-.39.51-.05-.06.04-.29-.01-.36-.27.03-.53.07-.79.1-.14.05-.29.08-.47.07h-.15c-1.49.17-2.66.32-3.83.43-1.04.16-2.23.19-3.27.15h-.06c-.09.02-.18.03-.28.02h-.11c-.81.05-1.58.08-2.35.11.05.07.11.14.17.22-.49.22-.62-.39-1.19-.07-.18.02-.55-.18-.8-.11.14.1.07.22.04.33-.03-.09-.06-.18-.11-.33-1.3.12-2.84.14-4.27.63.03-.1.07-.54.09-.62h-.32c-.4.09-.81.09-1.22.05-.1-.02-.2-.03-.3-.05-.56,0-1.15,0-1.77,0,.05.07.09.14.14.22-.33-.01-.38.1-.38-.11-.57,0-1.22-.11-1.85-.11-.48,0-.69,0-.64-.65.02-.28.01-.54-.02-.79,0,0-.01,0-.02-.02,0-.01,0-.01.02-.02-.1-.75-.43-1.39-.9-1.96-.57-.07-.59-1.03-1.37-1.03.06-.03.1-.1.15-.14-.67-.54-1.33-.65-1.89-.31.03.02.05.03.09.04-.18.08-.29.16-.37.19-.13.12-.25.25-.36.42-.2.33-.41.66-.6,1,.02.03.04.06.06.09.03-.04.06-.08.1-.11.05.25.11.49.21.93-.45-.24-.52-.46-.38-.7-.02,0-.05.02-.07.03-.05.16-.14.3-.27.43-.25.46-.48.93-.71,1.41-.03.1-.07.18-.13.26-.02.06-.05.11-.08.17.02.02.04.03.05.05.02.03-.01.08-.02.13-.02,0-.05,0-.08,0,0-.02,0-.03-.01-.05-.05.12-.11.24-.16.36.06.09.12.23.21.43-.13.08-.25.17-.36.25,0,.02-.02.04-.03.06v.16c.04.17.08.32.1.48.17.44.57.79,1.16.99.81.28,1.71.32,2.57.47.1.02.2.04.29.06-.07.07-.14.18-.22.2-.93.24-1.87.66-2.8.66-.81,0-1.63,0-2.45-.02-.09.02-.19.03-.29.03-1.36,0-2.71.08-4.05-.13-.13.01-.25,0-.38-.02-.68-.02-1.36-.04-2.03-.06-.08,0-.17.03-.25.04.07.06.12.16.19.18.03,0,.05.02.08.03.29.01.53.11.72.26.33.12.67.24,1.01.36.34.06.66.16.96.34.59.21,1.18.41,1.79.59.17-.1.31-.08.44.08,0,0,.02.04.02.06h0c.22.07.44.13.66.19.43.05.87.15,1.26.33.77.18,1.55.29,2.3.23,1.06-.1,1.95-.58,2.72-1.24-.05-.06-.07-.15-.11-.22.1-.13.19-.01.29.06.54-.5,1.04-1.09,1.49-1.7.07-.09.19-.22.29-.22h1.36s.1-.08.14-.12c.03.01.06.02.09.03,0,.03,0,.06,0,.09.69,0,.97.01,1.24.02.11-.12.66-.44,1.07-.52-.1.09.12.41-.63.54,2.06.05,6.32.04,8.32,0h0c.22-.08.41-.32.72-.42,1.03.6,2.72.11,3.85.09-.08.05-.16.09-.24.14,2.5-.17,5.08-.47,8.38-.96,1.71-.26,3.22-1.25,3.98-2.59-.06-.06-.11-.12-.17-.19.13-.02.21,0,.26.02Zm-32.5,2.42c-.06-.08-.19-.21-.17-.24.15-.22.33-.42.49-.63.05.06.11.13.22.27-.18.21-.36.41-.54.6Zm.84-.14v-.15s.32.04.32.04c-.11.04-.22.07-.32.11Zm.36-.13s-.03-.04-.03-.06c0-.24.01-.47.02-.71.09.03.17.06.26.09-.09.23-.17.45-.26.68Zm-.1-2.01c.28-.33.17-.06.45.24-.22.01-.26-.25-.45-.24Zm.82-.7c-.06-.08-.13-.13-.12-.16.03-.08.09-.14.14-.22.06.05.11.09.17.14-.06.08-.12.15-.19.23Zm-8.85,6.02c-.07-.07-.14-.14-.22-.21.12-.11.23-.24.36-.34.02-.01.12.09.19.14-.11.13-.22.27-.33.4Zm1.91.32c-.13-.22-.26-.44-.38-.67,0-.03.13-.12.28-.25.13.25.25.44.31.65.02.06-.14.17-.21.26Zm3.93.56c-.09-.18-.17-.28-.18-.39-.01-.09.05-.19.08-.29.11.12.23.23.31.36.02.03-.09.14-.2.31Zm1.02-1.58v.21s-.05,0-.08,0c-.01-.07-.02-.14-.04-.2.04,0,.08-.01.11-.02Zm-.07,1.46c-.07,0-.13-.04-.19-.06.05-.04.09-.1.13-.1.05,0,.1.06.14.09-.03.03-.06.08-.08.07Zm1.98-.3c-.01-.06-.03-.12-.03-.19,0-.02.05-.05.07-.07.03.06.06.12.09.17-.05.03-.09.06-.13.08Zm.6-4.39s-.09-.28-.04-.33c.1-.12.33-.27.41-.23.23.14.41.34.61.53-.33,0-.65.03-.99.03Zm1.23.61c-.06-.19-.11-.37-.17-.55.1.15.21.29.3.44,0,.01-.08.07-.13.11Zm.75-2.76c-.14-.11-.28-.23-.42-.34.08-.09.17-.18.25-.26.13.12.26.24.4.36-.08.08-.15.16-.23.24Zm.97,3.32c-.07-.02-.17-.15-.17-.22.01-.07.14-.17.23-.17.1,0,.2.06.42.15-.31.16-.41.26-.48.24Zm3.6.03c-.05.17-.2.29-.32.44-.11-.15-.27-.28-.32-.44-.04-.12.06-.29.1-.43.14,0,.28,0,.42,0,.04.14.15.31.11.42Zm.44.07c-.08,0-.16-.02-.24-.03.07-.19.13-.38.2-.57.11.02.23.03.34.05-.1.19-.19.37-.29.56Zm2.55.5c.03-.12.07-.23.11-.34.02.11.04.22.06.33-.06,0-.11,0-.16,0Zm.13-.43c.02-.12.05-.23.08-.34.14.07.29.14.43.22-.17.04-.34.08-.51.12Zm4.58-.8c.11.03.23.07.35.11-.11.02-.22.04-.34.06,0-.06,0-.11,0-.16Zm.35.73s-.14.06-.21.09c.09-.21.17-.42.26-.64,0,.18-.02.37-.05.55Zm2.79-.29c-.05-.07-.1-.16-.15-.23.06-.04.17-.13.19-.11.08.07.14.16.2.25-.07.02-.13.05-.24.09Zm2.25-.03c-.05,0-.11-.07-.16-.11.03-.03.06-.08.09-.08.07,0,.14.05.21.07-.05.04-.1.11-.14.11Zm2.44.14c-.04-.13-.08-.26-.12-.39.24-.09.48-.19.72-.28.02.08.05.16.07.24-.22.14-.44.29-.66.43Zm1.28-.61s-.08-.07-.13-.11c.06-.04.12-.08.19-.11.23-.11.46-.22.69-.33.28.84-.41.49-.74.55Zm1.21-1.09c.06.24.11.49.21.93-.6-.32-.53-.59-.21-.93Zm.76,1.55s-.1-.08-.14-.12c.01-.02.02-.04.04-.05.05.03.1.05.14.09,0,0-.02.06-.04.09Zm1.42-.58c-.11-.17-.22-.33-.39-.58.16-.08.29-.17.43-.22.02,0,.17.17.15.26-.03.19-.12.37-.19.55Z"/><path class="cls-1" d="m80.88,66.98s-.02-.03-.03-.05c-.03.04-.05.08-.08.11.04-.02.08-.04.11-.06Z"/><path class="cls-1" d="m112.25,72.31c-1.44.3-2.79.57-4.12.86-.28.19-.32.3-.28.06-.14.03-.27.06-.41.09-.11.02-.21.14-.27.25-.4.73-.78,1.47-1.17,2.21-.03.06-.03.15-.04.22.08,0,.15,0,.23-.02,1.31-.25,2.62-.5,3.93-.75.34-.07.83-.07.98-.29.18-.26.34-.53.49-.81-.02-.16.08-.13.19-.34.11-.21.35-.71.54-1.06.04-.07-.03-.19-.07-.42Zm-5.53,3.32c-.22-.23-.23-.26-.11-.65.06.2.17.4.11.65Zm1.15-.86c.06-.23.14-.28.25-.23.03.01.03.08.05.13-.08.03-.17.05-.3.1Zm1.62-.34c.13.07.2.11.31.17-.2.11-.25.03-.31-.17Zm.28-.49s-.04,0-.05,0c0-.07,0-.14.02-.22.03,0,.05,0,.08.01-.02.07-.03.14-.05.22Z"/><path class="cls-1" d="m76.48,64.92s-.09-.07-.13-.11c-.11-.11-.2-.24-.25-.38-.22-.24-.44-.45-.64-.56-.66-.38-1.31-.32-1.78.39-.23.35-.41.75-.56,1.17.04-.01.2-.12.23-.14.02.14-.1.41-.27.25-.02.05-.03.09-.05.14.04.07.01.12-.07.21,0,.22.21.59-.14.65-.11.02-.1.19-.14.28-.21.69-.44,1.38-.77,1.94-.08.13-.18.28-.31.33-.17.07-.33.15-.49.24h0s.1.08.16.1c-.12.07-.2.05-.26,0-.18.14-.3.23-.52.31-.02.01-.03.02-.05.03-.45.34-.7.52-1.06.97.04.05-.1.36-.09.48-.07-.06-.12-.1-.17-.13-.81,1.06-1.34,2.38-1.45,3.8.04,0,.08.02.12.02-.03.07-.09.27-.12.34,0,0,0,.02.02.03,0,0-.02,0-.03.02.03.1.03.19.03.29,0,.13.03.14,0,.24.04.27.08.61.13.97.02.08.04.17.05.25,0,.03.02.05.02.08,0,.02,0,.05,0,.07.01.12.03.23.04.34,0,.03,0,.06,0,.09.04,0,.08,0,.12,0v.21s.05.06.02.07c.07.06.04.09.1.14-.04.06-.07.12-.09.17-.04,0-.05-.02-.08-.04.07.44.14.86.21,1.29.02.14.17.25.27.38.05-.11.12-.21.16-.32.02-.06.04-.13.07-.19.03-.14.07-.29.14-.42,0-.02,0-.03,0-.05.11-.3.17-.51.33-.89.18-.49.38-.98.38-1.47,0-.09,0-.19-.01-.28-.02-.02-.03-.03-.05-.05-.17-.15-.17-.16-.17-.42.07.04.13.07.19.11-.04-.14-.07-.28-.07-.42,0-.04.01-.07.02-.11,0-.07-.02-.13-.03-.19,0-.03-.02-.05-.03-.08-.04-.12-.06-.24-.06-.38h0c-.01-.06-.02-.12-.03-.17-.03-.09-.04-.19-.04-.28-.04-.24-.09-.49-.13-.73-.18-1.03-.17-1.19.67-1.54-.08-.03-.15-.08-.21-.17.13.03.48-.05.61-.02,0,0,0,0,0,0,.75-.29,1.29-.48,2.06-.73-.04-.07-.03-.17.04-.32.06.09.16.16.19.23.08-.02.14-.05.22-.07,1.2-.38,2.1-1.03,2.81-1.88.26-.45.55-.88.86-1.3.22-.4.41-.83.58-1.28.13-.35-.14-.97-.51-1.53Zm-3.97,4.13s-.08-.06-.11-.1c.03-.02.06-.06.08-.06.06.01.12.04.18.07-.05.03-.09.08-.14.08Zm1.1.88c-.1-.02-.19-.08-.33-.14.09-.12.14-.18.18-.24.09.07.18.13.26.21.02.02-.08.17-.11.17Zm.63-5.41v.53c-.08-.02-.15-.02-.15-.04-.03-.17-.18-.38.15-.49Zm.23,3.04c-.12-.17-.23-.33-.38-.56.16-.25.27-.45.39-.64.16.27.35.53.43.82.03.08-.29.26-.44.38Zm1.34-.08c-.06-.28-.13-.57-.23-1.03.44.37.39.69.43.99l-.2.04Z"/><path class="cls-1" d="m5.7,86.82c-.07,0-.14-.02-.21-.03-.25-.01-.5-.05-.75-.09-.32-.03-.64-.04-.94-.13-.99-.15-1.56-.83-1.69-2.02-.02-.18.03-.32.05-.49.26-.23.58-.32.91-.23.25.06.53.14.81.23.07,0,.14,0,.22.03.08.02.15.05.21.1.07.02.14.05.21.09.06.05.12.09.17.14,0,0,0,0,.01.01.2.11.41.24.61.39.29.21.68.19.92-.05l.97-.99s0-.04,0-.07c-.14-.13-.2-.19-.31-.28-.04-.02-.09-.03-.13-.06-.03-.02-.06-.04-.09-.07,0,0-.01,0-.02,0-.11-.03-.2-.09-.28-.18l-.08-.1c-.57-.34-1.26-.62-1.9-.62-.53,0-1.02.22-1.53.69-.56.52-1.08,1.08-1.53,1.57-.06.12-.14.22-.25.29-.24.31-.37.6-.38.91,0,.2,0,.4.03.61.22.15.4-.17.4-.17,0,0,.36.12.28.56-.04.21-.47,0-.63-.15.16.66.61,1.24,1.67,1.36.05,0,.1.01.15.02.12-.02.25-.02.37.01.03.01.06.02.09.04.06.02.16.02.22.02.07,0,.14.02.2.03.16.01.32.03.48.04.18.02.35.04.54.09.11.03.2.09.31.13.12.04.24.08.35.14.67.32,1.11,1.32.89,2.04-.79.4-1.89.36-2.78,0-.02,0-.04,0-.06,0-.04,0-.07-.01-.1-.02-.05.02-.11.03-.16.03-.08,0-.13-.09-.15-.18-.05-.04-.1-.08-.15-.11,0,0-.02-.01-.02-.02-.02-.01-.03-.03-.04-.04-.02-.02-.04-.05-.06-.08-.14-.11-.27-.23-.38-.36-.32-.38-.88-.43-1.25-.14-.03.06-.07.11-.13.16-.02.02-.04.05-.06.06-.06.06-.13.11-.2.16l-.46.49s0,.04,0,.06c.19.22.38.44.58.65.06.05.11.1.15.16,0,0,0,.02.02.02.05.05.1.11.16.15.07.04.13.08.2.12.09.06.18.12.26.19.54.29,1.17.42,1.75.42.8.03,1.46-.26,2.06-.7,0,0,0,0,.01-.02,0-.01.02-.03.03-.04.03-.02.06-.05.09-.07,0,0,.02,0,.02,0,0,0,.02-.02.03-.02,0,0,0,0,.02,0,.01,0,.02-.01.04-.02.42-.34.8-.74,1.18-1.15.06-.09.13-.18.21-.25.05-.05.11-.1.17-.15.28-.28.54-.61.54-1.02.08-1.13-.75-2.02-1.87-2.05Zm.23-2.88c0,.08-.02.15-.02.23-.04,0-.41.08-.45.07.02-.08-.11-.63-.1-.71.03,0,.54.41.57.41Zm-3.6,6.66c.11-.06.19-.1.26-.14.02.05.05.08.04.09-.05.11-.12.19-.31.05Zm.73,1.57q-.06-.22.2-.26c-.06.09-.11.15-.2.26Z"/><path class="cls-1" d="m15.09,90.89c-.31-.41-.58-.8-.77-1.27-.04-.04-.07-.08-.09-.14-.6.45-.43-.13-.43-.18,0-.02,0-.1.16-.06.08.02.22.04.2-.03-.03-.1-.05-.2-.05-.31,0-.03,0-.07.01-.1-.05-.35-.07-.78-.07-1.23-.02-.1-.03-.2-.02-.29,0-.06.02-.11.03-.17,0-.03,0-.06,0-.09v-.03s0-.04,0-.06c0-.04-.02-.08-.02-.13,0-.06.02-.12.02-.19,0-.18,0-.33-.05-.52,0,0-.02-.04-.02-.04-.05-.02-.24-.05-.29-.08.02-.08.17-.14.2-.22-.16-.34-.44-.59-.89-.5-.15.03-.29.06-.43.09-.22.06-.45.11-.68.14.08-.01.15-.02.23-.03-.22.04-.44.09-.66.1-.03,0-.05,0-.08,0-.02,0-.05,0-.07,0-.02,0-.05.02-.07.03-.15.05-.32.04-.47,0-.28,0-.49-.02-.81-.07-.01,0-.02,0-.03,0-.11.08-.24.18-.37.3,0,.02,0,.05,0,.05.35.14.05.11-.15.08-.33.31-.68.68-.88.94,0,.03,0,.04.02.07.23.11.48.15.73.16.04,0,.02-.13.05-.13.11,0,.27.13.38.12.07,0,.14-.02.22-.03,0,0,.11-.02.12-.02.6-.1,1.2-.3,1.74-.38.63-.11.57.78.57,1.26-.31.02-.58.05-.84.07-.17.1-.38.12-.57.14-.16,0-.32,0-.47,0-.45.08-.8.19-1.09.36-.05.08-.11.35-.16.45-.03-.03-.05-.24-.19-.15-.27.22-.38.4-.58.82-.04.14-.1.28-.16.41-.1.31-.15.62-.14.92,0,.01,0,.02,0,.04,0,.07.02.14.03.21.02.1.15.17.17.27,0,.04-.07.09-.06.13.14.35.46.59.82.69,0,0,.02,0,.02,0,.09.02.18.03.27.05.07,0,.14.01.21.01.6,0,1.31-.11,1.82-.57.38-.34.74-.63,1.17-.91.32.55.55.96,1,1.39.02,0,.04,0,.06,0,.41-.33,1.14-.98,1.4-1.31,0-.02,0-.04,0-.06Zm-3.13-4.58c-.07-.04-.42-.18-.49-.22,0-.03.31-.24.32-.26.08.03.14.1.22.13-.02.04-.04.32-.06.35Zm-1.38,4.65c-.06-.02-.13-.02-.2-.04-.08-.03-.15-.06-.23-.1-.45-.22-.91-.58-1.1-1.06-.28-.68,1.15-.7,1.88-.68.56.02,1.22.19,1.66.28,0,.24.02.47.07.8-.48.89-1.35,1.03-2.08.79Zm3.15-.17c-.07.05-.18.23-.25.27-.08-.2.03-.29.25-.27-.05-.05-.16-.1-.29-.1-.09,0-.19.02-.28.09-.09-.27.46-.47.39-.75.15.23.3.57.17.75Z"/><path class="cls-1" d="m47.45,89.22c.3-.58.39-1.26.32-1.92-.04-.13-.06-.27-.07-.41-.01-.05-.02-.09-.04-.13,0,0-.09-.06-.1-.06-.07-.11-.01-.19-.03-.32h0c-.19-.48-.47-.91-.84-1.24-.04.02-.08.03-.11.05,0-.04,0-.08,0-.11-.07-.04-.13-.07-.2-.11-.08-.05-.16-.1-.23-.16-.01,0-.02-.02-.03-.03-.27-.12-.56-.21-.88-.23-.17,0-.34.02-.49.06-.02,0-.04.01-.06.02-.12.05-.24.11-.36.16-.08.03-.17.06-.26.1-.75.44-1.32,1.23-1.99,1.79-.09.08-.17.17-.25.26-.02.06-.01.2-.04.25-.04.09-.14.08-.2.16,0,.01-.02.02-.02.04-.02.04-.05.07-.08.09-.24.49-.34,1.05-.32,1.6,0,.02.02.03.03.05.03.07.04.14.05.21.05.03.1.02.18.05-.05.04-.07.11-.09.11-.03,0-.06,0-.08,0,0,.06-.01.11-.02.16,0-.05-.02-.09-.03-.13-.04.04-.04.12-.04.21.03,0,.05-.02.08-.02.05-.01.1-.02.14-.04.02.03.03.04.02.05-.03.07-.06.14-.1.21.05.1.09.2.11.31,0,.02,0,.03,0,.05.11.26.24.5.41.71.11,0,.18.09.21.17.05.17.16.24.33.28,0,.02-.02.05-.02.07.35.27.78.44,1.27.48.08,0,.16,0,.23.02.29,0,.57-.07.83-.19.02-.02.07-.02.06-.05-.03-.13.12-.17.17-.2.08-.05.14.02.23-.02.61-.43,1.15-1.07,1.66-1.53.17-.14.32-.3.45-.48,0-.03.02-.05.03-.08.02-.05-.04-.14,0-.18.03-.05.15-.03.19-.08Zm-1.58-3.58c0,.07.03.26.02.33,0,0-.27.08-.27.07-.02-.07-.15-.45-.17-.52.05,0,.37.13.42.12Zm-3.32,4.89c-.22-.17-.24-.6,0-.43.1.29,0,.44,0,.43Zm3.76-1.32c0,.45-.07.88-.25,1.27-.71.25-1.36.12-1.91-.22-.06-.03-.31-.05-.37-.09-.09-.07.02-.16-.05-.23-.53-.49-.9-1.2-1.06-1.93-.05-.14-.15-.08-.09-.45,0-.06,0-.11.01-.17-.02-.46.07-.92.27-1.31.22-.05.46-.09.67-.09.41,0,.79.11,1.13.29h0c.06,0,.11.02.16.05.02.01.04.02.06.04.02.01.03.03.05.04.01,0,.02.02.03.02,0,0,.13-.09.13-.09.06.04-.02.19.02.25,0,0,0,.02,0,.02.53.46.9,1.12,1.07,1.83.02.04.04.07.05.11.02.05.03.09.04.14.02.09.03.17.03.26,0,.08,0,.16-.02.23Zm.43-.48c.02-.14.14-.78.35-.28-.03.14-.19.33-.35.28Z"/><path class="cls-1" d="m41.65,82.47c-.08.06-.17.1-.27.12-.18.03-.33.02-.51,0,0,0-.01,0-.02,0-.14.01-.27.02-.41.03h-.02c-.29.12-.51.38-.84.39-.07-.09-.1-.19-.11-.29-.04-.03-.08-.06-.11-.11-.02,0-.04,0-.06-.02-.05-.02-.09-.04-.12-.08-.03,0-.06-.01-.09-.02-.39-.03-.78-.08-1.17-.13-.66-.02-1.34.08-1.71.46,0,0,0,.02,0,.02-.03.06-.08.11-.12.16-.02.02-.05.05-.07.06-.05.04-.1.08-.16.12,0,0-.02,0-.03.02-.23.22-.51.48-.6.57.26-.11.54-.14.81-.08,0,.23,0,.55.01.91,0,.03,0,.07.01.1h0s0,.04,0,.06c.02.19.3.53.3.72,0,.14-.26.14-.28.29,0,.26.02.52.02.77,0,.03,0,.07,0,.1.01.4.02.75,0,.99v.04c.03.14.03.29,0,.43.02,0,.33.18.36.17-.03.14-.33.04-.36.19t0,0v.03c0,.07,0,.13,0,.2v.15c.04.23.03.46,0,.7-.02.25.27.18.27.42,0,.14-.27.58-.29.72,0,.43,0,.81,0,1.09,0,.23.18.41.41.41h1.1s0-.55,0-.55c0-.09,0-.18,0-.27v-.24s0-.02,0-.02c0-.11,0-.21,0-.31v-.57s-.02-.1-.02-.15c-.02-.16,0-.31.02-.46v-.02c-.02-.2-.02-.4,0-.6v-.11c-.04-.09-.04-.2,0-.29v-.3s.16,0,.38,0c.14-.05.33-.18.49-.17.06,0,.08.14.13.15.05,0,.07,0,.07,0,.07,0,.14,0,.22,0,.05,0,.09.01.13.02,0,0,0,0,0,0,.33,0,.62-.11.86-.34.41-.38.82-.79,1.22-1.19-.25.1-.55.17-.86.2-.02,0-.06.05-.08.05-.16.04-.29,0-.45,0-.12,0-.24,0-.37,0-.04,0-.08.02-.12.02-.12,0-.35.13-.48.12-.24-.02-.38-.13-.61-.21-.16-.02-.32-.04-.46-.06,0,0,0,0,0-.02-.01,0-.02.01-.04.02-.02-.21-.03-.33-.04-.44,0-.05.02-.11,0-.15-.06-.1-.25-.15-.16-.3.04-.07.1-.14.16-.2,0-.05-.02-.09-.02-.13-.01-.15.02-.3,0-.45-.01-.13-.02-.25,0-.38,0,0,0-.02,0-.02-.02-.42-.03-.77-.02-.88.66.04,1.67.02,2.47-.09,0,0,.02,0,.02-.01.04-.02.07-.03.11-.05,0,0,0,0,.02,0,0,0,.02,0,.02,0,.05,0,.11-.02.16-.02.04,0,.08,0,.11.02.12-.02.23-.05.33-.08.14-.12.3-.26.47-.42.11-.14.26-.26.38-.39.06-.07.12-.14.19-.19,0,0,.02-.02.03-.02.11-.11.2-.23.28-.32-.18.04-.36.07-.54.11Zm-4.45.59c.28,0,.11.41-.12.22-.21-.18-.16-.22.12-.22Zm.26,8.73s-.37-.11-.45-.04c0-.11.11-.23.14-.26.02-.03.19-.05.23-.06,0,.03.1.33.09.35Z"/><path class="cls-1" d="m62.87,88.52s0-.02-.01-.04c-.06-.27-.06-.54-.09-.82-.09-.55-.24-1.05-.48-1.43-.01-.02-.02-.04-.04-.06,0-.01-.02-.02-.03-.03,0,0,0,0,0,0-.05-.03-.15,0-.18-.05-.03-.03.02-.12,0-.15,0,0,0-.02,0-.03-.21-.21-.47-.34-.79-.37-1.25-.1-2.13.7-2.95,1.52l.03-1.83s-.04-.02-.08-.04l-.23.21s-.14.37-.18.41c-.07.07-.06-.16-.14-.11,0,0-.02,0-.02.01l-.76.69c-.12.11-.18.26-.18.42v.95c.02.13.03.27.03.4,0,.1,0,.21,0,.31v.04c0,.24-.01.48-.02.72,0,.04,0,.07-.02.11v1.31s0,.05.02.07c.05.12.05.25.02.37,0,.02-.02.05-.03.07v.65c0,.22.18.4.41.4h.31c.07,0,.14-.02.2-.02.07,0,.13,0,.19.02h.46s0-4.1,0-4.1c-.01-.05-.02-.09-.03-.14-.02-.08-.02-.15,0-.23l.03-.07v-.53c.44-.19.81-.3,1.13-.35.02-.01.05-.02.08-.03.08-.02.21-.12.29-.11.06,0,.08.11.14.12l.05.02s.02,0,.03,0c1.06.18,1.31,1.39,1.33,2.73.02.04.15.01.16.06.02.13-.1.29-.13.42,0,.04-.02.09-.03.13,0,.05,0,.1-.01.15,0,.15,0,.31-.02.46,0,.08,0,.15,0,.22,0,.04,0,.07-.02.1-.01.25-.02.5-.03.73,0,.23.18.42.41.42h.35c.09-.02.18-.05.29-.05.13,0,.25,0,.38.03.04,0,.07.02.11.02h0c0-.21.01-.55.03-.96,0-.06,0-.11,0-.17,0-.2.01-.39.02-.59,0-.02,0-.03,0-.04.02-.61.02-1.29-.03-1.94Zm-5.6,2.15c.02-.07.1-.3.23-.34.12.18.1.5-.23.34Zm.08-1.95v-.26s.24-.18.24-.18l.21.21-.45.23Zm4.46,1.36s.21-.1.24-.11c.03.11,0,.45.04.62-.28-.1-.32-.38-.28-.51Z"/><path class="cls-1" d="m78.73,85.54c-1.25-.1-2.12.7-2.95,1.52l.03-1.83s-.04-.02-.08-.04l-1.32,1.21c-.12.11-.18.26-.18.42v.26c.05.14.08.3.07.47,0,.2-.04.4-.05.6,0,.14-.02.27-.03.4v.51s.01.02,0,.02c0,0,0,0,0,.02v1.35c0,.15,0,.29,0,.44v.92c0,.22.18.4.41.4h1.17s0-.87,0-.87c-.03-.18-.02-.36,0-.54v-3.65c3.6-1.59,3.06,2.29,2.99,4.65,0,.23.18.42.41.42h1.12c0-.18,0-.44.02-.76-.03-.05-.07-.1-.11-.15.05-.03.08-.06.12-.09.09-1.96.2-5.53-1.63-5.67Zm-3.92,4.13s0-.06,0-.06c.07-.02.14-.02.21-.03,0,.03,0,.07,0,.1-.07,0-.14,0-.21,0Zm.34-1.19c-.28,0-.07-.16,0-.43.07-.26.28.43,0,.43Zm3.94-1.36c-.02-.11-.05-.21-.09-.36.21.11.17.23.09.36Zm.51,3.47c-.11-.26-.28-.43,0-.43s.15.77,0,.43Z"/><path class="cls-1" d="m32,85.47s-.04-.02-.08-.04c-.35.27-.84.75-1.21,1.18-.08.1-.13.22-.13.35,0,.1,0,.2,0,.31.09.43.02.87-.02,1.31,0,.65,0,1.35,0,1.97.02.11.05.23.07.34,0,0,0,.01,0,.02.01,0,.02-.02.04-.03.11-.06.22-.09.28.05.02.04.11.39.07.42-.09.06-.31-.2-.38-.29-.01.07-.04.14-.08.19,0,.21,0,.4,0,.57,0,.23.18.41.41.41h.96s0-.14,0-.14c0-.03-.02-.05-.02-.08,0-.38.04-.76,0-1.14-.01-.16-.04-.32-.02-.48,0-.07.04-.14.06-.21v-.53s0-.04,0-.06c-.02-.16-.02-.32-.02-.49,0-.26.03-.51.05-.76l.02-1.76c0-.06-.01-.12-.02-.18,0-.2,0-.4.03-.6v-.35Zm-1.01,1.01c.07.14.14.27.2.37-.24-.05-.25-.06-.2-.37Z"/><path class="cls-1" d="m31.97,82.81c0-.34,0-.67,0-.85l-1.19,1.12c-.13.12-.2.29-.21.47h0c-.01.44-.02,1.19-.03,1.62l1.2-1.18c.11-.11.18-.26.2-.42.01-.14.02-.3.03-.47-.06-.05-.12-.11-.06-.2.02-.03.04-.06.07-.08Z"/><path class="cls-1" d="m73.05,85.21s-.04-.02-.08-.04c-.34.27-.83.75-1.2,1.17-.09.1-.14.23-.14.36,0,.08,0,.18,0,.28,0,.12,0,.24,0,.36,0,.14-.02.27-.02.41,0,.42,0,.88,0,1.34,0,.3,0,.6,0,.91,0,.23,0,.45,0,.67v.3s.04-.06.06-.08c.02-.02.09,0,.17.02-.07.13-.14.25-.23.35h0s0,.03,0,.05v.02h0c0,.2,0,.37,0,.52,0,.23.18.41.41.41h.96s0-.16,0-.16c-.03-.06-.05-.13-.06-.2-.01-.23.03-.45.07-.68v-1.05c0-.19-.01-.37-.01-.56,0-.11.02-.23.04-.34l.02-1.99c-.06-.21-.06-.41-.02-.62,0-.02,0-.03,0-.05h0s0-.1,0-.13c0-.09,0-.17,0-.26,0-.14.02-.28.03-.42v-.58Zm-1,2.96s-.06,0-.14,0c.07-.09.12-.15.17-.21.02,0,.03.02.05.03-.02.06-.05.13-.08.19Zm.48,1.7c-.09.26-.28-.43,0-.43,0,0,.09.15,0,.43Z"/><path class="cls-1" d="m73.02,81.94s-.04-.02-.08-.03l-1.11,1.05c-.13.12-.2.29-.21.47h0c0,.41-.02,1.07-.03,1.5.04.02.04.02.08.03l1.12-1.1c.11-.11.18-.26.2-.42.04-.48.05-1.14.03-1.5Zm-.63,2.21c-.06-.03-.11-.08-.16-.11.02-.03.04-.05.06-.08.05.04.11.07.16.11-.02.03-.06.08-.06.08Zm.29-1.49c-.05,0-.1,0-.15,0,0-.04,0-.07,0-.11.05,0,.11.02.16.03,0,0,0,.08,0,.08Z"/><path class="cls-1" d="m113.59,85.16s-.04-.02-.08-.04l-1.24.94c.03.27.18.57-.26.84v3.6c-3.77,1.67-3-2.66-2.98-4.97-.04-.02-.04-.02-.08-.04l-1.27.98c-.1.08-.17.18-.21.3.07.02.14.03.22.04.03.28.19.59-.27.86-.02,1.4.08,3.01.69,3.86.1-.07.27-.12.5-.19-.05.2-.09.37-.13.56.17.12.37.19.6.21.69.06,1.26-.17,1.78-.51-.03-.06-.06-.12-.08-.19.02-.02.05-.05.07-.07.04.06.08.11.12.17.38-.27.72-.6,1.06-.93v.55s.02,0,.02,0c.02.05.03.1.04.15-.02,0-.05,0-.08,0l-.02,1.2c0,.14-.01.31-.02.48,0,.22-.02.45-.05.64-.02.03-.41.15-.58.2-.53.17-1.07.35-1.6.35-.69,0-1.39-.02-2.08-.04.03.06.02.13-.07.23-.02-.09-.03-.16-.04-.23-1.57-.05-3.13-.15-4.7-.19v.16c.24.08.48.17.71.26.11-.05.19-.02.26.1.89.33,1.78.66,2.7.91.18.05.37.11.55.16.01,0,.03-.02.04-.02.02,0,.04.02.05.05.73.21,1.49.39,2.21.38-.03-.06-.05-.13-.02-.24.15.08.29.14.42.21,1.17-.13,2.01-.73,2.75-1.64h0c.04-.06.08-.11.12-.17.02-.02.04-.05.05-.07.07-.1.14-.19.21-.29.02-.02.06-.1.1-.17.33-.57.53-1.18.53-1.8h0s0-1.62,0-3.27c-.06-.08-.12-.15-.2-.24.08-.11.11-.26.2-.35v-2.75Zm-5.94,3.28c-.05-.03-.08-.05-.11-.07.03-.04.05-.08.08-.1.02,0,.06.03.09.04-.02.04-.04.08-.07.12Zm.54-2.16c.01.05.02.11.03.16-.03,0-.06,0-.09,0,0-.05,0-.1,0-.15,0,0,.04-.01.06-.02Zm-.26,4.05c.1.04.19.07.3.11q-.26.13-.3-.11Zm-1.47,4.46s-.08-.08-.08-.09c.02-.03.06-.07.09-.08.02,0,.05.04.08.06-.03.03-.05.07-.1.11Zm1.31.5c-.02-.15-.05-.3-.09-.61.27.2.38.28.58.43-.23.08-.35.13-.48.18Zm3.31-.3s0-.06-.02-.08c.07-.01.13-.02.2-.03,0,.03,0,.06.01.09-.07,0-.13.02-.2.03Zm1.61-2.22c-.13-.14-.23-.24-.37-.38.09-.03.16-.05.17-.05.06.13.29.16.2.44Zm-.14-1.68c.06-.43.11-.72.15-1.01.11.02.21.04.31.06.04.31.23.66-.46.95Z"/><path class="cls-1" d="m55.23,85.22s-.04-.02-.08-.04l-.38.28s-.03.04-.04.05c-.05.06-.12.11-.18.16-.04.03-.09.05-.14.06l-.54.41-.02.02s.08.1.08.1c.51.53.2.26-.16.3,0,0-.03,0-.05,0-.02,0-.05,0-.08-.02,0,.02,0,.04,0,.07v.34s0,0,0,.01c0,.62.03.6,0,1.21v.15s.19.12.19.15c0,.03-.13,0-.16.02,0,.03,0,.07,0,.1,0-.02,0-.05-.01-.07,0,.05.02.11.02.17,0,.07,0,.14-.02.2,0,.02-.01.05-.02.08v1.74c-1.47.65-2.25.39-2.65-.31-.04-.04-.07-.08-.1-.13-.04-.06-.06-.13-.09-.19-.03-.08-.05-.16-.06-.24,0-.06-.01-.12-.02-.19-.14-.62-.15-1.37-.13-2.1,0-.02,0-.05,0-.08-.06-.5-.04-1,.05-1.49,0-.29.02-.56.02-.77-.04-.02-.04-.02-.08-.04l-.15.12c-.04.05-.08.11-.12.15-.07.07-.15.13-.24.17-.05.02-.1.05-.14.07l-.62.48c-.13.1-.21.25-.22.41-.02.23-.04.62-.05,1.15,0,.05,0,.09,0,.14.02.08.02.17,0,.26,0,.23,0,.46.01.69.01.04.03.08.03.12,0,.05,0,.11.01.17.03.18.08.37.06.56,0,.06-.02.11-.02.17.16,1.3.58,2.4,1.58,2.48.5.04.83-.02,1.24-.22-.03,0,.05-.12.02-.12.11-.12.17-.22.28-.34,0,.1,0,.28-.03.33.53-.29,1-.72,1.44-1.17l-.02,1.02c0,.23.18.41.41.41h1.17s0-.27,0-.7c-.02-.1-.02-.21,0-.31v-1.16s-.02-.02-.02-.04c-.01-.04-.14-.08-.15-.12,0,0,0-.02,0-.02,0,0,.15-.03.15-.04,0-.04-.02-.09,0-.13,0-.01-.03-.05-.02-.07,0,0,.04.01.05,0v-.66s-.09-.03-.09-.04c0-.02.08-.03.09-.05v-.82c0-.07,0-.13,0-.2-.03-.31-.04-.6,0-.89v-1.77Zm-5.36,4l-.11-.48.09-.03.17.08-.14.42Zm.06-1.41c-.03-.05-.16-.26-.2-.31l.16-.14s.08.09.12.13c-.03.02-.06.29-.09.32Zm.29-1.11c.07.19.24.53-.14.49.11-.09.08-.44.14-.49Zm.09,4.6l-.21-.21s.07-.22.21-.22c.04,0,.09.02.09.02l.02.17-.11.23Zm4.21-.26l-.2-.17s.04-.16.2-.16c.06,0,.14-.03.16-.04l-.15.36Zm.16-2.26l-.26.2s-.07-.33.09-.33c.07,0,.16-.04.16-.04v.17Z"/><path class="cls-1" d="m70.19,91.63c-.04-.07-.08-.14-.08-.23,0-.2.02-.39.05-.58,0-.28-.02-.58-.02-.9,0,0,0,0,0-.01,0-.02-.02-.04-.02-.06-.04-.1-.06-.2-.08-.3-.02-.17.02-.33.1-.48,0-.69,0-1.42,0-2.14,0-.13-.02-.25,0-.38.02-.35-.03-.69-.03-1.04,0-.26.04-.52.06-.78,0-.28,0-.55.02-.8,0-.16-.01-.32-.01-.48,0-.04.01-.08.02-.11.01-.69.02-1.19.03-1.4-.04-.02-.04-.02-.08-.04l-1.29,1.13c-.12.11-.19.26-.19.43v.28c.2.15.19.29.06.59,0,.03,0,.06.01.09,0,0,0,.02,0,.03,0,.06-.01.12-.02.18,0,.02-.01.05-.02.07,0,.03-.02.05-.03.07v.75c.07.02.14.04.2.06-.01.16.05.5-.07.48-.1-.02-.31-.36-.29-.52-.23,0-.64.02-.79.01-.06,0-.12.01-.18.02-.03,0-.05.02-.08.03-.05.01-.1.02-.15,0-.26.06-.52.15-.76.29,0,0,0,.02,0,.03,0,0,0-.01,0-.02-.87.48-1.58,1.37-2.16,2.1-.04.1-.08.19-.12.29-.04.08-.09.16-.14.23-.24.67-.24,1.44,0,2.11.04.03.08.06.12.09.11.1.17.22.22.36.01.04,0,.09,0,.13,0,.03,0,.07,0,.11.42.57,1.08.97,1.99.97,1.01.08,1.97-.71,2.26-1.08v.6c.02.22.2.39.42.39h1.11c-.02-.17-.03-.37-.04-.59Zm-5.51-1.23l-.29-.58s.38-.15.52-.15c.07,0,.28.04.28.04l-.52.69Zm4,.56c-1.04.18-1.89-.06-2.47-.57-.1-.08-.19-.17-.27-.27-.05-.07-.11-.14-.16-.2-.45-.65-.61-1.53-.39-2.45.03-.11.06-.22.09-.33.02-.06.04-.11.06-.17,0,0,.45-.04.65-.04.08,0,.16,0,.24,0,.04,0,.08,0,.11,0,.11.01.22.03.32.05h.02c.13-.01.27,0,.4.03.02-.02.05-.04.07-.06,0,.03.03.07.02.1.06.02.11.06.15.11,0,0,0,0,.01.01.18.07.35.15.51.25.05.03.1.07.15.11.04.03.08.06.12.1.03.02.05.05.08.07.02.02.05.04.07.07.02.02.03.04.05.05.03.03.06.06.08.1.04.05.07.1.1.15v2.9Zm.76-3.59c-.07,0-.44-.3-.44-.3l.43-.36.19.14s0,.53-.18.53Z"/><path class="cls-1" d="m29.08,92.05c-.02-.23-.03-.5-.05-.78,0-.04-.02-.08-.03-.13-.02-.18-.05-.36-.03-.55,0-.08.02-.15.02-.23,0-.32-.01-.65-.02-.99-.02-.22-.03-.44-.02-.66,0-.06,0-.11,0-.17v-.89c-.02-.12-.05-.24-.08-.36-.1-.09-.19-.24-.26-.46h.34s0,0,0-.02c0-.29,0-.57,0-.84-.02-.12-.04-.24-.04-.36,0-.06,0-.13.01-.19,0-.07.02-.14.03-.2h0s0-.01,0-.02c0-.02,0-.05,0-.07,0-.08,0-.17,0-.25v-.02c0-.06,0-.12,0-.17,0-.42.02-.82.02-1.17v-.05c0-.38-.03-.75.03-1.12,0-.19,0-.33,0-.42-.04-.02-.04-.02-.08-.04l-.08.07c-.05.06-.11.11-.17.15l-.26.23s-.06.08-.1.11c-.06.06-.14.11-.21.16l-.48.41c-.12.11-.19.26-.19.43v.32c.06,0,.11.02.17.04.02,0,.03,0,.04.02.01.02,0,.04,0,.06-.05.19-.12.37-.22.54,0,0,0,0,0,.01.02.08.02.15.02.23,0,.07-.02.14-.02.2v.66s-.68.02-.92.02c0,0,0,0,0,0-.06.02-.13.02-.19.03-.02,0-.04,0-.05,0-.88.11-1.62.71-2.26,1.4-.04.06.02.34-.03.39-.02.02-.15-.18-.17-.16-.26.3-.5.6-.72.88-.25.43-.38.95-.38,1.47,0,.09.02.18.02.27,0,.02,0,.04,0,.06.04.46.18.9.42,1.28.04.06.54-.15.57-.09.04.05-.38.37-.33.42.04.03.07.07.1.1.01.01.02.03.04.04.11.1.22.2.35.28.03.02.06.03.09.05,0,0,.01,0,.02,0-.08-.11.03-.15.02-.2.19.11.18.19.32.33.02,0,.04.01.06.02.07.03.14.06.2.09.2.05.41.08.64.08,1.01.08,1.97-.71,2.26-1.08v.6c.02.08.05.16.09.22,0,0,.02,0,.03,0,0,.02.02.05.03.07.07.07.17.11.27.11h1.07c-.06-.03-.12-.06-.19-.1.08-.04.15-.06.22-.07Zm-1.54-2.01v.92c-.13.02-.25.03-.37.04.07.09.06.13.03.29-.04-.1-.29-.18-.33-.27,0,0,0,0,0,0-.08,0-.09,0-.11,0h-.02s-.03,0-.04,0c-.01,0-.02,0-.04,0h0s0,0-.02,0c-.09.01-.18,0-.26-.03,0,0-.02,0-.02,0-.05,0-.09-.02-.14-.03-.05,0-.09-.02-.14-.03-.05-.01-.09-.02-.13-.04-.09-.03-.17-.06-.25-.1-.08-.04-.16-.08-.23-.12-.04-.02-.08-.04-.11-.07,0,0,0,0,0,0-.03-.02-.05-.03-.08-.05-.03-.02-.05-.03-.08-.05t0,0h0s0,0,0,0c-.02-.02-.05-.03-.07-.05-.02-.02-.05-.03-.07-.05-.06-.04-.11-.09-.16-.15-.01,0-.02-.02-.03-.03,0,0,0,0-.02,0-.03-.03-.06-.06-.08-.09-.05-.06-.1-.12-.15-.18-.01-.02-.02-.03-.03-.05-.02-.04-.04-.08-.05-.13,0,0,0-.02-.01-.03h0c-.1-.2-.19-.39-.25-.6-.03-.13-.06-.26-.08-.4,0-.02-.01-.04-.02-.05-.02-.1-.03-.19-.03-.29,0-.05,0-.1.02-.14,0-.02,0-.03,0-.05,0-.14.02-.29.04-.44.02-.1.04-.2.06-.3.04-.15.08-.3.14-.45,0,0,.06,0,.14-.01.04,0,.08,0,.13,0,.05,0,.11,0,.17-.01.02,0,.05,0,.07,0,.02,0,.05,0,.06,0,.03,0,.05,0,.08,0h.04s0,0,0,0c0,0,0,0,0,0,.07,0,.14,0,.2,0,.07,0,.14.01.2.02.05,0,.1,0,.15.02.11,0,.21.03.32.05.04,0,.08.02.11.04,0,0,.01,0,.02,0,.05.01.09.03.13.04.07.02.14.05.2.08.06.02.11.05.17.08.05.03.11.05.16.08.05.03.1.06.15.09.05.03.1.07.14.11.05.04.09.08.13.11.03.02.05.05.08.08.1.1.18.21.26.33v.46c.01.06.02.12.02.19,0,.1-.02.2-.01.3,0,.11,0,.21,0,.32v.37c0,.06.02.12.03.18,0,.06,0,.12-.03.17Zm.21,1.49c.08-.11.16-.23.25-.35-.08-.02-.14-.04-.2-.06,0-.02,0-.03-.01-.05.12-.02.23-.05.37-.08.03.33-.21.42-.41.54Z"/><path class="cls-1" d="m97.29,83.45c-.16-.14-.35-.26-.55-.36-.02.02-.05.05-.08.06-.02.02-.13-.05-.14-.08,0-.03,0-.05,0-.08-.67-.29-1.51-.44-2.27-.5,0,.02,0,.05,0,.07-.08.02-.16.04-.32.07.05-.06.09-.11.14-.16-.76-.05-1.43-.04-1.77-.02-.15,0-.29.08-.4.19l-1.49,1.7s.02.04.04.08c.18-.02.54-.06,1-.08,0,.4.01,1.62.02,2.93.03.16.04.31,0,.46,0,.26,0,.51,0,.77.07.07.17.12.07.24-.01.02-.04.03-.07.03,0,1.39.02,2.57.02,2.57,0,.42,0,.85,0,.85.33.06.66.1.99.14-.05-.1-.09-.19-.13-.29h0,0s0,0,0,0c.06.02.14.02.16.05.04.08.07.17.11.25.25.02.5.05.75.06.53.02,1.05,0,1.56-.07.43-.06.85-.15,1.25-.28.34-.11.66-.25.97-.42.25-.14.49-.3.72-.49.17-.14.34-.3.49-.47,0,0,.02-.02.03-.04-.02-.03-.05-.05-.08-.08.05,0,.09.01.13.02.17-.23.5-.75.71-1.65.32-1.41.24-3.55-1.87-5.47Zm-4.86.12c.1.16-.04.19-.12.31-.08-.14-.13-.24-.18-.35.13-.06.21-.1.3.04Zm-.07,8.46c-.02-.09-.05-.17-.08-.31.23.1.14.2.08.31Zm.04-2.22c.41-.42-.44-.72-.08-1.06.04.01.09.02.11.04.17.2.32.4.54.66-.21.13-.39.24-.57.35Zm.92.97l-.11-6.39c2.35.23,5.31,1.38,5.32,5.53-1.43.75-2.56,1.1-5.21.86Zm4.89-5.41c.19-.09.26.02.33.17-.17.06-.26-.03-.33-.17Z"/><path class="cls-1" d="m21.77,88.27s0-.02,0-.04v-3.01s-.04-.02-.08-.04l-.2.15c-.06.06-.13.12-.2.17-.03.02-.05.03-.08.05l-.17.13s-.1.09-.16.13c-.01,0-.02.01-.03.02l-.43.32c-.14.11-.23.28-.23.45v.68c.07.04.51,0,.57.03-.05.11-.47.3-.52.41,0,.15-.02.3-.05.45v.21s.02.08.02.12c0,.26,0,.51-.02.77,0,0,0,.02,0,.02v1.4c-.57.25-1.03.36-1.41.37-.03.01-.06.03-.1.03-.03,0-.06,0-.09,0-.03,0-.06,0-.09,0h-.05s-.08,0-.12-.02c0,0,0,0-.01,0-.01,0-.03-.01-.04-.02-.03-.01-.07-.03-.08-.04,0,0,0,0,0,0h0s-.06-.05-.09-.07c0,0,0,0,0-.02-.01,0-.02,0-.04-.02-.03-.02-.06-.04-.09-.07,0,0,0-.02-.01-.02-.35-.24-.56-.67-.68-1.19-.01-.03-.02-.06-.03-.09-.04-.14-.06-.29-.05-.43-.01-.11-.02-.21-.03-.32,0,0,0-.01,0-.02-.01-.05-.02-.1-.02-.15,0-.02,0-.03,0-.04,0-.02-.18.06-.18.05,0-.02.19-.31.19-.34,0-.21,0-.25,0-.46,0-.08-.02-.17-.02-.25,0-.05-.04-.29.04-.35,0-.18.01-.38.02-.59-.01-.13-.02-.26-.02-.39,0-.2.02-.39.05-.58,0-.17,0-.33,0-.47-.04-.02-.04-.02-.08-.04l-.36.28s-.05.07-.08.1c-.06.06-.13.12-.2.16-.05.03-.09.06-.14.08,0,0-.02,0-.03.01l-.45.35c-.13.1-.21.25-.22.41-.02.2-.03.54-.05.97.05.1.06.2.04.31v.05c-.02.15-.02.3-.02.46,0,.08,0,.15,0,.23,0,.02,0,.05,0,.07.04-.02.1.03.14.01.15.35.15.38-.07.6h0s0,.04,0,.05c0,.01,0,.03,0,.04,0,.05,0,.1-.02.15,0,0,0,0,0,.01.02.21.05.41.08.61.02.09.05.18.06.27,0,.05.02.11.02.17.08.34.18.65.32.91.01.02.03.02.04.04,0,.02.02.03.03.05.02.02.04.05.07.08.02-.02.07-.08.08-.1.02.02.05.16.07.18l-.06.06s.01.03.02.04c0,.01,0,.03,0,.04.22.26.51.42.87.45.6.05,1.11-.11,1.57-.38,0,0,0,0,0,0s0,0,0,0c0,0,.02-.02.03-.03.05-.05.12-.09.19-.11,0,0,.01,0,.02,0,.4-.27.77-.62,1.13-.98l-.02,1.02c0,.23.18.41.41.41h.45s0,0,.02,0h0s.08-.01.12-.02h.02s.1,0,.14.02t0,0h.41s0-.23,0-.58c0-.02-.01-.03-.01-.05,0-.02,0-.04,0-.06-.01-.04-.03-.07-.02-.11,0-.1,0-.19.02-.29,0,0,0-.01,0-.02v-.52c-.01-.09-.02-.18-.03-.27-.01-.19.02-.38.02-.57,0-.18-.02-.36-.02-.54,0-.1.01-.2.03-.29v-.24s-.04-.1-.05-.15c-.05-.09-.38-.18-.44-.27.07,0,.41.02.47.04,0,0,0-.02.01-.02Zm-3.4,3.21s-.17.02-.21.02c0-.03.06-.27.05-.29.07-.02.14-.03.21-.05,0,.03.02.05.03.08-.03.02-.04.24-.08.25Zm2.63-.74c.01-.07-.12-.17-.11-.24.03,0,.21.05.23.05-.02.07.06.28.05.35-.02,0-.15-.16-.18-.16Z"/><path class="cls-1" d="m105.95,88.87c-.09-.6-.09-1.45-.05-2.17.04-.65-.23-1.6-1.05-1.44-.67.13-1.28.3-1.98.33-.43-.01-.65-.01-1.06-.08-.01,0-.02,0-.04,0-.41.29-1.08.96-1.38,1.36,0,.03.01.04.02.07.1.05.2.07.29.1.04-.03.09-.06.14-.11,0,.05,0,.09,0,.14.9.15,1.92-.28,2.78-.41.39-.07.51.24.55.61.02.02.03.04.05.07-.02,0-.03,0-.05,0,.02.21,0,.43,0,.6-2.41.2-3.23.29-3.91,1.69-.57,1.18-.4,2.72,1.19,2.72.05,0,.11,0,.17,0-.05-.02-.09-.06-.1-.09-.04-.17.07-.22.27-.23,0,.13.07.25-.03.31.52-.04,1.09-.17,1.51-.55.38-.34.74-.63,1.16-.91.16.27.29.5.44.72.17-.13.42-.29.76-.51-.16.35-.3.64-.44.94.07.08.14.16.23.25.02,0,.04,0,.06,0,.41-.33,1.14-.97,1.4-1.31v-.05c-.46-.62-.86-1.17-.96-2.02Zm-3.61,2.08c-.63-.23-1.22-.57-1.47-1.18-.28-.68,1.15-.7,1.88-.68.56.02,1.22.19,1.66.28,0,.24.02.47.07.8-.49.91-1.4,1.04-2.14.78Zm2.48-3.98q-.31-.3.39-.65c-.15.24-.25.42-.39.65Zm.45.97s-.08-.07-.08-.11c0-.02.06-.08.1-.07.04,0,.07.05.12.11-.06.03-.11.08-.14.07Z"/><path class="cls-1" d="m88.13,85.07c-.09-.03-.18-.12-.27-.15-.71.75-1.21.91-1.34.94,0,0,0,.02.01.02-.18.05-.23-.04-.26-.17-.25-.14-.52-.24-.81-.26-1.27,0-2.13.99-2.91,1.78-.29.29-.5.6-.66.91,0,0,0,0,0,.01,0,.02-.02.04-.04.06-.2.41-.29.82-.31,1.23.04.07.08.14.12.24-.05.01-.08.02-.12.03.08,1.29,1.01,2.38,2.41,2.39.83.04,1.53-.29,2.2-.52,0,.04,0,.09,0,.14,0,.25-.01.61-.02.97.07,0,.11.04.09.12-.02.11-.05.21-.1.32,0,.27-.02.51-.04.68-.55.22-1.16.54-1.76.55h-.03c.06.17.04.2-.08.42-.25-.14-.28-.18-.07-.42-1.39,0-3.08-.08-4.44-.16-.02.06-.02.06-.04.12.47.37,2.1,1.1,3.02,1.39,0,0,0,0,0,0s0,0,.01,0c.52.14,1.04.24,1.55.19,1.77-.14,3.43-2.05,3.48-4v-.2s0-1.24,0-1.24c-.04,0-.09,0-.12.01,0-.11.05-.17.12-.2v-1.15s-.04.05-.06.08c.02-.16.05-.31.08-.46-.02-.74-.02-1.28,0-1.71-.03,0-.05.01-.08.02.02-.08.05-.12.08-.14.02-.27.04-.5.07-.72,0-.08-.02-.15-.02-.21.02,0,.04-.02.06-.02.06-.29.14-.58.26-.94Zm-5.45,5.29c.02-.06-.28-.43,0-.43s-.08.69,0,.43Zm2.74-4.27c.27-.38.28.43,0,.43,0,0-.16-.2,0-.43Zm.73,5.01c-2.99.02-3.46-1.89-2.84-4.21,1.95-.59,2.84,1.61,2.84,1.61,0,0,0,1.38,0,2.6Zm.74-1.38c-.28,0,.02-1.09,0-.43,0,.28.28.43,0,.43Zm.17-2.6s-.06,0-.08,0c0-.08.02-.15.02-.23.03,0,.06,0,.09.01,0,.08-.02.15-.03.22Z"/><path class="cls-1" d="m98.54,101.08c-1.91-.02-11.93-.02-13.84-.02-.25,0-.61,0-.72.13-.32.39-.54.85-.79,1.28-.01.02.04.09.06.09,1.03,0,7.21,0,11.15,0,.02-.04.03-.09.05-.13.16-.05.3-.09.45-.14.09.09.22.17.28.27,1.37,0,2.35,0,2.52,0,.07,0,.17-.04.2-.08.26-.41.5-.85.74-1.27.02-.03-.05-.13-.08-.13Zm-13.55.94c-.02-.09-.04-.18-.06-.27.03,0,.06-.01.08-.02.02.09.03.18.05.27-.02,0-.05,0-.07.02Zm1.47.03s-.05-.02-.07-.03c.03-.07.06-.13.09-.2.02.01.05.02.07.03-.03.07-.06.13-.1.2Zm.4-.66c.13-.25.25-.36.47-.29-.12.11-.18.32-.47.29Zm1.7.47c.32-.02.58-.03.87-.05-.18.66-.45.7-.87.05Z"/><path class="cls-1" d="m25.25,101.08c-.24,0-.61,0-1.07,0-.07.16-.27.22-.42.26-.13.04-.26.07-.4.11-.15.04-.32.08-.47.02-.06-.02-.11-.06-.17-.07-.02-.11-.05-.22-.08-.32-.72,0-1.53,0-2.38,0,.02,0,.04.05.08.1-.06.02-.11.05-.14.04-.02,0-.04-.05-.05-.08.04-.02.08-.05.12-.06-1.83,0-3.83,0-5.5,0,.03.05.06.09.09.14-.11.08-.21.16-.32.26-.07-.09-.12-.16-.17-.22.04-.06.08-.12.12-.18h-3.06c-.25,0-.61,0-.72.13-.32.39-.54.85-.79,1.28-.01.02.04.09.06.09h2.12s.05-.04.07-.06c.21-.11.46-.09.69-.02.09.02.17.05.26.08,1.56,0,3.48,0,5.29,0,0-.03,0-.06,0-.08.04.03.07.06.11.08h2.57s.07-.03.11-.04c.21-.08.42-.14.63-.21.01.03.02.06.03.09-.13.05-.26.1-.39.16,1.6,0,2.76,0,2.94,0,.07,0,.17-.04.2-.08.26-.41.5-.85.74-1.27.02-.03-.05-.13-.08-.13Zm-12.97.4c-.08-.13-.12-.2-.17-.27q.23-.04.17.27Zm5.97-.07c-.1-.11-.06-.19.05-.23.03-.01.11.02.12.05.03.14-.06.17-.17.18Zm2.53.7c-.05-.13-.09-.24-.14-.36.15-.07.22-.02.27.08.06.11.03.19-.14.27Z"/><path class="cls-1" d="m45.38,103.92s-.43,0-.97,0c0,.02-.02.03-.04.04-.02,0-.03,0-.05.01-.09.02-.15.08-.22.13-.02.02-.05.03-.08.03-.02,0-.05,0-.08,0-.13-.02-.26-.05-.39-.08-.02,0-.03,0-.04-.02-.01,0-.02-.02-.03-.04-.02-.03-.03-.06-.05-.09-.29,0-.55,0-.77,0,2.12-1.96,2.53-2.54,2.65-3.41.08-.6-.09-1.29-.51-1.76-.01.01-.02.02-.03.04-.07-.08-.14-.17-.2-.26-.07-.05-.13-.1-.2-.14-.26-.14-.54-.23-.81-.26.02.05.07.1.07.15,0-.06-.88.04-.96.02-.02,0-.03-.01-.05-.02h0c-.07.04-.14.07-.2.12-.71.47-1.01,1.15-1.28,1.89l.11.08s.02-.02.02-.03c.67-.88,1.72-.84,2.38-.39,0,0,.01,0,.02.01.01-.04.03-.08.05-.1.14-.12.43.02.53.13.07.08.12.18.21.23.03.07-.02.14-.09.18-.06.03-.14.04-.21.03h-.08c.24.47.18,1.06-.22,1.52-.59.68-1.55,1.46-2.14,1.86-.65.44-1.07,1.51-1.07,1.51h.81c.14-.08.33-.11.51-.17.05.07.09.12.13.17h2.41c.16,0,.3-.08.38-.22l.56-1-.08-.15Zm-2.61-4.68c0-.06,0-.12,0-.18.02,0,.05,0,.07,0,0,.06.02.12.03.18-.03,0-.06,0-.09.01Zm1.83,2.26c-.06.04-.13.08-.21.14-.04-.25.12-.14.21-.14Zm-1.39,1.34s.16-.08.19,0c0,0,0,.01,0,.02-.04.09-.09.18-.17.23,0,0-.02.01-.03.01-.03,0-.06-.04-.09-.03,0,0,.08-.2.11-.23Zm-1.48,2.11s-.05,0-.07-.01c.02-.06.03-.12.05-.18.02,0,.05.02.07.03-.02.05-.03.11-.05.16Zm3.34-.6q-.12-.14.04-.32c-.01.09-.02.18-.04.32Z"/><path class="cls-1" d="m40.24,98.37s0,.04,0,.06c0,.01,0,.02,0,.03,0,.01-.02.02-.04.02-.19.08-.38.15-.58.23-.09-.16-.29-.22-.4-.35h-.76s0,.23,0,.23c-.09-.09-.11-.16-.09-.23h-.14s0,.02,0,.03h-.06s0-.02,0-.03h-1.63s-.38.7-.38.7c0,0,0,0,.01,0,.14.14-.12.35-.19.46-.05.08-.08.18-.14.26-.01.02-.03.03-.05.04-.02,0-.03,0-.05,0h-.01s-.05.08-.05.08h3.69s-2.69,5.36-2.69,5.36h.66s3.54-6.92,3.54-6.92h-.62Zm-2.41,1.37c-.03-.06-.06-.11-.05-.14,0-.03.06-.05.1-.08.02.05.04.09.04.13,0,.02-.04.04-.09.08Z"/><path class="cls-1" d="m51.44,98.37h-1.27s-.05.02-.07.02c0,0-.02-.02-.02-.02h-.24c.1.06.08.1-.03.25-.02-.08-.04-.16-.07-.25h-2.26c-.16,0-.3.08-.38.22l-.1.18c.08,0,.16.05.23.17-.11-.03-.2-.05-.28-.07l-.51.92c.03.06.04.07.07.13h.94s.02-.06.03-.1c0-.02,0-.03.02-.05,0,0,.02-.02.03-.03.21-.16.5-.19.74-.08-.02.01-.05.02-.08.01,0,.08.06.15.13.18.08.03.16.03.24.04.02,0,.04,0,.06.02h1.45s-1.37,2.74-1.37,2.74c.05,0,.09.03.11.06.04.07-.03.14-.07.19-.05.08-.11.15-.16.23-.03.04-.13.2-.17.2-.02,0-.03,0-.05-.01l-.97,1.95h.66s1.79-3.5,1.79-3.5h0s-.01-.11-.01-.15c0-.02,0-.04,0-.06,0-.02.01-.04.02-.05.06-.1.12-.19.18-.29,0-.01.02-.03.04-.03,0,0,.02,0,.02,0,0,0,.02,0,.03.02l.35-.67h-.12c.06-.05.12-.09.18-.14,0,0,0,.01,0,.02l1-1.95c-.03-.05-.04-.07-.08-.12Zm-1.93.23s-.05-.04-.1-.07c.05-.04.09-.08.13-.09.01,0,.07.07.07.08-.02.04-.06.07-.1.09Zm-1.1,5.69c-.01.06-.06.1-.11.14-.05-.07-.23-.24-.1-.32.1-.06.23.08.21.18Zm2.33-4.64s-.06-.02-.09-.04c.02-.06.05-.11.07-.17.02,0,.04.01.06.02-.02.06-.03.12-.04.18Zm.22-.13s-.06-.02-.09-.03c.02-.06.03-.12.05-.17,0,0,.07.02.1.02-.02.06-.04.12-.07.18Z"/><path class="cls-1" d="m34.45,98.21l-.25-.09s-.66.98-1.55,1.68h.51s0,.54,0,.54c.18.05.19.18.12.31-.03.07-.08.1-.12.1l.02,4.11c0,.23.19.43.43.43h.83s0-.48,0-.48c-.05.05-.11.09-.14.11-.02.01-.04.02-.07.03-.02,0-.05,0-.08,0-.07,0-.15,0-.22-.02,0-.12.02-.24.03-.35,0,0,0-.02,0-.03,0,0,.02,0,.02-.01.13-.03.26-.07.39-.11.02,0,.03,0,.05-.02v-2.66c-.03-.14-.03-.28,0-.41v-3.14Zm-.56,5.27s-.08-.06-.08-.06c.04-.05.08-.11.11-.15l.07.06c-.04.05-.08.1-.11.15Zm.07-1.38c-.08-.07-.15-.13-.28-.24.18,0,.27-.02.42-.02-.07.12-.11.19-.14.27Z"/><path class="cls-1" d="m56.84,98.09l-.55,1.03-.2.38-1.06,1.96s.01,0,.02,0c-.01.07-.02.14-.04.21-.03,0-.06-.02-.09-.03l-.28.52c.09.05.1.17.04.31-.07-.02-.12-.03-.18-.05l-.87,1.61c-.08.15-.12.32-.12.5l.02.91c.08.02.08.02.16.04l.66-1.25s-.08.05-.12.07c-.02,0-.05.02-.06,0,0,0,0-.02,0-.03,0-.19-.02-.38-.08-.57.2-.06.41-.11.62-.14l2.22-4.21c.08-.16.12-.33.11-.51l-.04-.71c-.08-.02-.08-.02-.16-.04Z"/><path class="cls-1" d="m63.37,67.87c-.04-.07-.07-.14-.07-.22,0-.18,0-.36.02-.55,0-.11.02-.23.04-.34,0-.88-.01-1.75-.02-2.63,0-.03,0-.07-.01-.1-.02-.2-.02-.39,0-.59,0-.55-.01-1.1-.02-1.65-.04-.15-.05-.31-.04-.46,0-.09.02-.18.03-.27v-.11c0-.62,0-1.24-.02-1.87t-.08-.02l-1.11,1.43c.09.02.15.13.21.29-.13-.04-.23-.07-.35-.11l-.26.34c-.14.21-.21.47-.21.72.02.4.03.82.04,1.23,0,.03.02.05.02.08,0,.43.06.86.03,1.3,0,.02-.01.05-.02.07.02.9.08,1.79.13,2.69,0,.02.01.03.01.04,0,.3.02.59.04.89v.05c0,.11.02.22.02.32,0,.01,0,.02,0,.03,0,.28.02.57.02.85,0,.12.01.26-.03.39-.01.04-.38.09-.93.14-.47.16-.98.11-1.47.09-.22,0-.43.02-.65.02-.11.03-.21.07-.32.11-.09-.03-.17-.07-.25-.1-.52,0-1.01,0-1.39-.03.13-.22.22-.38.31-.54.54-.94.88-2.05.91-2.13t0,0c-.07.03-.78.27-1.43.48,0,0,0,0,0,0-.13.06-.25.13-.38.18-.29.13-.58.23-.9.24-.02,0-.04,0-.06-.01-.21.07-.42.13-.64.2-.19.08-.37.17-.57.23-.32.09-.63.2-.94.3-.37.11-.74.23-1.12.31-.07.05-.14.1-.21.15-.2-.02-.38-.03-.55-.03-.89.2-1.81.36-2.73.43-.05,0-.09-.03-.09-.08l.04-1.2c-.11.21-.24.4-.43.72-.06-.21-.09-.29-.09-.35.03-.23.26-.71.42-.62.05-.01.08.12.1.17l.05-1.74c-.1-.32-.05-.7.03-1.06l.04-1.24s-.01-.02-.02-.03c0-.07-.02-.14-.02-.21,0-.04,0-.07.02-.11-.05-.02-.09-.03-.13-.05.05-.26.1-.53.16-.85,0,0,.02,0,.02.02l.02-.5c0-.06-.02-.13-.02-.2,0-.09.02-.17.03-.26,0-.01,0-.02,0-.03-.02-.14,0-.28.02-.42,0,0,0,0,0-.01v-.37s.01-1.12.01-1.12t-.09-.03l-.6.77c.14.14.27.26.41.4-.03.04-.07.08-.1.13-.14-.13-.39-.14-.37-.45l-.87,1.11c-.13.2-.2.42-.2.65v.65c.05.03.11.06.17.09-.07.03-.12.06-.17.09v.88s0,0,0,0c0,0,0,0,0,0v1.49s.1,0,.17,0c-.05.16-.09.25-.14.3.01.08.02.17.02.25,0,.14-.02.29-.05.43v2.75c.04.17.08.35.07.53,0,.15-.04.29-.08.43v1.42c0,.21.17.39.38.38.28-.02.57-.04.86-.07.02-.02.05-.05.09-.07.33-.14.75-.14,1.21-.1.24-.04.49-.09.74-.14.4-.2.84-.28,1.29-.3,1.48-.37,2.88-.83,3.91-1.23-.04.08-.06.14-.09.2-.24.48-.5.96-.74,1.43-.03.08-.1.19-.16.31-.09.16.03.36.22.35l3.13-.15c.17-.04.33-.05.5-.02l1.53-.08c.08,0,.16-.01.25-.02.1-.02.19-.05.29-.07.11-.03.21-.06.32-.1t.01,0s.04-.02.06-.03c.04-.02.08-.03.11-.05.14-.07.29-.14.45-.17.01,0,.02,0,.03,0,.05-.03.1-.05.14-.06.11-.03.18,0,.24.05.02,0,.03,0,.05,0,.17-.08.33-.16.45-.25.47-.34.85-.78,1.11-1.3.15-.29.26-.63.29-1.05.02-.3,0-1.15,0-1.68Zm-16.33-.22c.19-.07.37-.17.56-.18.12,0,.24.13.36.21-.14.04-.29.08-.51.14-.13-.05-.27-.11-.41-.17Zm.52,3.42c-.07-.06-.13-.09-.13-.12,0-.05.04-.1.08-.14,0,0,.1.03.1.06,0,.05-.02.11-.05.2Zm3.14-.25c-.07,0-.14,0-.21-.02-.07.03-.25-.17-.24-.21.07.02.4.13.47.14,0,.02,0,.05-.01.08Zm2.18-.18c-.23-.51-.33-.73-.42-.94.12-.05.26-.15.38-.12.08.01.18.18.19.29.02.15-.05.31-.14.78Zm1.71-1.36c.06.1.1.17.17.29-.31,0-.28-.1-.17-.29Zm1.72-.16c-.11.02-.25-.02-.34-.09-.05-.04-.04-.2,0-.27.13-.2.3-.12.49-.04.02.19.04.36-.15.39Zm.45,3.02s-.02.07-.03.11c-.03.05-.07.11-.1.16.02-.07.05-.13.07-.2.02-.02.04-.05.06-.08.03-.09-.07-.14-.05-.22.03.02.2.04.2.04-.05.07-.1.13-.15.19Zm1.55-.73c-.12-.18-.18-.27-.24-.36.02-.03.04-.05.06-.08.08.03.2.04.23.1.03.06-.02.17-.05.34Zm.81.76c-.05-.07-.16-.16-.15-.19.05-.09.15-.16.23-.24.09.11.18.22.27.33-.1.03-.21.06-.35.1Zm.83-1.11c-.16,0-.32-.1-.47-.16.11-.06.22-.12.39-.22.14.08.27.14.39.21-.1.06-.21.17-.31.17Zm2.29-6.26c.03-.05.07-.11.1-.16-.03.06-.05.13-.07.19,0,0,0,0,0,.02.05.13.11.26.17.38.02,0,.04.01.05.02.06.04.11.07.17.11-.07-.03-.13-.05-.2-.08,0-.02-.01-.03-.02-.05-.13-.05-.25-.09-.38-.14.07-.08.14-.16.21-.25,0-.02-.02-.03-.02-.05Zm.54,2.32q-.24.11-.43-.19c.17.04.35,0,.43.19Zm-.35,1.62c-.07-.02-.17-.15-.16-.21,0-.07.13-.16.22-.17.09,0,.19.07.4.14-.3.16-.39.25-.46.24Zm.1-5.21c-.06.04-.25-.17-.39-.26.17-.22.35-.45.52-.68.12.13.23.26.38.42-.2.22-.33.41-.51.52Z"/></g><path class="cls-1" d="m31.21,101.26c-.03-.24-.34-.28-.65-.27-.05.03-.11.04-.17.04-.05,0-.11,0-.16-.01-.17.02-.31.05-.37.05-.2.03-.33.21-.45.43.1.06.21.18.32.26-.1.11-.19.21-.28.31-.07-.07-.15-.13-.22-.19-.15.33-.3.66-.57.71-1.08.21-1.47,1.04-1.53,2.05,0,.05,0,.09,0,.11,0,.04,0,.08,0,.1,0,.18.01.36.03.55,0,.05.01.1,0,.14.02.07.02.13.02.18.03.22.06.44.1.67.04.08.06.2.06.27,0,.01,0,.02,0,.04.02.08.03.15.05.23.03.07.05.16.06.23,0,.01,0,.02,0,.04.02.04.03.09.04.14,0,.02.01.05.02.07.02.05.03.1.04.15,0,.03.02.06.03.09,0,0,.02,0,.02,0l.18-.52c.02-.06.03-.13.03-.2,0-.04,0-.07,0-.1,0-.06-.01-.13-.03-.19-.01-.04-.02-.08-.04-.11-.02-.04-.04-.09-.05-.14-.01-.04-.03-.09-.04-.13v-.02s0-.01-.01-.02c-.01-.04-.02-.07-.03-.11-.01-.03-.02-.07-.03-.11-.01-.05-.03-.1-.04-.15-.05,0-.09-.02-.12-.05-.06-.07-.06-.15.01-.21.01-.01.03,0,.04-.02,0-.01,0-.02,0-.03,0,0,0-.01,0-.02,0-.02,0-.03,0-.05,0-.02-.02-.04-.02-.06,0-.02,0-.04,0-.06,0-.02,0-.04,0-.06,0-.06,0-.12,0-.18h0s0,.03,0,.04c0-.01,0-.03,0-.04,0,0,0,0,0,0h0s0-.08.02-.11c0,0,0,0,0,0h0s.01-.03.01-.04c0-.04.02-.07.03-.11.01-.08.05-.17.1-.24.03-.05.07-.09.11-.13.08-.09.17-.17.27-.24,0,0,0,0,0,0,.04-.03.09-.06.13-.1.01,0,.03-.01.04-.02,0,0,.01,0,.02,0,.02-.02.04-.03.06-.05.06-.04.12-.06.18-.09.03-.02.06-.05.09-.06,0,0,0,0,0,0,0,0,.02,0,.02-.01.01,0,.03,0,.04,0,.08-.04.17-.08.25-.12.09-.04.18-.08.27-.12.04-.03.08-.04.12-.06.02,0,.03-.01.05-.02.19-.08.38-.17.56-.27,0-.04.01-.08.04-.12.06-.1.11-.21.26-.2.03,0,.06-.02.08-.03.1-.05.14-.07.21-.04.37-.32.64-.74.71-1.35,0-.05,0-.08.02-.09,0-.02,0-.05,0-.06,0,0,0-.01,0-.02,0-.03,0-.06,0-.09,0,0,0-.01,0-.02Zm-3.43,2.92c-.06-.05-.06-.05,0-.16.02.05.04.1.06.15-.03,0-.05.02-.06.02Z"/><path class="cls-1" d="m81.66,103.79s0-.01,0-.02c-.02-.08-.06-.15-.11-.21-.23-.25-.38-.57-.48-.89-.05-.16-.09-.33-.11-.5-.02-.15,0-.35-.05-.5-.02-.05-.03-.11-.04-.16,0-.09,0-.17,0-.25,0-.03.01-.07.02-.1,0-.26.01-.51.03-.76-.12-.07-.12-.07-.18-.27.06-.12.1-.21.15-.31-.96-4.45-4.34-.19-3.5,1.68,0,.01.01.02.02.03.02.04.05.08.07.13,0,.01.01.02.02.03,0,0,0,0,0,.01.14.2.35.37.65.47.88.26,1.67-.11,1.93-.34-.06.66-.02.99.01,1.35,0,.05.01.1.01.13.02.14.04.28.07.42,0,.02,0,.04.01.05.04.17.09.34.15.52,0,0,0,.02,0,.02.05.14.1.28.16.42.03.04.06.09.07.15,0,.02.02.03.02.05,0,.01.01.03.02.04.09.16.19.33.3.49.02,0,.04,0,.07,0l.24-.47s0-.01,0-.02c0-.01,0-.02.01-.03-.15.07-.14-.11-.23-.12-.08,0-.15-.04-.25-.06-.06-.08-.14-.18-.23-.31,0-.05.01-.12.03-.24.1.05.18.1.27.16.09-.06.19-.12.32-.2,0,.26-.09.53.09.75,0-.01,0-.03.02-.04,0-.02.02-.04.03-.05,0,0,.01,0,.01,0l.29-.66c.05-.1.07-.21.06-.31,0-.03-.02-.06-.02-.09Zm-3.89-2.26s-.03,0-.04.01c-.03-.06-.08-.12-.09-.19,0-.03.04-.07.07-.1.03.03.08.06.09.09,0,.06-.01.13-.02.19Zm.79-2.8s.07.05.08.08c0,.02-.03.05-.07.1-.04-.06-.07-.09-.08-.13,0-.01.06-.06.07-.06Zm.5.55c.51-.18,1.01,1.07,1.01,1.59-1.31.47-2.76-.97-1.01-1.59Z"/><path class="cls-1" d="m76.37,98.18l-.53-.19c.39,1.28-.54,1.7-.93.92-.09,0-.1-.13-.17-.14-.08,0-.16-.04-.25-.06,0,0,0-.01-.01-.02l.09-.38s-.04-.02,0,0c.06-.04.12-.08.19-.12,0-.02,0-.05,0-.07l-.51-.13c.02.09.02.17.03.25v.19c0,1.59-2.06.86-2.39-.56l-.58,1.12c-.09.16-.08.36.01.51.82,1.34,1.64,4.04,1.13,5.86h.07c1.21-.95,1.12-3.64.69-4.69.51.16.9.12,1.11-.33,1.47,1.41,2.56-.6,2.05-2.18Zm-3.71,4.53c.05.05.1.11.17.18-.06.07-.1.14-.15.15m.43-3.02c.01.11.02.19.03.32-.1-.11-.17-.18-.03-.32Zm2.09.7c.03-.08-.03-.19.13-.27-.01.14.04.26-.13.27Z"/><path class="cls-1" d="m64.47,100.6l.44,1h0c.05.13.08.26.12.38.16.03.29.15.36.29.03.06-.04.24-.02.38.02.1.01.21.02.31-.02.01-.04.02-.07.04-.02-.04-.05-.08-.08-.12.16.82.24,1.66.28,2.5h.1c.32-.44.54-.92.67-1.42-.03.07-.07.13-.11.2-.1-.07-.12-.2-.09-.31,0-.04.11-.1.15-.16.03-.05.07-.1.11-.15.01,0,.02,0,.03,0,.1-.63.08-1.3-.06-1.98-.25-1.22-.59-2.39-1.36-3.48-.04.03-.12-.09-.09-.13-.05-.07-.1-.14-.16-.21-.27.62-.44,1.04-.64,1.53-.09.21-.07.56.05.75.13.19.24.38.34.57Z"/><path class="cls-1" d="m65.36,100.77s-.04,0-.06,0c0-.04-.01-.08-.02-.12.03,0,.06,0,.09-.01,0,.04,0,.08,0,.12Z"/><path class="cls-1" d="m68.12,100.61h.26s.08,0,.12.02c.04.01.06.04.09.07.09.09.18.18.27.27,0,0-.04,0-.04,0l-.26.64s-.05-.01-.05,0c.43,1.2.61,2.49.67,3.78h.09c.74-1.2.98-2.43.7-3.8-.13-.63-.28-1.24-.5-1.84,0,.02,0,.05-.01.07-.03.1-.1.2-.15.31-.1-.07-.12-.2-.09-.31,0-.04.11-.1.15-.16.01-.02.03-.05.05-.07-.2-.51-.45-1-.79-1.48-.04.03-.09.06-.15.11.02-.13.03-.2.06-.23-.05-.07-.1-.14-.16-.21-.25.63-.43,1.04-.63,1.53-.09.21-.07.56.05.75.13.19.24.38.34.57Z"/><path class="cls-1" d="m62.97,102.12s-.11-.69-.11-.69c-.04-.19-.09-.34-.16-.47-.03-.04-.05-.1-.11-.1-.08,0-.16-.04-.25-.06-.06-.08-.12-.17-.2-.27-.9-.16-2.37,1.41-2.7,2.12-.13.23.33.25.42.13h0c.33-.26.99-1.2,1.52-1.07.08.05.13.1.17.17.28.51.45,1.37.41,2.07-.25.12-.53.21-.84.27.29-.45.55-.75.16-1.27h0c-.72-.98-1.94.92-2.26,1.46-.26.06-1.24.14-1.18.26l-.29.84s.03.04.03.06c0,.03,0,.08-.01.08,0,0,0,0-.01,0,0,0,0,.01,0,.02.53,0,1.12-.2,1.67-.29.03-.03.06-.06.09-.1.06.02.1.04.14.06,0,0,0,0,0,0h0c1.87.16,3.77-1.39,3.51-3.22Zm-3.12,1.47s.06.04.06.05c0,.03-.03.06-.05.09-.03-.02-.06-.04-.1-.07.04-.03.06-.06.09-.07Zm-.06.7s-.07-.05-.06-.1c.08-.14.42-.28.6-.32.08,0,.13.07.2.23-.14.08-.55.15-.74.2Zm1.99.15s-.03-.02-.05-.03c.02-.02.03-.03.05-.04,0,.01.02.03.03.04,0,0-.02.03-.02.03Z"/></g></g></g></svg>