<?xml version="1.0" encoding="utf-8"?>
<!-- Generator: Adobe Illustrator 26.0.1, SVG Export Plug-In . SVG Version: 6.00 Build 0)  -->
<svg version="1.1" id="Layer_1" xmlns="http://www.w3.org/2000/svg" xmlns:xlink="http://www.w3.org/1999/xlink" x="0px" y="0px"
	 viewBox="0 0 200 50" style="enable-background:new 0 0 200 50;" xml:space="preserve">
<style type="text/css">
	.st0{fill:#62CBC9;}
	.st1{fill:#CC5599;}
	.st2{fill:#FFD040;}
	.st3{fill:#FF7276;}
	.st4{fill:#7A2682;}
	.st5{fill:#FFFFFF;}
</style>
<polygon class="st0" points="4.78,2.66 27.29,47.67 27.29,2.66 "/>
<rect x="27.29" y="2.66" class="st1" width="45.01" height="45.01"/>
<g>
	<path class="st2" d="M72.29,2.66c12.43,0,22.5,10.08,22.5,22.5c0,12.43-10.08,22.5-22.5,22.5V2.66z"/>
	<path class="st3" d="M72.29,2.66c-12.43,0-22.5,10.08-22.5,22.5c0,12.43,10.08,22.5,22.5,22.5V2.66z"/>
</g>
<polygon class="st4" points="27.29,2.66 27.29,47.67 49.79,2.66 "/>
<polygon class="st5" points="122.74,15.4 115.79,33.17 111.67,33.17 104.72,15.4 109.17,15.4 113.78,27.84 118.37,15.4 "/>
<polygon class="st5" points="136.77,29.41 136.77,33.17 124.59,33.17 124.59,15.4 136.64,15.4 136.64,19.16 128.58,19.16 
	128.58,22.36 135.79,22.36 135.79,26.11 128.58,26.11 128.58,29.41 "/>
<polygon class="st5" points="154.87,15.4 154.87,33.17 150.82,33.17 143.46,22.3 143.46,33.17 139.47,33.17 139.47,15.4 
	143.49,15.4 150.88,26.27 150.88,15.4 "/>
<g>
	<path class="st5" d="M170.21,24.29c0-2.91-2.16-5.12-5.07-5.12h-2.91v10.25h2.91C168.04,29.41,170.21,27.2,170.21,24.29
		 M174.3,24.29c0,5.07-3.89,8.88-9.06,8.88h-7V15.4h7C170.41,15.4,174.3,19.21,174.3,24.29"/>
	<path class="st5" d="M190.65,24.29c0-3.06-2.29-5.35-5.3-5.35c-3.01,0-5.3,2.29-5.3,5.35c0,3.07,2.29,5.36,5.3,5.36
		C188.35,29.64,190.65,27.35,190.65,24.29 M175.94,24.29c0-5.23,4.04-9.19,9.4-9.19c5.33,0,9.4,3.97,9.4,9.19
		c0,5.23-4.07,9.19-9.4,9.19C179.99,33.48,175.94,29.51,175.94,24.29"/>
	<path class="st5" d="M191.98,37.92c0.77,0,1.36,0.57,1.36,1.31c0,0.75-0.58,1.32-1.36,1.32c-0.77,0-1.36-0.57-1.36-1.32
		C190.62,38.48,191.2,37.92,191.98,37.92 M193.1,42.18h-1.76c-0.4,0-0.68-0.22-0.68-0.56c0-0.21,0.11-0.41,0.3-0.54
		c0.3,0.15,0.64,0.23,1.02,0.23c1.24,0,2.19-0.9,2.19-2.09c0-0.51-0.17-0.96-0.47-1.32c0.01-0.32,0.24-0.53,0.59-0.53h0.32v-0.75
		h-0.37c-0.58,0-1,0.32-1.09,0.83c-0.34-0.2-0.73-0.31-1.18-0.31c-1.25,0-2.2,0.89-2.2,2.08c0,0.61,0.25,1.15,0.66,1.53
		c-0.37,0.21-0.59,0.63-0.59,1.08c0,0.68,0.54,1.14,1.34,1.14h1.77c0.55,0,0.92,0.28,0.94,0.72h0.84
		C194.74,42.77,194,42.18,193.1,42.18"/>
	<path class="st5" d="M148.86,39.66c0-0.99-0.73-1.73-1.71-1.73c-0.99,0-1.72,0.74-1.72,1.73c0,0.99,0.73,1.73,1.72,1.73
		C148.13,41.39,148.86,40.65,148.86,39.66 M149.67,37.26v4.8h-0.81V41.2c-0.41,0.6-1.06,0.98-1.87,0.98c-1.37,0-2.4-1.08-2.4-2.51
		c0-1.43,1.03-2.51,2.4-2.51c0.8,0,1.46,0.38,1.87,0.98v-0.87H149.67z"/>
	<path class="st5" d="M155.02,39.66c0-0.99-0.73-1.73-1.71-1.73c-0.99,0-1.72,0.74-1.72,1.73c0,0.99,0.73,1.73,1.72,1.73
		C154.29,41.39,155.02,40.65,155.02,39.66 M155.83,35.28v6.78h-0.81V41.2c-0.4,0.6-1.06,0.98-1.86,0.98c-1.37,0-2.4-1.08-2.4-2.51
		c0-1.43,1.03-2.51,2.4-2.51c0.8,0,1.46,0.38,1.86,0.98v-2.84H155.83z"/>
</g>
<polygon class="st5" points="161.73,37.26 159.62,42.06 158.76,42.06 156.65,37.26 157.59,37.26 159.21,41.09 160.83,37.26 "/>
<g>
	<path class="st5" d="M162.84,39.28h3.31c-0.15-0.83-0.81-1.39-1.66-1.39C163.65,37.89,162.99,38.46,162.84,39.28 M166.98,40.02
		h-4.14c0.16,0.84,0.85,1.41,1.78,1.41c0.71,0,1.31-0.34,1.62-0.78l0.56,0.48c-0.48,0.64-1.27,1.05-2.2,1.05
		c-1.51,0-2.63-1.09-2.63-2.53c0-1.42,1.08-2.5,2.53-2.5c1.43,0,2.51,1.07,2.51,2.51C167,39.77,166.99,39.91,166.98,40.02"/>
	<path class="st5" d="M170.65,37.18v0.84h-0.16c-1.02,0-1.64,0.64-1.64,1.64v2.4h-0.81v-4.8h0.81v0.83c0.36-0.57,0.92-0.9,1.64-0.9
		H170.65z"/>
	<path class="st5" d="M172.91,37.99v2.66c0,0.52,0.28,0.74,0.77,0.74c0.26,0,0.47-0.08,0.67-0.18v0.76c-0.24,0.13-0.5,0.2-0.84,0.2
		c-0.93,0-1.41-0.51-1.41-1.39v-2.79h-0.87v-0.73h0.87v-1.29h0.81v1.29h1.44v0.73H172.91z"/>
	<path class="st5" d="M175.39,37.26h0.81v4.8h-0.81V37.26z M175.25,35.76c0-0.31,0.24-0.54,0.55-0.54c0.3,0,0.54,0.23,0.54,0.54
		c0,0.3-0.23,0.54-0.54,0.54C175.48,36.3,175.25,36.06,175.25,35.76"/>
	<path class="st5" d="M177.19,41.42l0.45-0.58c0.36,0.37,0.87,0.6,1.49,0.6c0.63,0,1.11-0.25,1.11-0.68c0-0.46-0.54-0.6-1.17-0.75
		c-0.79-0.2-1.72-0.44-1.72-1.45c0-0.93,0.85-1.41,1.84-1.41c0.76,0,1.36,0.29,1.76,0.66l-0.45,0.59c-0.32-0.31-0.77-0.52-1.3-0.52
		c-0.56,0-1.02,0.22-1.02,0.63c0,0.47,0.55,0.6,1.19,0.75c0.79,0.19,1.71,0.42,1.71,1.42c0,0.95-0.86,1.49-1.94,1.49
		C178.29,42.18,177.63,41.85,177.19,41.42"/>
	<path class="st5" d="M182.09,37.26h0.81v4.8h-0.81V37.26z M181.95,35.76c0-0.31,0.24-0.54,0.55-0.54c0.3,0,0.54,0.23,0.54,0.54
		c0,0.3-0.23,0.54-0.54,0.54C182.19,36.3,181.95,36.06,181.95,35.76"/>
	<path class="st5" d="M188.76,39.1v2.97h-0.81v-2.71c0-0.86-0.55-1.42-1.4-1.42c-0.89,0-1.47,0.57-1.47,1.44v2.69h-0.81v-4.8h0.81
		v0.73c0.38-0.55,0.98-0.85,1.73-0.85C187.98,37.15,188.76,37.92,188.76,39.1"/>
</g>
</svg>
